<svg width="50" height="50" viewBox="0 0 50 50" fill="none" xmlns="http://www.w3.org/2000/svg">
<circle cx="25" cy="25" r="23.5" stroke="#C5AE5B" stroke-width="3"/>
<path d="M22.4 12.5735C19.8059 13.1912 17.2529 15.0029 15.8323 17.2059C15.1323 18.297 15.1735 18.5235 16.0382 18.7294C16.5118 18.8323 17.0059 18.647 18.4882 17.8235C19.4971 17.247 21.5559 16.2794 23.0588 15.6412C24.5618 15.0235 26.0853 14.2823 26.4765 13.9941C27.3206 13.3559 27.3823 12.7176 26.6412 12.45C25.9206 12.1618 23.8 12.2235 22.4 12.5735Z" fill="#C5AE5B"/>
<path d="M28.9471 13.7265C28.7412 14.7147 27.3823 15.8059 25.1588 16.7735C22.6059 17.8853 18.5294 19.8206 18.5294 19.9235C18.5294 19.9647 18.9823 20.3765 19.5382 20.85L20.5471 21.6941L24.0676 20.0677C28.4118 18.0706 29.1735 17.6382 30.1206 16.5882C31.3147 15.2706 31.1088 14.1177 29.5235 13.3147C29.1323 13.1088 29.0706 13.15 28.9471 13.7265Z" fill="#C5AE5B"/>
<path d="M32.4471 16.3824C32.1794 18.05 30.3677 19.3471 24.8088 21.8382C23.1206 22.5794 21.7 23.2382 21.6588 23.2588C21.6382 23.2794 21.8441 23.8353 22.1324 24.4735C22.4618 25.2147 22.75 25.6265 22.9147 25.5647C23.0588 25.503 24.4177 24.8853 25.9618 24.2265C30.5529 22.2088 31.9324 21.4677 33.0853 20.3559C34.0529 19.45 34.1765 19.2235 34.1765 18.503C34.1765 17.9059 33.9912 17.3912 33.5382 16.7118C33.1882 16.1765 32.8382 15.703 32.7353 15.6412C32.6529 15.6 32.5294 15.9088 32.4471 16.3824Z" fill="#C5AE5B"/>
<path d="M10.1088 19.3265C8.85294 19.6559 7 20.4794 7 20.7059C7 20.8088 7.24706 21.0147 7.57647 21.1794C8.33824 21.5912 9.67647 23.0324 10.4794 24.3294C12.25 27.15 15.6882 29.0647 18.6529 28.8794L19.6618 28.8176L18.3235 27.4794C17.5824 26.7382 16.4706 25.8735 15.8529 25.5647C15.05 25.1529 14.9059 25.0294 15.3382 25.1118C17.3147 25.5235 19.7235 27.2324 20.9176 29.1059C21.3706 29.7853 21.7824 30.3412 21.8853 30.3412C21.9676 30.3618 22.0294 29.7441 22.0294 28.9618C22.0294 24.6794 19.4353 20.9941 15.4618 19.6353C13.9588 19.1 11.5294 18.9765 10.1088 19.3265Z" fill="#C5AE5B"/>
<path d="M34.9177 20.6441C34.8353 20.8706 34.403 21.4059 33.9294 21.8382L33.0647 22.6L34.0736 22.4765C34.6088 22.3941 35.1853 22.3324 35.3294 22.3324C35.5147 22.3324 35.5559 22.1265 35.4736 21.55C35.3088 20.4588 35.0824 20.0882 34.9177 20.6441Z" fill="#C5AE5B"/>
<path d="M33.0441 23.6912C28.7823 24.5147 24.9941 27.8706 23.5941 32.05C23.1 33.5529 22.8118 35.7147 22.9559 36.9088L23.1 38L23.8 36.8059C25.1382 34.5824 27.65 32.4206 29.9353 31.5353C30.9853 31.1235 32.3235 30.7529 32.3235 30.8765C32.3235 30.9176 31.747 31.2059 31.047 31.5559C29.5853 32.2353 27.65 33.7382 26.95 34.7265L26.4765 35.3647L28.4323 35.2412C32.5912 34.9941 35.2676 33.3676 37.7382 29.5794C39.0559 27.5824 40.1265 26.45 41.3412 25.7088C41.7118 25.5029 42 25.2765 42 25.1941C42 24.9059 39.4676 23.9382 37.9647 23.6706C36.0912 23.3 34.9588 23.3 33.0441 23.6912Z" fill="#C5AE5B"/>
<path d="M24.6647 26.5735L23.0794 27.3147L23.0176 28.9412C22.9765 29.8471 22.9765 30.5677 22.9971 30.5677C23.0382 30.5677 23.2853 30.0941 23.5735 29.5382C23.8618 28.9618 24.6029 27.9118 25.2412 27.1706C25.8588 26.4294 26.3324 25.8324 26.3118 25.8324C26.2706 25.853 25.5294 26.1824 24.6647 26.5735Z" fill="#C5AE5B"/>
</svg>
