<svg width="50" height="50" viewBox="0 0 50 50" fill="none" xmlns="http://www.w3.org/2000/svg">
<circle cx="25" cy="25" r="23.5" stroke="#C5AE5B" stroke-width="3"/>
<path d="M12.444 8.0641C11.8276 8.25816 11.3482 8.72047 11.1199 9.33117L11 9.64509L11.0114 25.5806L11.0285 41.516L11.2169 41.8984C11.4281 42.3379 11.7306 42.629 12.1986 42.8516L12.5125 43H24.2415H35.9705L36.2959 42.8459C36.7125 42.6518 37.1063 42.258 37.3004 41.8414L37.4545 41.516L37.4716 36.8644L37.483 32.2127L36.6954 33.4113C36.2616 34.0677 35.7479 34.8553 35.5539 35.1578L35.2 35.7058V38.2228V40.7455H24.2415H13.283V25.5064V10.2672H21.5875H29.892V12.6986C29.892 15.073 29.8977 15.1415 30.0118 15.3298C30.2516 15.7179 30.2287 15.7179 32.8485 15.735L35.2 15.7522L35.2057 18.3605C35.2057 20.3981 35.2228 20.946 35.2742 20.8661C35.3142 20.8091 35.8278 20.0157 36.4157 19.1025L37.4887 17.4416L37.4716 15.7978L37.4545 14.1483L34.3838 11.0777L31.3189 8.01273L21.9984 8.00132C14.4131 7.99561 12.6381 8.00702 12.444 8.0641Z" fill="#C5AE5B"/>
<path d="M16.2224 13.6917C15.977 13.7888 15.7372 14.1655 15.7372 14.4451C15.7372 14.7077 15.9655 15.0501 16.2167 15.1757C16.4621 15.2899 16.5192 15.2899 19.9209 15.2784C23.3112 15.2613 23.3796 15.2613 23.5338 15.1415C23.802 14.9417 23.9105 14.7591 23.9105 14.4794C23.9105 14.1541 23.7735 13.8915 23.5395 13.7488C23.3625 13.6404 23.2313 13.6347 19.8467 13.6404C17.9175 13.6404 16.2852 13.6632 16.2224 13.6917Z" fill="#C5AE5B"/>
<path d="M39.3551 17.2989C39.201 17.4245 36.9123 20.9746 36.9123 21.0944C36.9123 21.2542 37.0207 21.3398 38.4819 22.2873C39.2067 22.7553 39.9601 23.2462 40.1656 23.3831C40.7934 23.7941 40.6793 23.8854 42.1005 21.7223C43.1906 20.0442 43.3162 19.8273 43.2705 19.7018C43.2305 19.5933 42.7511 19.2452 41.4498 18.3948C40.4795 17.7555 39.6291 17.2361 39.5606 17.2361C39.4978 17.2304 39.4065 17.2647 39.3551 17.2989Z" fill="#C5AE5B"/>
<path d="M16.1539 17.9153C15.7715 18.1436 15.6573 18.5374 15.84 18.9598C15.9256 19.1539 16.0169 19.2509 16.1881 19.3365C16.4164 19.4564 16.4678 19.4564 22.3409 19.4564C27.8658 19.4564 28.2767 19.4507 28.4651 19.3536C29.0415 19.0682 29.0815 18.2635 28.545 17.9096C28.3852 17.8069 28.1626 17.8012 22.358 17.8012C16.4906 17.8012 16.3308 17.8069 16.1539 17.9153Z" fill="#C5AE5B"/>
<path d="M16.1311 22.099C16.0227 22.1674 15.8914 22.3158 15.8343 22.4243C15.6174 22.8409 15.8628 23.4402 16.2966 23.5658C16.4393 23.6115 17.5979 23.6229 19.9609 23.6115C23.3112 23.5943 23.4196 23.5886 23.568 23.4802C24.0418 23.1206 24.0303 22.39 23.5395 22.0875C23.3454 21.9677 23.2998 21.9677 19.8353 21.9677H16.3252L16.1311 22.099Z" fill="#C5AE5B"/>
<path d="M36.2958 22.0076C36.2502 22.0247 36.0732 22.2588 35.8963 22.5327C35.7251 22.801 34.0128 25.4264 32.0894 28.3601C30.1716 31.2938 28.5849 33.7195 28.5678 33.7538C28.5507 33.7823 28.5164 34.0905 28.4993 34.4387C28.3053 37.886 28.3053 38.0287 28.4365 38.1771C28.4936 38.2399 28.5735 38.2913 28.6078 38.2913C28.6477 38.2913 29.5381 37.8689 30.5883 37.3552L32.4889 36.4249L33.8073 34.4044C34.5322 33.2914 35.4739 31.8417 35.9077 31.1854C36.3415 30.5233 37.4773 28.7939 38.4305 27.3328C39.8573 25.1525 40.1655 24.6502 40.1541 24.5075C40.137 24.3648 40.0685 24.2906 39.7375 24.068C39.0469 23.6057 38.9555 23.5601 38.7957 23.64C38.6702 23.7028 38.1051 24.5532 34.2754 30.4148C33.893 30.997 33.579 31.4764 33.5733 31.4879C33.5505 31.5164 32.6373 30.9 32.6316 30.8486C32.6316 30.8258 33.7674 29.0622 35.1543 26.9389C37.0664 24.0224 37.6828 23.0407 37.6828 22.9094C37.6828 22.7553 37.62 22.6982 37.112 22.3558C36.5641 21.9848 36.4614 21.9391 36.2958 22.0076Z" fill="#C5AE5B"/>
<path d="M16.2167 26.2141C15.9371 26.3397 15.7715 26.6194 15.7715 26.9675C15.7715 27.3043 15.88 27.5097 16.154 27.6752C16.3309 27.7837 16.4679 27.7894 19.8182 27.7894C23.1057 27.7894 23.3112 27.7837 23.4996 27.681C24.0589 27.3842 24.0418 26.4938 23.4767 26.2255C23.3055 26.1456 22.8889 26.1342 19.8353 26.1342C17.0729 26.1399 16.3594 26.1513 16.2167 26.2141Z" fill="#C5AE5B"/>
<path d="M18.6595 31.5963C18.3913 31.7276 17.9803 32.207 17.752 32.6579C17.3925 33.3714 17.3011 34.2389 17.5009 34.998L17.6036 35.3918L17.4667 35.4432C17.3925 35.4717 17.3126 35.4946 17.2897 35.4946C17.2726 35.4946 17.1584 35.5631 17.0329 35.6487C16.7133 35.8713 16.4792 36.305 16.4792 36.676C16.4792 37.2297 16.8046 37.3495 17.4381 37.0299C17.8148 36.8415 17.986 36.6361 18.0659 36.2594L18.1116 36.0425L18.1858 36.2194C18.2543 36.3906 18.2429 36.4306 17.986 36.9272C17.8376 37.2182 17.5237 37.7376 17.2954 38.0801C16.8731 38.7022 16.8217 38.862 17.0329 38.9419C17.0785 38.9648 17.1584 38.9476 17.2041 38.9077C17.3354 38.7992 17.9917 37.789 18.2714 37.2582L18.534 36.7673L18.8365 36.7959C19.2303 36.8244 19.5271 36.6817 20.1892 36.1281C20.7142 35.6886 20.7999 35.6601 21.2165 35.8085C21.5361 35.9226 21.8215 35.9169 22.4436 35.7856C23.1571 35.6315 23.5623 35.466 23.8077 35.232C24.0246 35.0208 24.0532 34.9295 23.9447 34.8211C23.8306 34.7069 23.705 34.7412 23.5281 34.9238C23.1913 35.2777 21.9014 35.5516 21.285 35.4032C20.6401 35.2491 20.4631 35.3062 19.8239 35.877C19.4358 36.2251 19.0876 36.4192 18.8935 36.3964C18.8079 36.3849 18.7394 36.3507 18.7451 36.3222C18.7566 36.2879 18.865 35.9626 18.9906 35.5916C19.3901 34.433 19.7725 32.4011 19.6755 31.9844C19.5727 31.5392 19.1218 31.368 18.6595 31.5963ZM19.2531 31.9616C19.3844 32.1785 19.0476 34.119 18.6652 35.2948C18.4769 35.8827 18.4826 35.877 18.3627 35.6772C18.3057 35.5802 18.2029 35.4889 18.1401 35.466C18.0089 35.4261 18.0032 35.409 17.8719 34.7583C17.7007 33.8793 17.929 32.9433 18.4541 32.3554C18.8022 31.9673 19.1504 31.7961 19.2531 31.9616ZM17.6778 36.0596C17.6778 36.3107 17.4895 36.5847 17.2155 36.7217C16.953 36.8587 16.8788 36.8358 16.8788 36.6075C16.8788 36.3792 17.1128 36.0767 17.4039 35.934C17.6664 35.8028 17.6778 35.8085 17.6778 36.0596Z" fill="#C5AE5B"/>
</svg>
