<svg width="275" height="215" viewBox="0 0 275 215" fill="none" xmlns="http://www.w3.org/2000/svg">
<path fill-rule="evenodd" clip-rule="evenodd" d="M130.498 0.731612C130.342 1.1384 130.288 2.77959 130.379 4.3781C130.533 7.07002 130.652 7.29746 131.977 7.45034C133.676 7.64698 133.925 8.73012 133.521 14.1577C133.251 17.7794 133.244 17.7939 130.804 19.3352C129.231 20.3287 127.878 21.7819 127.018 23.402L125.678 25.9227H90.3956C55.3597 25.9227 55.1087 25.9151 54.5179 24.813C52.7288 21.4745 46.2524 20.4464 43.1946 23.0157C39.9545 25.7384 39.111 29.1764 40.8082 32.7473C41.2935 33.7683 42.1688 34.9384 42.7536 35.3474C43.4364 35.8244 43.7026 36.4467 43.4975 37.0842C43.3217 37.6309 36.3713 53.636 28.0517 72.6518L12.9256 107.226L8.43735 107.496C3.38864 107.8 1.93441 108.493 0.643558 111.209C-1.08443 114.845 0.78855 118.797 4.8115 120L6.82081 120.601L7.45704 124.948C8.78901 134.044 12.5166 141.292 19.3187 148.013C24.5589 153.19 28.3298 155.614 34.5741 157.821C59.5709 166.653 85.9798 150.081 89.4196 123.403C89.7566 120.79 89.8675 120.64 92.017 119.892C94.5067 119.026 96.7324 116.299 96.7324 114.115C96.7324 112.066 95.2533 109.435 93.5296 108.418C92.3913 107.746 90.7353 107.496 87.4314 107.496H82.8961L67.3967 72.0343L51.8973 36.5726L53.6215 34.496L55.3451 32.4194L90.4643 32.5474L125.583 32.6754L126.605 34.5662C127.637 36.477 130.3 39.204 132.192 40.2888C133.199 40.8652 133.169 41.4832 130.951 66.4895C129.701 80.5752 126.717 114.343 124.32 141.53C121.923 168.717 119.856 191.446 119.728 192.041C119.596 192.651 118.385 193.704 116.948 194.46C111.91 197.11 108.313 201.185 106.804 205.951C106.563 206.714 105.874 206.897 103.241 206.897C100.7 206.897 99.7393 207.135 98.8965 207.977C97.2853 209.586 97.4536 212.477 99.24 213.88C100.65 214.988 101.052 215 137.676 215H174.687L176.015 213.674C177.719 211.973 177.751 209.629 176.091 208.071C175.084 207.127 174.183 206.897 171.492 206.897C168.846 206.897 168.146 206.723 168.146 206.069C168.146 204.35 165.401 199.931 163.05 197.865C161.707 196.684 159.383 195.137 157.885 194.427C156.153 193.606 155.162 192.794 155.162 192.196C155.162 191.679 153.092 167.973 150.562 139.517C148.032 111.06 145.117 78.1755 144.085 66.4392C143.053 54.7029 142.097 44.1281 141.962 42.9396C141.727 40.8733 141.82 40.7155 144.093 39.325C145.652 38.371 146.988 36.9334 147.976 35.1458L149.481 32.421L184.376 32.4226L219.271 32.4248L220.98 34.4808L222.689 36.5369L207.191 72.0165L191.692 107.496H187.466C182.614 107.496 180.482 108.332 179.246 110.72C177.275 114.525 179.132 118.74 183.334 119.997C185.033 120.505 185.458 120.89 185.458 121.92C185.458 124.358 187.183 131.54 188.546 134.776C198.307 157.953 226.162 167.143 247.945 154.374C252.794 151.531 259.313 145.021 262.16 140.179C264.645 135.953 267.014 129.384 267.464 125.474C267.992 120.89 268.136 120.568 269.83 120.197C275.13 119.035 276.776 112.818 272.778 109.067C271.601 107.962 270.705 107.738 266.527 107.502L261.651 107.226L246.558 72.7047C238.257 53.7181 231.332 37.7665 231.17 37.257C230.988 36.6833 231.492 35.6709 232.495 34.5991C235.557 31.3265 235.203 26.3521 231.689 23.2718C230.079 21.8602 229.346 21.6014 226.962 21.603C223.893 21.6052 221.124 22.9007 220.098 24.813C219.508 25.9146 219.256 25.9227 184.344 25.9227H149.183L148.68 24.6002C147.937 22.65 144.568 19.1245 142.712 18.3574L141.095 17.6881V12.6559V7.62375L142.854 7.45412C144.598 7.28611 144.613 7.26018 144.777 4.09395C144.889 1.90659 144.719 0.761864 144.236 0.455558C143.847 0.209758 140.661 0.00501267 137.156 0.000150682C132.254 -0.00579175 130.717 0.162759 130.498 0.731612ZM142.177 3.77359C142.177 4.76922 141.816 4.85404 137.579 4.85404C133.341 4.85404 132.98 4.76922 132.98 3.77359C132.98 2.77797 133.341 2.69315 137.579 2.69315C141.816 2.69315 142.177 2.77797 142.177 3.77359ZM138.39 12.4171C138.39 16.3786 138.24 17.2791 137.579 17.2791C136.918 17.2791 136.767 16.3786 136.767 12.4171C136.767 8.45569 136.918 7.55514 137.579 7.55514C138.24 7.55514 138.39 8.45569 138.39 12.4171ZM141.528 20.7425C146.413 23.2907 148.26 28.4801 145.966 33.2124C142.555 40.2482 132.723 40.3941 129.181 33.462C126.042 27.318 130.544 19.9991 137.47 19.9851C138.898 19.9824 140.724 20.3233 141.528 20.7425ZM49.6348 24.302C49.8674 24.302 50.7 24.9427 51.4845 25.726C54.2247 28.4622 52.8175 33.4857 49.0813 34.3053C45.7887 35.0275 42.6314 32.4118 42.6314 28.9619C42.6314 26.3721 46.1328 23.4717 48.4916 24.1075C48.8876 24.2145 49.4021 24.302 49.6348 24.302ZM230.638 26.028C233.834 29.8198 230.409 35.3744 225.535 34.3053C223.328 33.8212 221.706 31.663 221.706 29.2115C221.706 26.6898 222.92 24.9789 225.111 24.4117C227.601 23.7677 229.104 24.2069 230.638 26.028ZM129.966 27.7189C128.983 30.2779 132.638 35.6736 135.911 36.4937C138.09 37.0399 139.743 36.5666 139.743 35.397C139.743 34.6224 139.211 34.2113 137.77 33.8709C135.349 33.2988 133.518 31.441 133.034 29.064C132.77 27.7686 132.338 27.2251 131.47 27.1003C130.786 27.0015 130.139 27.2673 129.966 27.7189ZM125.406 29.164C125.406 29.5184 113.413 29.7042 90.5108 29.7042C67.6082 29.7042 55.6156 29.5184 55.6156 29.164C55.6156 28.8096 67.6082 28.6238 90.5108 28.6238C113.413 28.6238 125.406 28.8096 125.406 29.164ZM218.46 29.164C218.46 29.5184 206.648 29.7042 184.106 29.7042C161.563 29.7042 149.751 29.5184 149.751 29.164C149.751 28.8096 161.563 28.6238 184.106 28.6238C206.648 28.6238 218.46 28.8096 218.46 29.164ZM64.2718 71.3763C72.4546 90.1247 79.3243 105.921 79.538 106.48C79.9151 107.467 79.0284 107.496 48.0242 107.496C28.9568 107.496 16.1219 107.296 16.1219 106.999C16.1219 106.725 22.5929 91.714 30.5025 73.6404C38.4115 55.5662 45.2158 39.9884 45.6232 39.023C46.2102 37.6303 46.6771 37.2695 47.8786 37.2781C49.3637 37.2889 49.6937 37.9755 64.2718 71.3763ZM243.394 72.0667C251.699 91.0576 258.495 106.798 258.495 107.046C258.495 107.293 244.111 107.496 226.53 107.496C208.719 107.496 194.645 107.289 194.746 107.028C194.845 106.771 201.743 90.9604 210.074 71.8949L225.222 37.2306L226.758 37.384C228.245 37.5325 228.77 38.627 243.394 72.0667ZM139.168 42.8046C139.309 43.4734 140.282 53.6225 141.33 65.3588C149.79 160.082 152.511 191.356 152.31 191.557C152.182 191.685 150.276 191.394 148.074 190.911C142.74 189.74 132.338 189.722 127.066 190.875C124.854 191.358 122.937 191.647 122.807 191.516C122.565 191.275 123.693 178.196 131.362 92.3698C133.738 65.7775 135.682 43.4734 135.684 42.8046C135.685 41.8165 135.986 41.5891 137.298 41.5891C138.534 41.5891 138.971 41.8732 139.168 42.8046ZM92.9058 111.621C94.3785 113.49 94.3217 114.814 92.6992 116.434L91.3715 117.76H48.312H5.25242L3.92479 116.434C2.2839 114.796 2.23197 113.086 3.77276 111.447L4.94946 110.197H48.3672H91.7849L92.9058 111.621ZM271.47 111.66C272.275 112.681 272.521 113.535 272.285 114.496C271.509 117.664 274.183 117.477 227.182 117.634C184.096 117.779 184.002 117.776 182.568 116.65C180.811 115.271 180.651 112.837 182.212 111.278C183.276 110.215 184.015 110.197 226.806 110.197H270.318L271.47 111.66ZM6.56708 114.28C6.38746 114.748 6.46916 115.361 6.74994 115.641C7.05886 115.949 17.9932 116.095 34.5481 116.009C61.4299 115.872 61.8372 115.853 61.8372 114.789C61.8372 113.725 61.4299 113.706 34.3658 113.569C9.77149 113.443 6.86031 113.518 6.56708 114.28ZM185.014 114.649L185.188 115.869H212.779C240.01 115.869 240.371 115.855 240.371 114.789C240.371 113.724 239.963 113.706 212.605 113.569L184.841 113.429L185.014 114.649ZM134.24 117.651C133.67 118.002 128.111 175.657 128.111 181.21C128.111 182.761 128.316 183.127 129.183 183.127C130.388 183.127 130.6 182.453 131.048 177.185C131.212 175.253 132.447 161.287 133.793 146.148C135.764 123.982 136.107 118.49 135.557 117.941C135.181 117.566 134.589 117.435 134.24 117.651ZM86.7324 123.548C86.1892 127.891 84.5142 133.059 82.2171 137.478C79.6614 142.395 72.4102 149.797 67.5179 152.483C57.5037 157.98 46.3405 158.971 35.5398 155.322C29.863 153.404 26.1127 150.965 20.9801 145.852C14.5432 139.439 11.1916 132.607 9.91648 123.297L9.52803 120.461H48.3233H87.1187L86.7324 123.548ZM265.239 123.027C264.278 129.961 262.415 134.968 258.736 140.492C250.795 152.421 236.297 159.058 222.259 157.193C212.661 155.917 206.666 152.973 199.733 146.128C195.536 141.985 194.426 140.495 192.282 136.128C189.923 131.321 188.194 125.358 188.172 121.947L188.163 120.461H226.878H265.594L265.239 123.027ZM15.7735 131.003C15.3504 132.105 17.7644 136.747 21.0115 141.077C23.782 144.771 30.2282 149.791 31.5509 149.284C33.2351 148.639 32.825 147.403 30.3629 145.698C28.9822 144.743 27.1677 143.399 26.3313 142.711C24.8976 141.533 20.7513 135.638 18.7171 131.885C17.7379 130.079 16.295 129.647 15.7735 131.003ZM194.272 131.094C193.817 132.278 196.675 137.592 200.065 141.866C202.81 145.327 208.847 149.759 210.14 149.263C211.673 148.676 210.85 147.022 208.172 145.306C204.667 143.06 201.627 139.595 198.577 134.372C196.164 130.239 194.954 129.319 194.272 131.094ZM148.94 193.942C157.65 196.181 164.001 200.664 165.187 205.411L165.558 206.897H137.637C106.992 206.897 108.744 207.101 110.487 203.735C112.417 200.007 118.274 196.161 124.969 194.224C132.087 192.164 141.591 192.053 148.94 193.942ZM174.367 210.948C174.367 212.018 174.007 212.029 137.579 212.029H100.79L100.617 210.81L100.443 209.59L137.406 209.729C173.961 209.866 174.367 209.88 174.367 210.948Z" fill="#C5AE5B"/>
</svg>
