<svg width="50" height="50" viewBox="0 0 50 50" fill="none" xmlns="http://www.w3.org/2000/svg">
<circle cx="25" cy="25" r="23.5" stroke="#C5AE5B" stroke-width="3"/>
<path d="M16.4476 10.9929C8.30686 16.7691 8.01805 17.0037 8 17.5633V18.159H24.9674H41.9348V17.5633C41.9168 17.0218 41.7182 16.8413 37.6388 13.9713C35.2923 12.3106 31.4656 9.60305 29.1551 7.96046C26.8447 6.31787 24.9313 4.98214 24.9133 5.00019C24.8952 5.00019 21.0866 7.70776 16.4476 10.9929ZM28.1263 7.99656C29.7508 9.16984 33.2165 11.6247 35.8157 13.4658C38.415 15.307 40.7074 16.9496 40.924 17.112C41.285 17.4008 40.4367 17.4189 25.0216 17.4369C16.0505 17.4369 8.72202 17.4008 8.72202 17.3647C8.72202 17.3286 11.1408 15.5778 14.1011 13.4839C17.0433 11.39 20.6353 8.84493 22.0794 7.79801C23.5234 6.75108 24.805 5.90271 24.9313 5.90271C25.0577 5.88466 26.5017 6.84133 28.1263 7.99656Z" fill="#C5AE5B"/>
<path d="M21.2671 8.80883C19.2815 10.2348 15.87 12.6536 13.7039 14.1879L9.75089 16.9857L17.3682 17.0398C21.5378 17.0579 28.397 17.0579 32.5667 17.0398L40.1839 16.9857L38.3969 15.7222C37.4042 15.0362 34.0468 12.6536 30.9421 10.4334C27.8194 8.21317 25.166 6.35397 25.0577 6.31787C24.9674 6.28177 23.2526 7.4009 21.2671 8.80883ZM30.2923 11.8774L35.4547 15.5416L30.202 15.5958C27.332 15.6139 22.6028 15.6139 19.7147 15.5958L14.4801 15.5416L19.5884 11.8955C22.4043 9.89186 24.805 8.24927 24.9133 8.24927C25.0396 8.23122 27.4584 9.87381 30.2923 11.8774Z" fill="#C5AE5B"/>
<path d="M24.7869 9.27815C24.7869 9.3684 24.5703 9.5128 24.2995 9.58501C22.6209 10.0002 22.5306 12.0218 24.1551 12.5633C24.6786 12.7438 24.7869 12.8521 24.7869 13.3034C24.7869 13.863 24.4801 14.0074 24.3176 13.5561C24.2454 13.3756 23.9566 13.2853 23.5053 13.2853C22.9277 13.2853 22.8014 13.3575 22.8014 13.6283C22.8014 14.0074 23.758 14.9099 24.1732 14.9099C24.3176 14.9099 24.6064 15.0182 24.805 15.1265C25.1118 15.307 25.2201 15.307 25.2743 15.1265C25.3284 15.0182 25.527 14.9099 25.7436 14.9099C25.9421 14.9099 26.3573 14.6933 26.6281 14.4225C27.6028 13.502 27.1696 12.0399 25.8519 11.7511C25.4187 11.6428 25.3284 11.5345 25.3284 11.0651C25.3284 10.6319 25.3826 10.5597 25.545 10.7222C25.7977 10.9749 26.953 11.011 26.953 10.7763C26.953 10.307 26.6461 9.96406 25.888 9.62111C25.4367 9.4045 25.0035 9.20595 24.9313 9.16984C24.8411 9.13374 24.7869 9.1879 24.7869 9.27815ZM24.7869 10.9388C24.7869 11.1373 24.7147 11.2998 24.6245 11.2998C24.3718 11.2998 24.2093 10.9749 24.3356 10.7583C24.5162 10.4514 24.7869 10.5597 24.7869 10.9388ZM25.6353 13.7727C25.3465 14.0615 25.3284 14.0435 25.3284 13.4659C25.3284 12.8882 25.3465 12.8702 25.6353 13.159C25.9241 13.4478 25.9241 13.4839 25.6353 13.7727Z" fill="#C5AE5B"/>
<path d="M10.4188 18.7727C10.3646 18.9171 10.3466 19.1878 10.3827 19.3683C10.4368 19.6752 11.1047 19.6932 24.9674 19.6932H39.498V19.1517V18.6102L25.0035 18.5561C12.4946 18.52 10.509 18.5561 10.4188 18.7727Z" fill="#C5AE5B"/>
<path d="M10.3466 20.686C10.3466 20.8846 10.4549 21.047 10.5812 21.047C10.7256 21.047 11.0144 21.2636 11.2671 21.5163C11.7003 21.9857 11.7003 21.9857 11.7545 26.7871C11.8267 32.1842 11.7364 32.7979 10.87 33.2491C10.5271 33.4116 10.3466 33.6282 10.3827 33.8268C10.4368 34.0975 10.8159 34.1336 13.8303 34.1878L17.2057 34.2239V33.7726C17.2057 33.5018 17.0974 33.3213 16.953 33.3213C16.8086 33.3213 16.5198 33.1047 16.3213 32.852C15.9602 32.3827 15.9422 32.1661 15.9422 27.1481V21.9315L16.3935 21.4983C16.6281 21.2456 16.9169 21.047 17.0252 21.047C17.1155 21.047 17.2057 20.8846 17.2057 20.686C17.2057 20.3431 17.0794 20.325 13.7761 20.325C10.4729 20.325 10.3466 20.3431 10.3466 20.686ZM12.6029 27.1842C12.6029 31.2636 12.5487 32.491 12.3863 32.5452C12.2058 32.6174 12.1516 31.4621 12.1516 27.1842C12.1516 22.9062 12.2058 21.751 12.3863 21.8052C12.5487 21.8774 12.6029 23.1048 12.6029 27.1842ZM14.2816 27.2022C14.3177 32.0217 14.2996 32.5632 14.0288 32.6715C13.2888 32.9603 13.2346 32.6174 13.2346 27.3647C13.2346 24.603 13.2888 22.2023 13.3429 22.0398C13.4151 21.8774 13.6137 21.7691 13.8483 21.8052C14.2274 21.8593 14.2274 21.9135 14.2816 27.2022ZM15.4007 27.1842C15.4007 32.0939 15.3104 33.195 14.9675 32.3105C14.8231 31.9495 14.8231 22.4189 14.9675 22.0579C15.3104 21.1734 15.4007 22.2745 15.4007 27.1842Z" fill="#C5AE5B"/>
<path d="M17.5667 20.6319C17.5848 20.8124 17.8375 21.1192 18.1624 21.3178L18.74 21.6788L18.7942 27.112C18.8303 32.3647 18.8303 32.5452 18.4693 32.9242C18.2527 33.1408 17.9819 33.3213 17.8375 33.3213C17.675 33.3213 17.5667 33.5018 17.5667 33.7726V34.2239H20.9963H24.4259V33.7726C24.4259 33.5199 24.3176 33.3213 24.1913 33.3213C24.0469 33.3213 23.7761 33.1408 23.5595 32.9062C23.1624 32.491 23.1624 32.3827 23.1624 27.2022V21.9315L23.6136 21.4983C23.8483 21.2456 24.1371 21.047 24.2454 21.047C24.3357 21.047 24.4259 20.8846 24.4259 20.686C24.4259 20.3431 24.2996 20.325 20.9963 20.325C17.8555 20.325 17.5667 20.3431 17.5667 20.6319ZM19.823 27.1842C19.823 31.2636 19.7689 32.491 19.6064 32.5452C19.4259 32.6174 19.3718 31.4621 19.3718 27.1842C19.3718 22.9062 19.4259 21.751 19.6064 21.8052C19.7689 21.8774 19.823 23.1048 19.823 27.1842ZM21.5017 27.112C21.5378 31.6246 21.5017 32.4008 21.2671 32.5993C21.0505 32.7798 20.9422 32.7798 20.7256 32.5993C20.4909 32.4008 20.4548 31.5704 20.4548 27.1842C20.4548 24.3503 20.509 21.9496 20.5812 21.8774C20.6534 21.8052 20.87 21.7691 21.0866 21.8052C21.4476 21.8593 21.4476 21.9857 21.5017 27.112ZM22.6209 27.2925C22.6209 32.1842 22.5848 32.7979 22.3501 32.5993C22.1155 32.4008 22.0794 31.5704 22.0794 27.1842C22.0794 24.3503 22.1335 21.9496 22.2057 21.8954C22.2599 21.8232 22.3862 21.7691 22.4765 21.7691C22.5487 21.7691 22.6209 24.26 22.6209 27.2925Z" fill="#C5AE5B"/>
<path d="M25.1479 20.686C25.1479 20.8846 25.2382 21.047 25.3284 21.047C25.4367 21.047 25.7255 21.2456 25.9602 21.4983L26.4115 21.9315V27.2383V32.5452L25.9963 32.9242C25.7616 33.1408 25.4728 33.3213 25.3645 33.3213C25.2382 33.3213 25.1479 33.5199 25.1479 33.7726V34.2239H28.5775H32.0071V33.7726C32.0071 33.4838 31.8988 33.3213 31.7363 33.3213C31.5919 33.3213 31.3031 33.1589 31.1046 32.9603C30.7616 32.6174 30.7436 32.3647 30.7436 27.2203V21.8232L31.1587 21.4441C31.3934 21.2275 31.6822 21.047 31.7905 21.047C31.9169 21.047 32.0071 20.8846 32.0071 20.686C32.0071 20.3431 31.8808 20.325 28.5775 20.325C25.2743 20.325 25.1479 20.3431 25.1479 20.686ZM27.3862 22.0579C27.4403 22.2203 27.4945 24.603 27.4945 27.3647C27.4945 31.5885 27.4584 32.4008 27.2237 32.5993C26.9891 32.7979 26.953 32.1842 26.953 27.2925C26.953 22.2745 27.0432 21.1734 27.3862 22.0579ZM29.0829 27.112C29.119 31.6246 29.0829 32.4008 28.8483 32.5993C28.6317 32.7798 28.5234 32.7798 28.3068 32.5993C28.0721 32.4008 28.036 31.5704 28.036 27.1842C28.036 24.3503 28.0902 21.9496 28.1624 21.8774C28.2346 21.8052 28.4512 21.7691 28.6678 21.8052C29.0288 21.8593 29.0288 21.9857 29.0829 27.112ZM30.2021 27.2925C30.2021 32.1842 30.166 32.7979 29.9313 32.5993C29.6966 32.4008 29.6605 31.5704 29.6605 27.1842C29.6605 24.3503 29.7147 21.9496 29.7869 21.8954C29.841 21.8232 29.9674 21.7691 30.0577 21.7691C30.1299 21.7691 30.2021 24.26 30.2021 27.2925Z" fill="#C5AE5B"/>
<path d="M32.7291 20.686C32.7291 20.8846 32.8194 21.047 32.9096 21.047C33.0179 21.047 33.3067 21.2456 33.5414 21.4983L33.9926 21.9315V27.1481C33.9926 32.1661 33.9746 32.3827 33.6136 32.852C33.415 33.1047 33.1262 33.3213 32.9818 33.3213C32.8374 33.3213 32.7291 33.5018 32.7291 33.7726V34.2239L36.1045 34.1878C39.119 34.1336 39.498 34.0975 39.5522 33.8268C39.5883 33.6282 39.4078 33.4116 39.0648 33.2491C38.1984 32.7979 38.1081 32.1842 38.1803 26.7871C38.2345 21.9857 38.2345 21.9857 38.6677 21.5163C38.9204 21.2636 39.2092 21.047 39.3536 21.047C39.48 21.047 39.5883 20.8846 39.5883 20.686C39.5883 20.3431 39.4619 20.325 36.1587 20.325C32.8555 20.325 32.7291 20.3431 32.7291 20.686ZM34.9674 22.0579C35.1118 22.4189 35.1118 31.9495 34.9674 32.3105C34.6244 33.195 34.5342 32.0939 34.5342 27.1842C34.5342 22.2745 34.6244 21.1734 34.9674 22.0579ZM36.5919 22.0579C36.6461 22.2203 36.7002 24.603 36.7002 27.3647C36.7002 32.6174 36.6461 32.9603 35.906 32.6715C35.6533 32.5813 35.6172 31.9856 35.6172 27.2925C35.6172 24.3864 35.6713 21.9496 35.7435 21.8954C35.9601 21.6607 36.4836 21.7691 36.5919 22.0579ZM37.7832 27.2022C37.7832 31.4621 37.7291 32.6174 37.5666 32.5632C37.3861 32.491 37.3139 31.2636 37.2778 27.3466C37.2598 24.5308 37.2778 22.1301 37.332 22.0037C37.3681 21.8774 37.4944 21.7691 37.6027 21.7691C37.7291 21.7691 37.7832 23.5921 37.7832 27.2022Z" fill="#C5AE5B"/>
<path d="M10.3466 35.3971V36.0289H24.9674H39.5883V35.3971V34.7654H24.9674H10.3466V35.3971ZM39.2273 35.1264C39.2273 35.2527 34.3537 35.3069 24.9674 35.3069C15.5812 35.3069 10.7076 35.2527 10.7076 35.1264C10.7076 35 15.5812 34.9459 24.9674 34.9459C34.3537 34.9459 39.2273 35 39.2273 35.1264Z" fill="#C5AE5B"/>
<path d="M9.44403 37.3827V38.0145H24.9674H40.4908V37.3827V36.7509H24.9674H9.44403V37.3827ZM40.3103 37.1119C40.3103 37.2383 35.0757 37.2924 24.9674 37.2924C14.8592 37.2924 9.62454 37.2383 9.62454 37.1119C9.62454 36.9856 14.8592 36.9314 24.9674 36.9314C35.0757 36.9314 40.3103 36.9856 40.3103 37.1119Z" fill="#C5AE5B"/>
<path d="M8.36101 39.278V40H24.9855H41.5919L41.5377 39.3141L41.4836 38.6462L24.9313 38.5921L8.36101 38.556V39.278ZM41.2128 39.0975C41.2128 39.2238 35.6713 39.278 24.9674 39.278C14.2635 39.278 8.72202 39.2238 8.72202 39.0975C8.72202 38.9711 14.2635 38.917 24.9674 38.917C35.6713 38.917 41.2128 38.9711 41.2128 39.0975Z" fill="#C5AE5B"/>
</svg>
