<svg width="50" height="50" viewBox="0 0 50 50" fill="none" xmlns="http://www.w3.org/2000/svg">
<circle cx="25" cy="25" r="23.5" stroke="#C5AE5B" stroke-width="3"/>
<path d="M23.3633 8.56927C23.1667 8.87512 23.0138 9.50868 23.0138 10.0112V10.885H18.4041C15.8699 10.885 13.6415 10.9724 13.423 11.1035C13.2045 11.2127 12.8987 11.6278 12.7457 12.0211C12.5928 12.4143 12.2433 13.2882 11.9811 13.9436C11.6971 14.599 11.2602 15.6914 11.0198 16.3468C10.7577 17.0022 10.4518 17.745 10.3426 17.9853C9.66533 19.5364 8.79145 22.2673 8.85699 22.595C8.90069 22.8135 9.16285 23.1193 9.46871 23.2722C10.2989 23.6873 10.8014 23.2067 11.566 21.2405C11.9593 20.3011 12.3525 19.2743 12.4836 18.9684C12.7457 18.313 13.5978 16.1938 13.8162 15.5821C13.9473 15.2544 14.2532 15.8443 15.1271 18.0945C15.7606 19.7112 16.3942 21.2842 16.5253 21.59C16.7656 22.2017 16.8311 22.3547 16.8748 22.6824C16.8748 22.7916 17.137 23.0538 17.4428 23.2504C17.9453 23.5781 18.0327 23.5781 18.557 23.2285C19.0595 22.9008 19.125 22.7479 19.0158 22.027C18.9503 21.5463 18.7536 20.8691 18.557 20.4758C18.3604 20.0826 18.2075 19.6675 18.2075 19.5583C18.2075 19.449 18.0109 18.9465 17.7924 18.4441C17.5739 17.9416 17.2244 17.1551 17.0496 16.6745C16.8748 16.1938 16.5253 15.2981 16.2631 14.6646C16.0009 14.0528 15.8043 13.4411 15.8043 13.31C15.8043 13.1571 17.0059 13.0697 19.4091 13.0697H23.0138V26.5056V39.9414H18.7973C14.6683 39.9414 14.559 39.9633 14.1003 40.4439C13.5322 41.0338 13.4885 41.8421 13.9692 42.5194L14.2969 43H24.4557C34.3086 43 34.6145 42.9782 35.0296 42.5631C35.6195 41.9732 35.5976 41.0119 34.9641 40.4221C34.4834 39.9633 34.265 39.9414 30.267 39.9414H26.0724V26.5056V13.0697H29.6771C32.0803 13.0697 33.2818 13.1571 33.2818 13.31C33.2818 13.5285 32.7575 14.9049 32.0584 16.4997C31.8836 16.8711 31.7526 17.2862 31.7526 17.4173C31.7526 17.5483 31.5559 18.029 31.3156 18.4659C31.0753 18.9247 30.8787 19.4053 30.8787 19.5364C30.8787 19.6675 30.7258 20.0826 30.5291 20.4758C30.3325 20.8691 30.1359 21.5463 30.0703 22.027C29.9611 22.7479 30.0267 22.9008 30.5291 23.2285C31.0535 23.5781 31.1408 23.5781 31.6433 23.2504C31.9492 23.0538 32.2113 22.7916 32.2113 22.6824C32.255 22.3547 32.3206 22.2017 32.6046 21.4808C32.7575 21.1094 33.2818 19.7986 33.7625 18.5533C34.2213 17.2862 34.7456 16.0191 34.9204 15.7132L35.2044 15.1452L35.3791 15.8006C35.5321 16.4123 36.0782 17.7887 36.5807 18.8592C36.69 19.0995 37.0614 20.0826 37.4109 21.0439C38.1537 23.0975 38.831 23.7747 39.5956 23.2941C40.4258 22.7916 40.3602 22.2236 39.0713 18.9465C38.394 17.2206 37.5857 15.167 37.2798 14.3805C36.3186 11.9118 35.9253 11.169 35.5539 11.0161C35.3791 10.9506 33.1508 10.885 30.6384 10.885H26.0724V10.0112C26.0724 8.74404 25.6136 8.13233 24.5649 8.08863C23.8877 8.04494 23.6692 8.13233 23.3633 8.56927Z" fill="#C5AE5B"/>
<path d="M7.13108 26.156C7.45879 27.7945 9.18469 29.7389 11.1072 30.6565C12.3743 31.2682 15.5421 31.2464 16.8967 30.6346C18.2075 30.0229 19.8678 28.3844 20.3922 27.1391C21.1568 25.3914 21.6374 25.5225 13.9255 25.5225H7L7.13108 26.156Z" fill="#C5AE5B"/>
<path d="M28.2571 26.0468C28.2571 26.3527 28.3663 26.6585 28.4755 26.7241C28.6066 26.7896 28.694 27.0299 28.694 27.2484C28.694 27.8601 30.9442 30.0666 32.124 30.6128C33.697 31.3119 36.7118 31.2901 38.1756 30.5473C39.5738 29.8263 40.7754 28.6466 41.4745 27.2921C42.4357 25.3914 42.9164 25.5225 35.1389 25.5225H28.2571V26.0468Z" fill="#C5AE5B"/>
</svg>
