<svg width="50" height="50" viewBox="0 0 50 50" fill="none" xmlns="http://www.w3.org/2000/svg">
<circle cx="25" cy="25" r="23.5" stroke="#C5AE5B" stroke-width="3"/>
<mask id="path-2-inside-1_15_274" fill="white">
<path d="M22.8672 5.09596C19.5965 5.65314 16.7455 7.73713 15.2476 10.6822C14.7989 11.565 14.4661 12.4912 14.2924 13.3451C14.097 14.293 14.0464 15.5666 14.0392 18.9965V22.2672L13.6556 22.2961C13.1925 22.3323 12.4545 22.6724 12.0348 23.0342C11.6295 23.3888 11.3112 23.8808 11.1447 24.438C11.0072 24.8867 11 25.1327 11 32.1589C11 39.1852 11.0072 39.4312 11.1447 39.8798C11.4125 40.7482 11.9479 41.3632 12.809 41.7757L13.2794 42H24.6038H35.9283L36.3987 41.7757C37.2598 41.3632 37.7952 40.7482 38.063 39.8798C38.2005 39.4312 38.2077 39.1852 38.2077 32.1589C38.2077 25.1327 38.2005 24.8867 38.063 24.438C37.8965 23.8808 37.5781 23.3888 37.1729 23.0342C36.7532 22.6724 36.0152 22.3323 35.552 22.2961L35.1685 22.2672V18.9965C35.1613 15.5666 35.1106 14.293 34.9153 13.3451C34.7416 12.4912 34.4087 11.565 33.9601 10.6822C32.4478 7.70819 29.5895 5.63867 26.2754 5.08872C25.5156 4.96571 23.6197 4.97295 22.8672 5.09596ZM26.1451 6.39846C29.0323 6.90498 31.5577 8.7936 32.853 11.4275C33.0194 11.7532 33.2437 12.3031 33.3595 12.6504C33.7864 13.9095 33.8009 14.1555 33.8443 18.3525L33.8805 22.2093H32.9688H32.057V18.6419C32.057 14.7778 32.0136 14.1772 31.659 13.1208C30.8196 10.6243 28.7429 8.76466 26.1379 8.20024C25.7689 8.12064 25.2551 8.07723 24.6038 8.07723C23.9526 8.07723 23.4388 8.12064 23.0698 8.20024C20.4648 8.76466 18.388 10.6243 17.5487 13.1208C17.1941 14.1772 17.1507 14.7778 17.1507 18.6419V22.2093H16.2389H15.3272L15.3634 18.3525C15.3923 15.1975 15.4212 14.3943 15.5153 13.8878C15.7541 12.6649 16.2896 11.3696 16.9842 10.3132C17.4329 9.64022 18.417 8.61993 19.1261 8.0917C20.1826 7.30297 21.7094 6.64448 23.0336 6.39846C23.7717 6.26821 25.3709 6.26821 26.1451 6.39846ZM25.3202 9.40143C27.4259 9.66917 29.2349 10.9717 30.1394 12.882C30.2769 13.1787 30.4651 13.678 30.5519 13.9963C30.7039 14.5535 30.7111 14.7127 30.74 18.3887L30.7618 22.2093H24.6038H18.4459L18.4676 18.3887C18.4966 14.7127 18.5038 14.5535 18.6558 13.9963C19.4083 11.2828 21.7022 9.45208 24.4953 9.33631C24.6183 9.33631 24.9874 9.36525 25.3202 9.40143ZM35.3494 23.5914C36.0224 23.7144 36.4783 24.069 36.7532 24.6696C36.898 24.988 36.9052 25.1037 36.9052 32.1589C36.9052 39.2141 36.898 39.3299 36.7532 39.6483C36.5579 40.0824 36.2901 40.3574 35.856 40.56L35.4942 40.7337H24.6038H13.7135L13.3517 40.56C12.9176 40.3574 12.6498 40.0824 12.4545 39.6483C12.3097 39.3299 12.3025 39.2141 12.3025 32.1589C12.3025 25.1037 12.3097 24.988 12.4545 24.6696C12.715 24.0907 13.1925 23.7144 13.8004 23.5914C14.3141 23.4973 34.814 23.4901 35.3494 23.5914Z"/>
</mask>
<path d="M22.8672 5.09596L22.1954 1.15277L22.2087 1.15052L22.2219 1.14835L22.8672 5.09596ZM15.2476 10.6822L11.6816 8.87002L11.6822 8.86888L15.2476 10.6822ZM14.2924 13.3451L18.2122 14.1423L18.2101 14.1526L14.2924 13.3451ZM14.0392 18.9965L10.0391 18.9965L10.0392 18.988L14.0392 18.9965ZM14.0392 22.2672H18.0392V25.9767L14.3402 26.2558L14.0392 22.2672ZM13.6556 22.2961L13.3441 18.3083L13.3546 18.3075L13.6556 22.2961ZM12.0348 23.0342L9.40074 20.0239L9.41184 20.0142L9.423 20.0046L12.0348 23.0342ZM11.1447 24.438L14.9774 25.5828L14.9733 25.5964L14.9692 25.61L11.1447 24.438ZM11.1447 39.8798L7.32229 41.0584L7.32027 41.0518L11.1447 39.8798ZM12.809 41.7757L11.0871 45.3861L11.0811 45.3832L12.809 41.7757ZM13.2794 42V46H12.3743L11.5575 45.6104L13.2794 42ZM35.9283 42L37.6502 45.6104L36.8333 46H35.9283V42ZM36.3987 41.7757L38.1266 45.3832L38.1206 45.3861L36.3987 41.7757ZM38.063 39.8798L41.8874 41.0518L41.8854 41.0584L38.063 39.8798ZM38.063 24.438L34.2385 25.61L34.2344 25.5964L34.2303 25.5828L38.063 24.438ZM37.1729 23.0342L39.7847 20.0046L39.7958 20.0142L39.8069 20.0239L37.1729 23.0342ZM35.552 22.2961L35.8531 18.3075L35.8636 18.3083L35.552 22.2961ZM35.1685 22.2672L34.8675 26.2558L31.1685 25.9767V22.2672H35.1685ZM35.1685 18.9965L39.1685 18.988V18.9965H35.1685ZM34.9153 13.3451L30.9976 14.1526L30.9955 14.1423L34.9153 13.3451ZM33.9601 10.6822L37.5256 8.86911L37.526 8.87002L33.9601 10.6822ZM26.2754 5.08872L26.9147 1.14014L26.9224 1.1414L26.9302 1.14268L26.2754 5.08872ZM26.1451 6.39846L26.8087 2.45388L26.8225 2.45621L26.8363 2.45863L26.1451 6.39846ZM32.853 11.4275L29.2912 13.248L29.2772 13.2204L29.2635 13.1927L32.853 11.4275ZM33.3595 12.6504L29.5714 13.9349L29.568 13.9251L29.5648 13.9153L33.3595 12.6504ZM33.8443 18.3525L37.8441 18.3111L37.8441 18.3149L33.8443 18.3525ZM33.8805 22.2093L37.8803 22.1718L37.9182 26.2093H33.8805V22.2093ZM32.057 22.2093V26.2093H28.057V22.2093H32.057ZM31.659 13.1208L35.4505 11.846L35.4512 11.8481L31.659 13.1208ZM26.1379 8.20024L26.9812 4.29016L26.9849 4.29095L26.1379 8.20024ZM23.0698 8.20024L22.2228 4.29095L22.2264 4.29016L23.0698 8.20024ZM17.5487 13.1208L13.7565 11.8481L13.7572 11.846L17.5487 13.1208ZM17.1507 22.2093H21.1507V26.2093H17.1507V22.2093ZM15.3272 22.2093V26.2093H11.2895L11.3274 22.1718L15.3272 22.2093ZM15.3634 18.3525L19.3632 18.3892L19.3632 18.39L15.3634 18.3525ZM15.5153 13.8878L11.5826 13.1574L11.5859 13.1393L11.5895 13.1212L15.5153 13.8878ZM16.9842 10.3132L13.642 8.11555L13.649 8.10494L13.656 8.09438L16.9842 10.3132ZM19.1261 8.0917L21.5191 11.297L21.5156 11.2995L19.1261 8.0917ZM23.0336 6.39846L22.3029 2.46576L22.3207 2.46246L22.3385 2.45932L23.0336 6.39846ZM25.3202 9.40143L25.7525 5.42485L25.7886 5.42879L25.8247 5.43338L25.3202 9.40143ZM30.1394 12.882L33.7547 11.1702L33.7617 11.1852L33.7687 11.2001L30.1394 12.882ZM30.74 18.3887L34.7399 18.3572L34.74 18.3659L30.74 18.3887ZM30.7618 22.2093L34.7617 22.1866L34.7845 26.2093H30.7618V22.2093ZM18.4459 22.2093V26.2093H14.4231L14.446 22.1866L18.4459 22.2093ZM18.4676 18.3887L14.4677 18.3659L14.4678 18.3572L18.4676 18.3887ZM18.6558 13.9963L14.7967 12.9439L14.799 12.9356L14.8013 12.9274L18.6558 13.9963ZM24.4953 9.33631L24.3296 5.33974L24.4124 5.33631H24.4953V9.33631ZM35.3494 23.5914L34.6302 27.5262L34.618 27.524L34.6059 27.5217L35.3494 23.5914ZM36.7532 24.6696L40.3902 23.0045L40.3947 23.0144L36.7532 24.6696ZM36.7532 39.6483L33.1055 38.0068L33.1086 37.9999L33.1118 37.9931L36.7532 39.6483ZM35.856 40.56L34.125 36.9539L34.1447 36.9445L34.1644 36.9353L35.856 40.56ZM35.4942 40.7337L37.2251 44.3398L36.4044 44.7337H35.4942V40.7337ZM13.7135 40.7337V44.7337H12.8032L11.9826 44.3398L13.7135 40.7337ZM13.3517 40.56L15.0433 36.9353L15.063 36.9445L15.0827 36.9539L13.3517 40.56ZM12.4545 39.6483L16.0959 37.9931L16.099 37.9999L16.1021 38.0068L12.4545 39.6483ZM12.4545 24.6696L16.1021 26.311L16.099 26.3179L16.0959 26.3248L12.4545 24.6696ZM13.8004 23.5914L13.0069 19.6709L13.0434 19.6635L13.0799 19.6568L13.8004 23.5914ZM23.5389 9.03915C21.5019 9.38617 19.7312 10.6901 18.8129 12.4956L11.6822 8.86888C13.7597 4.78414 17.6911 1.9201 22.1954 1.15277L23.5389 9.03915ZM18.8135 12.4944C18.5049 13.1017 18.3046 13.6877 18.2122 14.1423L10.3727 12.5479C10.6275 11.2947 11.093 10.0284 11.6816 8.87002L18.8135 12.4944ZM18.2101 14.1526C18.114 14.6189 18.0467 15.4364 18.0391 19.0049L10.0392 18.988C10.0461 15.6967 10.0801 13.9671 10.3748 12.5376L18.2101 14.1526ZM18.0392 18.9965V22.2672H10.0392V18.9965H18.0392ZM14.3402 26.2558L13.9567 26.2848L13.3546 18.3075L13.7381 18.2785L14.3402 26.2558ZM13.9672 26.284C14.2244 26.2639 14.3864 26.2159 14.4244 26.2044C14.4783 26.1881 14.4984 26.178 14.4917 26.1811C14.4868 26.1833 14.4859 26.1844 14.4959 26.1783C14.5009 26.1752 14.5568 26.1412 14.6465 26.0639L9.423 20.0046C9.98968 19.5161 10.6247 19.1525 11.1661 18.905C11.6653 18.6769 12.4516 18.378 13.3441 18.3083L13.9672 26.284ZM14.6688 26.0445C14.8461 25.8894 14.9339 25.7285 14.9774 25.5828L7.31205 23.2932C7.68842 22.0332 8.41302 20.8882 9.40074 20.0239L14.6688 26.0445ZM14.9692 25.61C14.9672 25.6164 14.991 25.5402 15.0131 25.4351C15.0345 25.3333 15.0422 25.2641 15.0434 25.252C15.0438 25.2479 15.0397 25.2882 15.0345 25.4039C15.0295 25.5173 15.0245 25.6781 15.0201 25.9082C15.002 26.8553 15 28.6224 15 32.1589H7C7 28.6692 7.00161 26.8001 7.02153 25.7556C7.04065 24.7531 7.07157 24.0776 7.32027 23.266L14.9692 25.61ZM15 32.1589C15 35.6954 15.002 37.4625 15.0201 38.4097C15.0245 38.6398 15.0295 38.8005 15.0345 38.9139C15.0397 39.0296 15.0438 39.07 15.0434 39.0658C15.0422 39.0537 15.0345 38.9845 15.0131 38.8827C14.991 38.7777 14.9672 38.7015 14.9692 38.7078L7.32027 41.0518C7.07157 40.2403 7.04065 39.5648 7.02153 38.5623C7.00161 37.5177 7 35.6486 7 32.1589H15ZM14.9671 38.7012C14.9534 38.6568 14.8974 38.5162 14.7631 38.3628C14.632 38.2132 14.5223 38.1612 14.537 38.1682L11.0811 45.3832C9.25516 44.5086 7.93217 43.0364 7.3223 41.0584L14.9671 38.7012ZM14.5309 38.1653L15.0013 38.3896L11.5575 45.6104L11.0871 45.3861L14.5309 38.1653ZM13.2794 38H24.6038V46H13.2794V38ZM24.6038 38H35.9283V46H24.6038V38ZM34.2064 38.3896L34.6768 38.1653L38.1206 45.3861L37.6502 45.6104L34.2064 38.3896ZM34.6707 38.1682C34.6853 38.1612 34.5757 38.2132 34.4446 38.3628C34.3103 38.5162 34.2543 38.6568 34.2405 38.7012L41.8854 41.0584C41.2755 43.0364 39.9525 44.5086 38.1266 45.3832L34.6707 38.1682ZM34.2385 38.7078C34.2405 38.7015 34.2167 38.7777 34.1946 38.8827C34.1731 38.9845 34.1655 39.0537 34.1643 39.0658C34.1639 39.07 34.168 39.0296 34.1732 38.9139C34.1782 38.8005 34.1832 38.6398 34.1876 38.4097C34.2057 37.4625 34.2077 35.6954 34.2077 32.1589H42.2077C42.2077 35.6486 42.2061 37.5177 42.1862 38.5623C42.167 39.5648 42.1361 40.2403 41.8874 41.0518L34.2385 38.7078ZM34.2077 32.1589C34.2077 28.6224 34.2057 26.8553 34.1876 25.9082C34.1832 25.6781 34.1782 25.5173 34.1732 25.4039C34.168 25.2882 34.1639 25.2479 34.1643 25.252C34.1655 25.2641 34.1731 25.3333 34.1946 25.4351C34.2167 25.5402 34.2405 25.6164 34.2385 25.61L41.8874 23.266C42.1361 24.0776 42.167 24.7531 42.1862 25.7556C42.2061 26.8001 42.2077 28.6692 42.2077 32.1589H34.2077ZM34.2303 25.5828C34.2738 25.7285 34.3616 25.8894 34.5389 26.0445L39.8069 20.0239C40.7947 20.8882 41.5193 22.0332 41.8956 23.2932L34.2303 25.5828ZM34.5612 26.0639C34.6508 26.1412 34.7068 26.1752 34.7118 26.1783C34.7218 26.1844 34.7209 26.1833 34.716 26.1811C34.7093 26.178 34.7294 26.1881 34.7833 26.2044C34.8213 26.2159 34.9833 26.2639 35.2405 26.284L35.8636 18.3083C36.7561 18.378 37.5424 18.6769 38.0415 18.905C38.583 19.1525 39.218 19.5161 39.7847 20.0046L34.5612 26.0639ZM35.251 26.2848L34.8675 26.2558L35.4696 18.2785L35.8531 18.3075L35.251 26.2848ZM31.1685 22.2672V18.9965H39.1685V22.2672H31.1685ZM31.1685 19.0049C31.161 15.4364 31.0937 14.6189 30.9976 14.1526L38.8329 12.5376C39.1276 13.9671 39.1616 15.6967 39.1685 18.988L31.1685 19.0049ZM30.9955 14.1423C30.9031 13.6877 30.7028 13.1017 30.3942 12.4944L37.526 8.87002C38.1147 10.0284 38.5801 11.2947 38.835 12.5479L30.9955 14.1423ZM30.3946 12.4953C29.469 10.675 27.7037 9.38043 25.6206 9.03476L26.9302 1.14268C31.4753 1.8969 35.4266 4.74136 37.5256 8.86911L30.3946 12.4953ZM25.6361 9.03731C25.6619 9.04149 25.5716 9.02773 25.33 9.01575C25.1147 9.00507 24.8537 8.99932 24.5795 9.00007C24.3054 9.00081 24.0438 9.00798 23.8274 9.01974C23.5854 9.03289 23.4913 9.04703 23.5125 9.04357L22.2219 1.14835C22.9301 1.03259 23.8588 1.002 24.5577 1.0001C25.2534 0.998198 26.1927 1.02324 26.9147 1.14014L25.6361 9.03731ZM26.8363 2.45863C30.9771 3.18509 34.5817 5.87861 36.4424 9.66239L29.2635 13.1927C28.5337 11.7086 27.0875 10.6249 25.4539 10.3383L26.8363 2.45863ZM36.4147 9.60709C36.6869 10.1397 36.9856 10.8797 37.1542 11.3855L29.5648 13.9153C29.5444 13.8542 29.495 13.7198 29.4272 13.5554C29.3955 13.4786 29.365 13.4078 29.3383 13.3484C29.3251 13.3191 29.314 13.2952 29.3053 13.2768C29.301 13.2677 29.2975 13.2607 29.295 13.2556C29.2925 13.2504 29.2912 13.248 29.2912 13.248L36.4147 9.60709ZM37.1477 11.3659C37.4195 12.1678 37.6324 12.8816 37.7317 14.0652C37.8096 14.9934 37.8232 16.2911 37.8441 18.3111L29.8445 18.3938C29.822 16.2169 29.8067 15.2931 29.7598 14.7343C29.7343 14.4309 29.7264 14.3922 29.5714 13.9349L37.1477 11.3659ZM37.8441 18.3149L37.8803 22.1718L29.8807 22.2468L29.8445 18.39L37.8441 18.3149ZM33.8805 26.2093H32.9688V18.2093H33.8805V26.2093ZM32.9688 26.2093H32.057V18.2093H32.9688V26.2093ZM28.057 22.2093V18.6419H36.057V22.2093H28.057ZM28.057 18.6419C28.057 16.6662 28.044 15.7078 28.0013 15.1162C27.9714 14.7006 27.9419 14.6169 27.8669 14.3935L35.4512 11.8481C36.0553 13.6481 36.057 14.9641 36.057 18.6419H28.057ZM27.8676 14.3956C27.4798 13.2422 26.5268 12.3773 25.2909 12.1095L26.9849 4.29095C30.959 5.15199 34.1595 8.00647 35.4505 11.846L27.8676 14.3956ZM25.2945 12.1103C25.3259 12.1171 25.2863 12.1066 25.1527 12.0957C25.0249 12.0854 24.844 12.0772 24.6038 12.0772V4.07723C25.388 4.07723 26.2189 4.12573 26.9812 4.29016L25.2945 12.1103ZM24.6038 12.0772C24.3637 12.0772 24.1828 12.0854 24.055 12.0957C23.9213 12.1066 23.8818 12.1171 23.9131 12.1103L22.2264 4.29016C22.9888 4.12573 23.8197 4.07723 24.6038 4.07723V12.0772ZM23.9168 12.1095C22.6809 12.3773 21.7279 13.2422 21.3401 14.3956L13.7572 11.846C15.0482 8.00647 18.2487 5.15199 22.2228 4.29095L23.9168 12.1095ZM21.3408 14.3935C21.2658 14.6169 21.2363 14.7006 21.2063 15.1162C21.1637 15.7078 21.1507 16.6662 21.1507 18.6419H13.1507C13.1507 14.9641 13.1524 13.6481 13.7565 11.8481L21.3408 14.3935ZM21.1507 18.6419V22.2093H13.1507V18.6419H21.1507ZM17.1507 26.2093H16.2389V18.2093H17.1507V26.2093ZM16.2389 26.2093H15.3272V18.2093H16.2389V26.2093ZM11.3274 22.1718L11.3635 18.3149L19.3632 18.39L19.327 22.2468L11.3274 22.1718ZM11.3635 18.3158C11.3905 15.3781 11.4069 14.1034 11.5826 13.1574L19.4481 14.6182C19.458 14.5646 19.4338 14.6456 19.4126 15.2643C19.3919 15.8646 19.3777 16.8049 19.3632 18.3892L11.3635 18.3158ZM11.5895 13.1212C11.9312 11.3709 12.6713 9.59186 13.642 8.11555L20.3265 12.5108C19.9079 13.1474 19.577 13.9589 19.4412 14.6544L11.5895 13.1212ZM13.656 8.09438C14.3819 7.00554 15.6955 5.65938 16.7366 4.88386L21.5156 11.2995C21.3931 11.3908 21.1357 11.6148 20.8369 11.9247C20.6983 12.0685 20.574 12.2066 20.4739 12.3261C20.4244 12.3851 20.3852 12.4344 20.3558 12.4729C20.3413 12.4918 20.3304 12.5066 20.3228 12.5173C20.3151 12.528 20.3118 12.5329 20.3124 12.532L13.656 8.09438ZM16.7332 4.88644C18.2984 3.71784 20.3984 2.81961 22.3029 2.46576L23.7643 10.3312C23.0204 10.4694 22.0668 10.8881 21.5191 11.297L16.7332 4.88644ZM22.3385 2.45932C23.0543 2.33299 23.9149 2.30077 24.5758 2.30077C25.2457 2.30077 26.097 2.33415 26.8087 2.45388L25.4816 10.343C25.4816 10.343 25.3913 10.3297 25.1956 10.318C25.0152 10.3071 24.8005 10.3008 24.5758 10.3008C24.3508 10.3008 24.1399 10.3071 23.9668 10.3177C23.7753 10.3294 23.7039 10.342 23.7288 10.3376L22.3385 2.45932ZM25.8247 5.43338C29.2696 5.87139 32.2598 8.01298 33.7547 11.1702L26.5242 14.5937C26.2101 13.9303 25.5822 13.4669 24.8157 13.3695L25.8247 5.43338ZM33.7687 11.2001C33.9858 11.6686 34.2568 12.3788 34.411 12.9439L26.6929 15.0488C26.6958 15.0597 26.6911 15.0417 26.6745 14.9919C26.6592 14.9457 26.6392 14.8888 26.6159 14.8263C26.5928 14.7641 26.5695 14.7047 26.5486 14.6536C26.5267 14.6002 26.5133 14.5704 26.5102 14.5638L33.7687 11.2001ZM34.411 12.9439C34.7385 14.1448 34.7137 15.0253 34.7399 18.3572L26.7402 18.4201C26.7254 16.5411 26.7164 15.6744 26.6958 15.1945C26.6862 14.9714 26.6779 14.9424 26.6852 14.9914C26.6975 15.0736 26.7169 15.137 26.6929 15.0488L34.411 12.9439ZM34.74 18.3659L34.7617 22.1866L26.7618 22.232L26.7401 18.4114L34.74 18.3659ZM30.7618 26.2093H24.6038V18.2093H30.7618V26.2093ZM24.6038 26.2093H18.4459V18.2093H24.6038V26.2093ZM14.446 22.1866L14.4677 18.3659L22.4676 18.4114L22.4459 22.232L14.446 22.1866ZM14.4678 18.3572C14.494 15.0253 14.4692 14.1448 14.7967 12.9439L22.5148 15.0488C22.4908 15.137 22.5102 15.0736 22.5225 14.9914C22.5298 14.9424 22.5215 14.9714 22.5119 15.1945C22.4913 15.6744 22.4823 16.5411 22.4675 18.4201L14.4678 18.3572ZM14.8013 12.9274C16.013 8.55804 19.7841 5.52816 24.3296 5.33974L24.661 13.3329C23.6203 13.376 22.8036 14.0076 22.5103 15.0653L14.8013 12.9274ZM24.4953 5.33631C24.8639 5.33631 25.4355 5.3904 25.7525 5.42485L24.888 13.378C24.7614 13.3642 24.6252 13.3516 24.5149 13.3429C24.4597 13.3386 24.4211 13.336 24.4 13.3348C24.3895 13.3342 24.3901 13.3343 24.3994 13.3347C24.4043 13.3349 24.4405 13.3363 24.4953 13.3363V5.33631ZM36.0687 19.6566C37.9986 20.0094 39.5599 21.1909 40.3902 23.0045L33.1163 26.3347C33.2099 26.5393 33.407 26.8486 33.7594 27.1201C34.1089 27.3893 34.4433 27.492 34.6302 27.5262L36.0687 19.6566ZM40.3947 23.0144C40.8592 24.0362 40.8651 24.9678 40.8826 25.8042C40.9036 26.8085 40.9052 28.6582 40.9052 32.1589H32.9052C32.9052 28.6045 32.9031 26.8687 32.8844 25.9717C32.8743 25.4917 32.8613 25.4184 32.8698 25.4851C32.8781 25.5508 32.9025 25.715 32.9661 25.9297C32.9979 26.037 33.032 26.1318 33.0635 26.2108C33.0917 26.2813 33.115 26.3319 33.1118 26.3248L40.3947 23.0144ZM40.9052 32.1589C40.9052 35.6596 40.9036 37.5093 40.8826 38.5136C40.8651 39.35 40.8592 40.2817 40.3947 41.3035L33.1118 37.9931C33.115 37.9859 33.0917 38.0365 33.0635 38.107C33.032 38.186 32.9979 38.2809 32.9661 38.3881C32.9025 38.6028 32.8781 38.767 32.8698 38.8327C32.8613 38.8994 32.8743 38.8262 32.8844 38.3462C32.9031 37.4492 32.9052 35.7134 32.9052 32.1589H40.9052ZM40.4009 41.2897C39.8177 42.5858 38.8623 43.5712 37.5475 44.1848L34.1644 36.9353C34.0269 36.9995 33.7855 37.1384 33.5397 37.3888C33.2949 37.6382 33.1634 37.8782 33.1055 38.0068L40.4009 41.2897ZM37.5869 44.1661L37.2251 44.3398L33.7632 37.1276L34.125 36.9539L37.5869 44.1661ZM35.4942 44.7337H24.6038V36.7337H35.4942V44.7337ZM24.6038 44.7337H13.7135V36.7337H24.6038V44.7337ZM11.9826 44.3398L11.6208 44.1661L15.0827 36.9539L15.4445 37.1276L11.9826 44.3398ZM11.6602 44.1848C10.3454 43.5712 9.39001 42.5858 8.80677 41.2897L16.1021 38.0068C16.0443 37.8782 15.9128 37.6382 15.668 37.3888C15.4222 37.1384 15.1808 36.9995 15.0433 36.9353L11.6602 44.1848ZM8.81299 41.3035C8.34852 40.2817 8.34259 39.35 8.32508 38.5136C8.30406 37.5093 8.3025 35.6596 8.3025 32.1589H16.3025C16.3025 35.7134 16.3046 37.4492 16.3233 38.3462C16.3334 38.8262 16.3463 38.8994 16.3379 38.8327C16.3296 38.767 16.3052 38.6028 16.2416 38.3881C16.2098 38.2809 16.1757 38.186 16.1442 38.107C16.116 38.0365 16.0927 37.9859 16.0959 37.9931L8.81299 41.3035ZM8.3025 32.1589C8.3025 28.6582 8.30406 26.8085 8.32508 25.8042C8.34259 24.9678 8.34852 24.0362 8.81299 23.0144L16.0959 26.3248C16.0927 26.3319 16.116 26.2813 16.1442 26.2108C16.1757 26.1318 16.2098 26.037 16.2416 25.9297C16.3052 25.715 16.3296 25.5508 16.3379 25.4851C16.3463 25.4184 16.3334 25.4917 16.3233 25.9717C16.3046 26.8687 16.3025 28.6045 16.3025 32.1589H8.3025ZM8.80677 23.0281C9.59734 21.2713 11.1392 20.0489 13.0069 19.6709L14.5938 27.5119C14.877 27.4546 15.1964 27.322 15.4914 27.0866C15.787 26.8509 15.9857 26.5698 16.1021 26.311L8.80677 23.0281ZM13.0799 19.6568C13.3 19.6165 13.4843 19.6027 13.5162 19.6001C13.5879 19.5943 13.6531 19.5905 13.7005 19.5881C13.7975 19.5831 13.9034 19.5794 14.0048 19.5765C14.2119 19.5704 14.481 19.5653 14.7929 19.5607C15.4208 19.5514 16.2792 19.5437 17.2842 19.5375C19.2973 19.5252 21.9332 19.5186 24.5661 19.5181C27.1988 19.5177 29.8365 19.5233 31.8529 19.5355C32.8595 19.5416 33.7205 19.5493 34.3516 19.5589C34.665 19.5637 34.9367 19.5691 35.147 19.5755C35.2499 19.5787 35.3584 19.5827 35.4585 19.5881C35.5075 19.5907 35.5749 19.5948 35.6493 19.6012C35.6856 19.6042 35.871 19.6191 36.093 19.6611L34.6059 27.5217C34.9001 27.5773 35.1438 27.5828 35.0255 27.5764C35.0166 27.5759 34.9794 27.5741 34.9027 27.5718C34.7535 27.5672 34.5295 27.5625 34.23 27.558C33.6356 27.549 32.8032 27.5414 31.8046 27.5354C29.8106 27.5233 27.1908 27.5177 24.5674 27.5181C21.9442 27.5186 19.3253 27.5251 17.3335 27.5374C16.336 27.5435 15.5044 27.551 14.9108 27.5598C14.6119 27.5642 14.3874 27.5687 14.2375 27.5731C14.1605 27.5753 14.122 27.577 14.1112 27.5776C13.9893 27.5838 14.2311 27.579 14.5208 27.526L13.0799 19.6568Z" fill="#C5AE5B" mask="url(#path-2-inside-1_15_274)"/>
<mask id="path-4-inside-2_15_274" fill="white">
<path d="M23.6631 27.3397C21.4634 28.0416 20.7615 30.8275 22.3679 32.4701L22.7152 32.8246L22.7369 34.3008C22.7586 35.9289 22.802 36.1026 23.2651 36.5729C23.6414 36.9492 23.9888 37.0795 24.6038 37.0795C25.2189 37.0795 25.5662 36.9492 25.9425 36.5729C26.4056 36.1026 26.449 35.9289 26.4707 34.3008L26.4924 32.8246L26.8398 32.4701C28.2146 31.0663 27.9252 28.7218 26.2537 27.6653C25.5445 27.2094 24.4736 27.0792 23.6631 27.3397ZM25.3853 28.6928C26.5142 29.2572 26.7457 30.7623 25.8267 31.5873C25.6965 31.703 25.5011 31.8839 25.3853 31.9925L25.1827 32.1806V33.8087V35.4296L24.9946 35.625C24.7413 35.871 24.4663 35.871 24.2131 35.625L24.0249 35.4296V33.8087V32.1806L23.8223 31.9925C23.7066 31.8839 23.5112 31.703 23.3809 31.5873C22.1942 30.5236 22.9974 28.5047 24.6038 28.5047C24.8933 28.5047 25.1176 28.5553 25.3853 28.6928Z"/>
</mask>
<path d="M23.6631 27.3397L24.8872 31.1478L24.8791 31.1504L23.6631 27.3397ZM22.3679 32.4701L19.5104 35.2692L19.5081 35.2668L22.3679 32.4701ZM22.7152 32.8246L25.5726 30.0255L26.6913 31.1674L26.7148 32.7658L22.7152 32.8246ZM22.7369 34.3008L26.7365 34.242L26.7366 34.2475L22.7369 34.3008ZM23.2651 36.5729L20.4367 39.4014L20.4258 39.3904L20.4149 39.3793L23.2651 36.5729ZM25.9425 36.5729L28.7928 39.3793L28.7819 39.3904L28.7709 39.4014L25.9425 36.5729ZM26.4707 34.3008L22.4711 34.2475L22.4712 34.242L26.4707 34.3008ZM26.4924 32.8246L22.4929 32.7658L22.5164 31.1674L23.635 30.0255L26.4924 32.8246ZM26.8398 32.4701L29.6975 35.2689L29.6972 35.2692L26.8398 32.4701ZM26.2537 27.6653L24.1166 31.0466L24.1036 31.0383L24.0906 31.03L26.2537 27.6653ZM25.3853 28.6928L23.5965 32.2705L23.5772 32.2609L23.5581 32.2511L25.3853 28.6928ZM25.8267 31.5873L28.4987 34.5639L28.4915 34.5704L28.4842 34.5769L25.8267 31.5873ZM25.3853 31.9925L28.1211 34.9106L28.1141 34.9172L28.1071 34.9237L25.3853 31.9925ZM25.1827 32.1806H21.1827V30.4363L22.4609 29.2494L25.1827 32.1806ZM25.1827 35.4296H29.1827V37.0424L28.064 38.2042L25.1827 35.4296ZM24.9946 35.625L27.8759 38.3996L27.8296 38.4476L27.7817 38.4941L24.9946 35.625ZM24.2131 35.625L21.4259 38.4941L21.3781 38.4476L21.3318 38.3996L24.2131 35.625ZM24.0249 35.4296L21.1437 38.2042L20.0249 37.0424V35.4296H24.0249ZM24.0249 32.1806L26.7467 29.2494L28.0249 30.4363V32.1806H24.0249ZM23.8223 31.9925L21.1005 34.9237L21.0935 34.9172L21.0866 34.9106L23.8223 31.9925ZM23.3809 31.5873L20.7235 34.5769L20.7173 34.5714L20.7111 34.5659L23.3809 31.5873ZM24.8791 31.1504C25.4831 30.9577 25.7258 30.1827 25.2276 29.6733L19.5081 35.2668C15.7971 31.4723 17.4436 25.1255 22.4472 23.529L24.8791 31.1504ZM25.2253 29.6709L25.5726 30.0255L19.8578 35.6238L19.5104 35.2692L25.2253 29.6709ZM26.7148 32.7658L26.7365 34.242L18.7373 34.3596L18.7156 32.8835L26.7148 32.7658ZM26.7366 34.2475C26.742 34.6564 26.7482 34.8935 26.757 35.0495C26.7666 35.2169 26.7723 35.1395 26.7305 34.9607C26.706 34.8559 26.6649 34.7131 26.5967 34.5481C26.5269 34.3794 26.4432 34.2223 26.3523 34.0811C26.2646 33.9452 26.1861 33.8488 26.1425 33.7982C26.1036 33.7529 26.084 33.7346 26.1154 33.7665L20.4149 39.3793C19.9682 38.9257 19.2555 38.1293 18.9405 36.7814C18.7479 35.9576 18.746 35.0068 18.7373 34.3541L26.7366 34.2475ZM26.0936 33.7445C25.992 33.6429 25.709 33.3955 25.2582 33.2253C24.8497 33.071 24.5598 33.0795 24.6038 33.0795V41.0795C24.0328 41.0795 23.2617 41.0228 22.4317 40.7093C21.5594 40.3799 20.9146 39.8792 20.4367 39.4014L26.0936 33.7445ZM24.6038 33.0795C24.6479 33.0795 24.358 33.071 23.9494 33.2253C23.4987 33.3955 23.2157 33.6429 23.1141 33.7445L28.7709 39.4014C28.2931 39.8792 27.6483 40.3799 26.776 40.7093C25.9459 41.0228 25.1748 41.0795 24.6038 41.0795V33.0795ZM23.0922 33.7665C23.1237 33.7346 23.1041 33.7529 23.0651 33.7982C23.0216 33.8488 22.943 33.9452 22.8554 34.0811C22.7644 34.2223 22.6808 34.3794 22.611 34.5481C22.5427 34.7131 22.5016 34.8559 22.4771 34.9607C22.4353 35.1395 22.4411 35.2169 22.4506 35.0495C22.4595 34.8935 22.4656 34.6564 22.4711 34.2475L30.4704 34.3541C30.4617 35.0068 30.4597 35.9576 30.2672 36.7814C29.9521 38.1293 29.2394 38.9257 28.7928 39.3793L23.0922 33.7665ZM22.4712 34.242L22.4929 32.7658L30.492 32.8835L30.4703 34.3596L22.4712 34.242ZM23.635 30.0255L23.9823 29.6709L29.6972 35.2692L29.3499 35.6238L23.635 30.0255ZM23.982 29.6713C23.5406 30.122 23.6766 30.7685 24.1166 31.0466L28.3907 24.284C32.1737 26.675 32.8887 32.0105 29.6975 35.2689L23.982 29.6713ZM24.0906 31.03C24.221 31.1138 24.3223 31.1543 24.3777 31.1731C24.435 31.1926 24.4756 31.1999 24.5022 31.2032C24.5289 31.2065 24.5651 31.2087 24.6161 31.2048C24.6653 31.2011 24.7582 31.1893 24.8872 31.1478L22.4391 23.5316C24.3525 22.9166 26.6705 23.1781 28.4167 24.3006L24.0906 31.03ZM27.1742 25.1151C30.6744 26.8652 31.6426 31.7419 28.4987 34.5639L23.1548 28.6106C21.8489 29.7828 22.3539 31.6493 23.5965 32.2705L27.1742 25.1151ZM28.4842 34.5769C28.3942 34.6569 28.2295 34.809 28.1211 34.9106L22.6496 29.0743C22.7727 28.9589 22.9988 28.7492 23.1693 28.5976L28.4842 34.5769ZM28.1071 34.9237L27.9045 35.1118L22.4609 29.2494L22.6635 29.0613L28.1071 34.9237ZM29.1827 32.1806V33.8087H21.1827V32.1806H29.1827ZM29.1827 33.8087V35.4296H21.1827V33.8087H29.1827ZM28.064 38.2042L27.8759 38.3996L22.1133 32.8504L22.3014 32.6551L28.064 38.2042ZM27.7817 38.4941C27.148 39.1097 26.0686 39.8095 24.6038 39.8095C23.1391 39.8095 22.0596 39.1097 21.4259 38.4941L27.0002 32.7559C26.6198 32.3863 25.8045 31.8095 24.6038 31.8095C23.4032 31.8095 22.5879 32.3863 22.2074 32.7559L27.7817 38.4941ZM21.3318 38.3996L21.1437 38.2042L26.9062 32.6551L27.0944 32.8504L21.3318 38.3996ZM20.0249 35.4296V33.8087H28.0249V35.4296H20.0249ZM20.0249 33.8087V32.1806H28.0249V33.8087H20.0249ZM21.3031 35.1118L21.1005 34.9237L26.5441 29.0613L26.7467 29.2494L21.3031 35.1118ZM21.0866 34.9106C20.9781 34.809 20.8135 34.6569 20.7235 34.5769L26.0384 28.5976C26.2089 28.7492 26.435 28.9589 26.5581 29.0743L21.0866 34.9106ZM20.7111 34.5659C16.6512 30.9268 19.517 24.5047 24.6038 24.5047V32.5047C25.6483 32.5047 26.3915 31.8058 26.6625 31.1236C26.9362 30.4344 26.8811 29.3529 26.0508 28.6087L20.7111 34.5659ZM24.6038 24.5047C25.5061 24.5047 26.3596 24.6966 27.2125 25.1346L23.5581 32.2511C23.6594 32.3031 23.8395 32.3822 24.0788 32.439C24.3166 32.4955 24.5069 32.5047 24.6038 32.5047V24.5047Z" fill="#C5AE5B" mask="url(#path-4-inside-2_15_274)"/>
</svg>
