<svg width="50" height="50" viewBox="0 0 50 50" fill="none" xmlns="http://www.w3.org/2000/svg">
<path d="M7.8649 8.12361C7.39922 8.2197 7.00746 8.3158 7.00007 8.32319C6.99268 8.33058 7.5988 10.7477 8.35276 13.697C9.09932 16.6389 10.5333 22.2419 11.5238 26.1447C14.6136 38.2598 14.5323 37.9641 14.7466 38.2302L14.9314 38.4741L16.055 38.1932C16.6759 38.0454 17.1785 37.8828 17.1785 37.8458C17.1785 37.8089 17.0972 37.4467 16.9937 37.0327C16.8237 36.3897 16.8163 36.264 16.8976 36.0792C17.0011 35.8501 16.9937 35.8501 18.2799 35.5027C18.5829 35.4213 18.8343 35.34 18.849 35.3252C18.8638 35.3179 18.7825 34.9852 18.679 34.6009L18.4942 33.8913L18.6864 33.5956C18.8786 33.3073 18.923 33.2851 19.6621 33.0929C20.0909 32.9747 20.453 32.8638 20.4678 32.8416C20.4826 32.8121 20.4457 32.5607 20.3865 32.2798C20.3274 31.999 20.3052 31.755 20.3348 31.7329C20.3717 31.7107 20.4383 31.6072 20.49 31.5037C20.5491 31.4002 20.7413 31.1933 20.9261 31.038C21.1035 30.8902 21.2292 30.7645 21.1922 30.7571C21.1627 30.7571 21.3475 30.6906 21.6136 30.6093C22.2788 30.4023 23.3506 30.4097 23.7424 30.6167C23.8902 30.698 24.0528 30.7645 24.1046 30.7645C24.1563 30.7645 24.2007 30.8015 24.2007 30.8458C24.2007 30.8902 24.245 30.9124 24.3042 30.8902C24.4076 30.8458 24.6885 31.5555 25.169 33.0486C25.2651 33.3443 25.3833 33.603 25.4277 33.6251C25.4794 33.6399 25.8047 33.5882 26.1669 33.4995C26.5217 33.4182 26.8321 33.3738 26.8543 33.4108C26.8765 33.4477 27.0243 33.5217 27.1721 33.566C27.3274 33.6178 27.4678 33.6917 27.4974 33.7286C27.5196 33.7656 27.5639 33.7804 27.6009 33.7582C27.6748 33.7138 27.9409 34.3791 28.4583 35.9018C28.6505 36.471 28.8279 36.9588 28.8501 36.9884C28.8723 37.018 29.2197 36.9588 29.6188 36.8553C30.2176 36.7075 30.3876 36.6853 30.6315 36.7519C30.7941 36.7962 30.9419 36.8627 30.9641 36.8997C30.9937 36.944 31.038 36.9588 31.075 36.9367C31.1415 36.8923 31.3411 37.3802 32.0359 39.2872C32.2725 39.9303 32.4868 40.4773 32.509 40.4995C32.5312 40.5217 32.9673 40.4329 33.4847 40.3073C34.1869 40.1299 34.4382 40.0929 34.4826 40.1595C34.5122 40.2112 34.5787 40.226 34.6378 40.2038C34.7191 40.1742 34.8374 40.4108 35.1109 41.0834C35.3474 41.6895 35.51 42 35.584 42C35.9018 42 39.9525 40.8173 40.2629 40.6399C40.4551 40.5217 40.6104 40.4256 40.6104 40.4256C40.6104 40.4182 40.4625 40.0338 40.2777 39.5681C39.9229 38.6811 39.8934 38.5259 40.0338 38.5259C40.3073 38.5259 41.3569 38.1193 41.66 37.905L42 37.6463L41.1499 35.6283C40.6843 34.5195 40.2925 33.603 40.2777 33.5882C40.2629 33.5734 39.812 33.6843 39.2651 33.8247C38.7181 33.9726 38.2228 34.0908 38.1637 34.0908C38.0898 34.0908 37.905 33.7286 37.6241 33.0338C37.3875 32.4573 37.0327 31.585 36.8332 31.0898L36.4636 30.1954L35.4583 30.4393C34.8965 30.5797 34.4087 30.6906 34.3643 30.6906C34.3126 30.6906 33.9504 29.8554 33.5512 28.8427C33.1521 27.8226 32.7973 26.9947 32.7677 26.9947C32.7381 26.9947 32.2872 27.0982 31.7772 27.2165C31.2672 27.3348 30.8015 27.4383 30.7498 27.4383C30.6684 27.4383 29.8627 25.3686 29.774 24.9324L29.7297 24.7329L33.4256 23.8237L37.1141 22.9145L37.358 22.3675L37.5945 21.8205L37.4467 21.4657C37.3654 21.2735 37.1954 20.8966 37.0771 20.6305L36.8553 20.1352L35.8501 20.3791C34.7117 20.6526 34.83 20.6896 34.5565 20.0022C34.4826 19.8026 34.3495 19.4847 34.2682 19.2999L34.1204 18.9525L33.2038 19.1669C32.7086 19.2852 32.2429 19.3812 32.1838 19.3812C32.1098 19.3812 31.962 19.1004 31.7476 18.5682C31.4963 17.9177 31.4002 17.7551 31.3041 17.7846C31.038 17.8659 29.5745 18.1986 29.4858 18.1986C29.4266 18.1986 29.264 17.8807 29.1014 17.452C28.9462 17.0381 28.7762 16.6906 28.7318 16.6685C28.6801 16.6463 28.2218 16.7276 27.7117 16.8533C27.2017 16.9715 26.773 17.0455 26.7508 17.0233C26.736 16.9937 26.603 16.6389 26.4478 16.2398C26.2999 15.8332 26.1743 15.4932 26.1669 15.4858C26.1595 15.4784 25.7234 15.5671 25.1986 15.6854C24.6663 15.8036 24.2155 15.9071 24.1933 15.9071C24.1637 15.9071 24.0233 15.5597 23.868 15.131C23.7202 14.7023 23.5724 14.3549 23.5428 14.3549C23.5206 14.3549 23.0845 14.4509 22.5745 14.5692C22.0645 14.6801 21.6283 14.7614 21.5988 14.7466C21.5766 14.7318 21.4435 14.4066 21.3179 14.0222C21.1922 13.6379 21.0592 13.3052 21.0296 13.2904C20.9853 13.2609 20.2313 13.4087 19.2038 13.6526C19.0634 13.6822 19.0191 13.6157 18.8121 12.9504C18.6864 12.5513 18.5534 12.2039 18.5238 12.1891C18.4942 12.1743 18.0581 12.2556 17.5481 12.3665C17.0381 12.4847 16.6019 12.5808 16.5798 12.5808C16.5576 12.5808 16.4467 12.263 16.3285 11.8786C16.2176 11.4869 16.0919 11.1542 16.055 11.1321C16.0254 11.1099 15.6115 11.1764 15.1458 11.2799C14.6801 11.3834 14.2514 11.4721 14.1996 11.4721C14.1331 11.4721 14.0222 11.2208 13.8892 10.7699C13.734 10.245 13.6452 10.0676 13.5565 10.0676C13.49 10.0676 13.0539 10.149 12.5956 10.2524C12.1373 10.3559 11.753 10.4298 11.7382 10.4151C11.7308 10.4077 11.6199 10.0824 11.4943 9.69066L11.2651 8.98105L10.4668 9.15106C10.0307 9.24716 9.62414 9.32846 9.55761 9.32846C9.46891 9.32846 9.35803 9.12889 9.18063 8.64843C9.0328 8.23449 8.89235 7.9536 8.82583 7.94621C8.76669 7.93882 8.33058 8.02013 7.8649 8.12361ZM12.0412 12.7361C12.2704 12.7952 12.3813 12.8691 12.4182 12.98C12.5069 13.2683 12.5734 13.3052 12.9356 13.2387C13.2683 13.1722 14.2366 13.32 14.5175 13.4678C14.584 13.5048 14.6949 13.7192 14.7614 13.9409C14.8353 14.1701 14.9092 14.3549 14.924 14.3549C14.9388 14.3549 15.1901 14.3031 15.4858 14.244C15.7815 14.1775 16.0771 14.1553 16.1437 14.1775C16.2028 14.207 16.2767 14.2366 16.3063 14.2366C16.3285 14.244 16.3802 14.2662 16.4098 14.2957C16.4393 14.3327 16.5428 14.3549 16.6315 14.3549C16.8681 14.3549 17.0085 14.5175 17.1489 14.9832C17.2968 15.4414 17.2746 15.4341 18.0655 15.2862C18.3686 15.2271 18.6347 15.2049 18.6569 15.2419C18.679 15.2714 18.8416 15.3454 19.0264 15.4119C19.3369 15.5154 19.3665 15.5523 19.5365 15.9884C19.6326 16.2471 19.7213 16.4689 19.7287 16.4837C19.7434 16.4985 20.0243 16.4541 20.3643 16.3876C20.7709 16.3137 20.9926 16.2989 21.0074 16.3506C21.0222 16.3876 21.1035 16.4245 21.1774 16.4245C21.2588 16.4245 21.4214 16.4763 21.5396 16.5354C21.6653 16.6019 21.7614 16.6241 21.7688 16.5946C21.7688 16.5576 21.8649 16.7646 21.9757 17.0528C22.094 17.3337 22.2197 17.5777 22.2566 17.5851C22.2936 17.5998 22.5597 17.5629 22.8406 17.5037C23.3432 17.3929 23.358 17.3929 23.8459 17.5924C24.3337 17.792 24.3485 17.7994 24.5037 18.2207C24.5924 18.4647 24.7107 18.6716 24.7624 18.6938C24.8142 18.7086 25.0433 18.6938 25.2651 18.6421C25.5903 18.5755 25.7381 18.5829 26.0264 18.6716C26.8026 18.9082 26.8839 18.9673 27.0687 19.4478L27.2461 19.8987L27.5122 19.8543C27.8522 19.8026 28.5396 19.9652 29.1162 20.2313C29.471 20.3939 29.5893 20.4974 29.7075 20.7339C29.8332 20.9926 29.9293 21.0592 30.4023 21.2514L30.9493 21.4805L30.698 21.5692C30.5576 21.6136 29.5745 21.8649 28.5101 22.1236L26.5808 22.5893L26.5365 22.8036C26.4108 23.4393 26.4847 23.735 27.4013 26.3221L28.3105 28.8723L28.924 29.0718C29.2566 29.1753 29.641 29.2862 29.7667 29.3084C29.8997 29.3305 30.1584 29.4118 30.358 29.5006C30.5502 29.5819 30.735 29.6558 30.7645 29.6558C30.8458 29.6706 30.9715 29.9441 31.3337 30.9198C31.5185 31.415 31.7033 31.8733 31.7329 31.9324C31.7994 32.0507 32.3612 32.2503 33.1077 32.4277C33.3517 32.4868 33.6843 32.5681 33.8469 32.6125C34.0095 32.6568 34.1795 32.7012 34.2239 32.7012C34.2682 32.7086 34.5343 33.2777 34.8078 33.9726C35.0813 34.6674 35.3252 35.2587 35.3548 35.2883C35.3844 35.3179 35.887 35.51 36.471 35.717C37.1141 35.9388 37.5945 36.1457 37.6684 36.2418C37.735 36.3231 37.8606 36.3971 37.9419 36.4044C38.0232 36.4044 38.0676 36.4414 38.0528 36.471C38.0306 36.5005 38.0454 36.5301 38.0824 36.5301C38.1489 36.5301 38.3411 36.9514 38.7328 37.9863L38.9029 38.4372L38.4002 38.5924C38.1193 38.6811 37.3062 38.8955 36.5818 39.0877C35.3992 39.3907 35.2661 39.4129 35.1848 39.302C35.1405 39.2355 34.7709 38.3263 34.3717 37.2841C33.9726 36.2418 33.6251 35.3622 33.5956 35.3326C33.566 35.3031 33.433 35.3105 33.2925 35.3474C32.5607 35.5618 31.415 35.7909 31.3559 35.7318C31.3263 35.7022 30.9789 34.8226 30.6019 33.7952C30.2176 32.7603 29.8775 31.9029 29.8406 31.8955C29.7962 31.8807 29.3601 31.9694 28.8501 32.0951C28.3474 32.2133 27.8818 32.3168 27.8152 32.3168C27.6748 32.3168 27.6157 32.1764 26.8321 29.9588C26.566 29.2123 26.3369 28.5914 26.3295 28.5766C26.3147 28.5692 25.8416 28.6727 25.2725 28.8057C24.7033 28.9388 24.2155 29.0275 24.1933 28.9979C24.1637 28.9757 23.868 28.1553 23.528 27.1795C23.1954 26.2038 22.9145 25.4055 22.9145 25.3981C22.9071 25.3907 22.4266 25.5016 21.8501 25.6421L20.7857 25.9008L20.8374 26.3517C20.867 26.603 20.9483 27.0243 21.0296 27.283C21.1109 27.5417 21.1627 27.7635 21.1553 27.7709C21.1405 27.7857 20.7044 27.8965 20.1722 28.037C19.6473 28.17 19.2038 28.2809 19.1891 28.2957C19.1743 28.3031 19.263 28.717 19.3886 29.2197C19.5143 29.7223 19.5882 30.151 19.5586 30.1806C19.5291 30.2028 19.0782 30.3358 18.546 30.4689C18.0212 30.6019 17.5777 30.7202 17.5629 30.735C17.5481 30.7424 17.6146 31.0824 17.7033 31.4889C17.8659 32.2207 17.8659 32.2281 17.7329 32.4425C17.6516 32.5533 17.5924 32.6716 17.5998 32.6938C17.6072 32.7234 17.4594 32.7825 17.2672 32.8268C17.075 32.8786 16.8607 32.9303 16.7794 32.9599C16.6906 32.9821 16.6611 32.9673 16.6906 32.9155C16.7202 32.8712 16.7128 32.8342 16.6759 32.8342C16.6389 32.8342 16.4615 32.7012 16.2915 32.5386C16.0032 32.2651 15.9071 32.2133 15.7593 32.2355C15.7297 32.2355 15.6928 32.1838 15.6706 32.1098C15.1975 30.491 12.6104 21.037 11.2725 16.018C10.4964 13.1204 10.4964 13.1204 10.5703 13.1944C10.5998 13.2239 10.6664 13.1796 10.7107 13.0983C10.8142 12.9061 11.2355 12.6769 11.509 12.6621C11.6273 12.6621 11.8638 12.6917 12.0412 12.7361Z" fill="#C5AE5B"/>
<circle cx="25" cy="25" r="23.5" stroke="#C5AE5B" stroke-width="3"/>
</svg>
