<svg width="30" height="30" viewBox="0 0 30 30" fill="none" xmlns="http://www.w3.org/2000/svg">
<path fill-rule="evenodd" clip-rule="evenodd" d="M14.0119 0.0306815C7.25556 0.492695 1.61992 5.42886 0.298622 12.0419C-0.66906 16.8851 0.743016 21.792 4.12875 25.3514C6.53587 27.882 9.62125 29.4345 13.2088 29.9202C13.9946 30.0266 16.0209 30.0266 16.8067 29.9202C19.5359 29.5507 21.9434 28.5765 24.0817 26.9763C24.9398 26.3341 26.3502 24.9211 26.9839 24.0688C28.5953 21.9013 29.5503 19.5409 29.9202 16.8117C30.0269 16.0245 30.0265 13.9989 29.9196 13.2153C29.4472 9.75216 28.0057 6.80758 25.6113 4.41403C24.0896 2.89293 22.2372 1.69442 20.2618 0.952653C18.3364 0.229705 16.0447 -0.108359 14.0119 0.0306815ZM16.1642 0.949442C21.1483 1.37909 25.4708 4.3333 27.6743 8.81606C28.6503 10.8015 29.1054 12.7746 29.104 15.0135C29.102 18.3097 28.0331 21.3238 25.9496 23.9088C22.6963 27.9454 17.3725 29.8655 12.2559 28.8478C10.1034 28.4197 7.77949 27.3363 6.14172 25.9975C1.0018 21.7958 -0.560291 14.7295 2.34308 8.81375C3.74468 5.95786 5.94602 3.75749 8.80795 2.35179C11.1011 1.22547 13.6748 0.734812 16.1642 0.949442ZM6.84259 8.56264C6.44072 8.6864 6.00134 9.08824 5.81336 9.50401L5.65987 9.84361V15.0135V20.1834L5.81336 20.523C6.00783 20.9531 6.4413 21.341 6.86951 21.4681C7.35669 21.6128 22.6588 21.6128 23.146 21.4681C23.5742 21.341 24.0077 20.9531 24.2021 20.523L24.3556 20.1834V15.0135V9.84361L24.2021 9.50401C24.0077 9.07391 23.5742 8.68601 23.146 8.55885C22.6744 8.41891 7.2979 8.42238 6.84259 8.56264ZM23.019 9.48757C23.3289 9.67644 23.4318 9.88003 23.4447 10.33L23.4562 10.7285L19.2801 13.9915C16.9833 15.7861 15.0667 17.2559 15.0209 17.2579C14.9751 17.2597 13.0417 15.7829 10.7244 13.9759L6.51101 10.6905L6.55142 10.3036C6.59768 9.86134 6.70446 9.66553 6.99646 9.48757C7.19703 9.36535 7.38361 9.3624 15.0077 9.3624C22.6319 9.3624 22.8185 9.36535 23.019 9.48757ZM9.03025 13.7957L11.3526 15.605L10.8512 16.0711C10.5755 16.3274 9.51165 17.319 8.48717 18.2746C7.28621 19.3947 6.60751 19.9854 6.5768 19.9371C6.55059 19.8959 6.52874 18.0746 6.52816 15.8897C6.52733 12.5023 6.5405 11.9222 6.61753 11.9518C6.66726 11.9708 7.75296 12.8006 9.03025 13.7957ZM23.4838 15.8644C23.4813 18.0279 23.4596 19.8459 23.4356 19.9044C23.3927 20.0088 23.265 19.894 19.1621 16.0633L18.6699 15.6038L21.0277 13.7673C22.3243 12.7572 23.4085 11.9308 23.4368 11.9308C23.4651 11.9308 23.4862 13.701 23.4838 15.8644ZM13.4337 17.2312C14.1051 17.755 14.7308 18.2277 14.8243 18.2816C15.0504 18.4122 15.1241 18.3739 16.0678 17.6357C16.4918 17.3041 17.0896 16.8378 17.3961 16.5996L17.9535 16.1663L20.3465 18.3997L22.7396 20.6329L18.8737 20.6495C16.7474 20.6586 13.2681 20.6586 11.1418 20.6495L7.27587 20.6329L9.6722 18.4C11.2522 16.9278 12.0932 16.1862 12.1408 16.223C12.1805 16.2538 12.7623 16.7075 13.4337 17.2312Z" fill="#C5AE5B"/>
</svg>
