<svg width="50" height="50" viewBox="0 0 50 50" fill="none" xmlns="http://www.w3.org/2000/svg">
<circle cx="25" cy="25" r="23.5" stroke="#C5AE5B" stroke-width="3"/>
<path d="M23.9544 8.88749C18.9053 10.2387 16.7719 11.9454 14.354 16.4967C13.5006 18.0612 13.5006 18.4168 14.354 18.9857C15.9896 20.0524 19.9009 19.199 22.2477 17.2078C25.59 14.3633 27.2257 14.79 32.9859 20.1235C37.8217 24.5326 44.1508 29.155 44.7197 28.5861C44.862 28.515 44.2219 25.1015 43.3686 21.1191C42.0174 14.5766 41.5907 13.7233 40.0262 13.0832C39.0306 12.7277 36.755 11.5187 34.9771 10.3809C30.4969 7.60743 29.5724 7.4652 23.9544 8.88749Z" fill="#C5AE5B"/>
<path d="M15.4207 9.38527C14.2829 9.95418 12.6472 11.0209 11.865 11.732C11.0827 12.4432 9.94491 13.2254 9.37599 13.3677C8.66485 13.581 7.81148 16.07 6.81588 20.7635C5.96251 24.6037 5.32249 27.9461 5.46471 28.0172C5.60694 28.1594 7.31368 28.3016 9.23377 28.3016C11.7939 28.2305 12.9317 28.5861 13.2162 29.2972C13.4295 29.8661 13.9273 30.2217 14.2829 29.9373C14.7096 29.7239 15.5629 30.1506 16.2741 30.9329C16.9852 31.644 18.2653 32.4974 19.1898 32.7107C20.0431 32.9952 20.8254 33.5641 20.8254 33.9197C20.8965 34.2752 20.9676 34.8441 21.0387 35.1286C21.0387 35.4842 21.6787 36.2664 22.3899 36.9776C23.1721 37.7598 23.4566 38.8265 23.1721 39.8932C22.8166 41.3155 23.101 41.6711 24.6655 42.0978C27.3679 42.7378 28.6479 41.3155 26.5856 39.8221C25.7323 39.2532 25.0211 38.3999 25.0211 37.9732C25.0211 37.5465 25.8034 37.9021 26.7279 38.7554C27.9368 39.8932 29.0746 40.3199 30.7814 40.1066C33.7682 39.8221 34.0526 38.7554 31.6347 37.262C29.3591 35.9109 24.0966 31.3595 25.7323 32.1418C26.3012 32.4263 28.4346 33.9197 30.4969 35.4131C34.1237 38.0443 35.8305 38.5421 38.1061 37.6887C40.2395 36.9065 39.2439 34.9153 35.3327 32.1418C33.1992 30.5773 31.4214 29.2261 31.4214 29.0839C31.4214 28.3016 33.1281 29.2261 36.2572 31.7151C40.3107 34.9153 40.7373 35.0575 42.3019 33.2796C44.2931 31.0751 43.7241 29.8661 38.7461 26.1682C36.0438 24.177 32.4881 21.1191 30.7102 19.3413C29.0035 17.5634 27.0123 16.07 26.3723 16.07C25.7323 16.07 24.0255 16.9945 22.5321 18.2034C18.7631 21.1902 12.9317 21.1191 12.9317 18.0612C12.9317 15.9278 17.2697 10.3098 19.6875 9.24304L21.821 8.31855L19.6875 8.24744C18.5497 8.24744 16.6296 8.74524 15.4207 9.38527Z" fill="#C5AE5B"/>
<path d="M2.33572 18.7012C1.48235 22.9681 0.557862 27.0927 0.34452 28.0172C-0.011051 29.5106 0.202292 29.6528 1.98015 29.4395C3.97134 29.2261 4.04246 29.0128 5.60697 21.7591C7.66928 11.9454 7.66928 11.092 5.60697 11.092C4.04246 11.092 3.82911 11.6609 2.33572 18.7012Z" fill="#C5AE5B"/>
<path d="M42.7998 11.9453C42.7998 12.4431 43.5109 16.6389 44.3643 21.1902L45.9999 29.5816H47.9911C49.769 29.5816 49.9823 29.3683 49.6979 27.946C49.4845 27.0927 48.56 22.968 47.7067 18.7012C46.2133 11.6609 45.9999 11.092 44.4354 11.092C43.5109 11.092 42.7998 11.5186 42.7998 11.9453Z" fill="#C5AE5B"/>
<path d="M8.80713 30.0083C7.10039 31.1462 6.6737 33.1374 8.1671 33.1374C9.58938 33.1374 12.2206 31.0039 12.2206 29.8661C12.2206 28.5861 10.7983 28.5861 8.80713 30.0083Z" fill="#C5AE5B"/>
<path d="M11.3671 32.4973C7.59809 35.3419 9.80263 37.9731 13.6428 35.2708C15.9896 33.5641 16.5585 31.0039 14.5673 31.0039C13.8561 31.0039 12.4339 31.7151 11.3671 32.4973Z" fill="#C5AE5B"/>
<path d="M14.3541 35.8397C11.794 37.9731 11.7229 40.2488 14.2119 40.2488C15.6342 40.2488 20.0432 36.0531 20.0432 34.7019C20.0432 33.1374 16.8431 33.7774 14.3541 35.8397Z" fill="#C5AE5B"/>
<path d="M17.5543 39.5377C15.7764 41.3866 15.6342 41.8133 16.4875 42.3822C17.9809 43.3067 18.1943 43.3067 20.3277 41.6C22.4611 39.8932 22.8167 37.4042 20.8966 37.4042C20.1855 37.4042 18.6921 38.3998 17.5543 39.5377Z" fill="#C5AE5B"/>
</svg>
