<svg width="50" height="50" viewBox="0 0 50 50" fill="none" xmlns="http://www.w3.org/2000/svg">
<circle cx="25" cy="25" r="23.5" stroke="#C5AE5B" stroke-width="3"/>
<path d="M23.8583 8.03967C20.4153 8.47253 17.9846 10.5836 17.1589 13.8667C16.6195 16.0043 16.7527 18.2819 17.5651 20.7259C18.1644 22.5173 19.17 24.3153 20.3088 25.6339C20.6884 26.0601 20.8415 26.2998 20.9148 26.5595C21.0413 26.9658 21.0546 27.7383 20.9481 28.1178L20.8748 28.3842L21.2944 28.7771C21.8538 29.2899 22.4731 29.6495 23.2323 29.9026C23.8116 30.0957 23.9115 30.109 24.8505 30.1157C25.7162 30.1157 25.916 30.0957 26.3489 29.9625C26.9949 29.7561 27.6142 29.4431 28.127 29.0502C28.7796 28.564 28.8062 28.5108 28.7663 27.8781C28.7396 27.4985 28.7596 27.1789 28.8462 26.7726C28.9594 26.2465 28.9927 26.1733 29.3323 25.7937C31.3834 23.5095 32.702 20.2864 32.9084 17.0632C32.9883 15.8512 32.7619 14.1797 32.3757 13.1008C31.4234 10.4704 29.4122 8.73225 26.6819 8.17286C25.9094 8.01303 24.5508 7.9531 23.8583 8.03967Z" fill="#C5AE5B"/>
<path d="M18.3909 29.9758C15.4474 31.1878 13.0767 32.5996 11.6049 34.0114C10.9323 34.6574 10.5261 35.1902 10.2198 35.8494L10 36.3089V37.6075V38.9061L10.1931 39.3057C11.2187 41.4034 14.8947 42.5954 21.3876 42.9351C23.0125 43.0216 26.8217 43.0216 28.4466 42.9351C34.9329 42.5954 38.549 41.4101 39.5545 39.2924L39.7676 38.8395V37.5676V36.2956L39.4547 35.6696C38.7488 34.2578 37.2237 32.9393 34.7065 31.5608C33.4745 30.8815 30.3912 29.543 30.2979 29.6429C30.2846 29.6562 30.1581 30.1556 30.0116 30.755C29.2724 33.9115 28.1802 37.3079 27.3412 39.1059C27.188 39.4389 27.1214 39.5321 27.1014 39.4389C26.9149 38.5132 26.0093 35.8095 25.5231 34.7107C25.3566 34.3377 25.35 34.3045 25.4565 34.2445C26.3689 33.7118 26.7551 33.2789 26.8017 32.7195C26.855 32.0402 26.3489 31.4209 25.3433 30.9481L24.9038 30.7483L24.5442 30.8615C24.0581 31.0214 23.4321 31.4542 23.1923 31.8005C22.9393 32.1601 22.8727 32.7994 23.0458 33.1391C23.199 33.4254 23.6319 33.8383 24.0514 34.0913L24.3977 34.2978L24.1113 34.997C23.7384 35.8761 23.1657 37.5543 22.886 38.5398C22.7728 38.9594 22.6596 39.3523 22.6396 39.4056C22.6063 39.5188 22.3599 39.0193 21.8738 37.8073C21.2145 36.1624 20.4953 33.8383 19.816 31.1545C19.6029 30.2955 19.4164 29.5896 19.4098 29.5829C19.3965 29.5763 18.9436 29.7494 18.3909 29.9758Z" fill="#C5AE5B"/>
</svg>
