<svg width="50" height="50" viewBox="0 0 50 50" fill="none" xmlns="http://www.w3.org/2000/svg">
<circle cx="25" cy="25" r="23.5" stroke="#C5AE5B" stroke-width="3"/>
<path d="M25.2796 8.0421C23.8225 9.46683 23.8549 11.2154 25.3768 12.7372C26.8015 14.1619 28.5824 14.2591 30.0719 12.9963C30.9462 12.2515 31.0757 11.9601 31.0757 10.4382C31.0757 8.91636 30.9462 8.62494 30.0719 7.8802C28.6148 6.64975 26.6072 6.71451 25.2796 8.0421Z" fill="#C5AE5B"/>
<path d="M19.1922 9.2078C18.8036 9.27256 18.1236 9.72588 17.6703 10.1792C16.4722 11.3773 16.4722 13.7086 17.6703 14.9067C18.7065 15.9429 20.0664 16.2667 21.5235 15.781C23.013 15.2953 23.6283 14.3562 23.6283 12.543C23.6283 11.3125 23.4664 10.8916 22.754 10.2116C21.815 9.33732 20.455 8.94876 19.1922 9.2078Z" fill="#C5AE5B"/>
<path d="M27.2548 15.101C26.672 15.2629 25.6034 15.8457 24.8911 16.4286C23.6606 17.4 23.5311 17.4323 22.5597 17.0438C22.0093 16.8171 20.5845 16.6228 19.3865 16.6228C17.6703 16.6552 16.9256 16.8495 15.5656 17.5942C12.3923 19.3104 11 21.9332 11 26.175C11 30.4168 12.619 33.9786 15.9218 36.99C21.7178 42.2679 30.7195 38.2852 30.7519 30.4492C30.7519 28.9597 30.1043 26.1426 29.7481 26.1426C29.6186 26.1426 29.3595 26.5959 29.1329 27.114C28.5824 28.4416 26.8015 29.9311 25.2473 30.352C22.9159 30.9672 20.0988 29.672 18.9331 27.4054C18.3827 26.3369 18.2855 23.7789 18.8036 22.8722C19.4188 21.7065 18.9008 21.4799 18.1236 22.5808C17.1522 23.9731 17.0227 27.0492 17.9294 28.7006C20.0988 32.8129 25.6682 33.4929 28.5824 30.0282L29.4567 28.9921V30.0606C29.4567 31.8091 28.7443 33.5577 27.4167 35.0795C25.8301 36.8604 24.4378 37.4757 21.8797 37.4757C20.2931 37.4757 19.5807 37.2814 18.2208 36.5043C15.2418 34.7881 13.0399 30.9996 12.4571 26.5959C11.7124 21.1884 16.4399 16.5581 21.4912 17.6914C22.3978 17.8857 23.5959 18.339 24.114 18.6952C25.2149 19.4075 25.5711 19.5047 25.5711 19.019C25.5711 18.8247 25.2149 18.5009 24.7616 18.3066C24.3082 18.1123 23.9521 17.8533 23.9521 17.6914C23.9521 17.1085 26.9634 16.1048 28.7767 16.1048C32.0795 16.1048 34.767 17.7885 35.8356 20.5732C36.5156 22.3541 36.5803 27.3083 35.9327 29.7044C35.2851 32.1653 33.6013 35.2414 31.7881 37.2166C29.91 39.2242 26.2187 41.3613 24.5673 41.3613C24.0492 41.3613 23.6283 41.5232 23.6283 41.7175C23.6283 42.3327 26.8663 41.8794 28.8091 40.9727C31.0757 39.9689 34.1518 37.1195 35.5442 34.7881C36.127 33.8167 37.0013 31.9387 37.4222 30.6111C38.1346 28.5387 38.2317 27.794 38.1346 24.6855C38.0698 22.0627 37.8755 20.7999 37.4546 19.9256C36.6775 18.3714 34.6375 16.3314 33.148 15.6191C31.7881 14.9715 28.8091 14.7124 27.2548 15.101Z" fill="#C5AE5B"/>
<path d="M22.074 25.0417C21.0702 25.754 21.135 27.2111 22.2035 28.053C22.6892 28.4416 23.2397 28.733 23.4664 28.733C23.693 28.733 24.2435 28.4416 24.7292 28.053C26.8987 26.3369 24.373 23.4227 22.074 25.0417Z" fill="#C5AE5B"/>
</svg>
