<svg width="50" height="50" viewBox="0 0 50 50" fill="none" xmlns="http://www.w3.org/2000/svg">
<circle cx="25" cy="25" r="23.5" stroke="#C5AE5B" stroke-width="3"/>
<path d="M13.4317 7.09271C12.8025 7.2295 12.2211 7.55781 11.7286 8.05028C10.3128 9.46613 10.3128 11.6275 11.7286 13.0434C13.6233 14.938 16.7354 14.1651 17.6177 11.5728C17.7956 11.0598 17.7956 10.0338 17.6177 9.52085C17.2894 8.57011 16.626 7.79721 15.7847 7.37998C15.0049 6.99695 14.273 6.90803 13.4317 7.09271Z" fill="#C5AE5B"/>
<path d="M24.6217 7.54415C23.4931 7.76302 22.4671 8.5496 21.9883 9.5619C21.3249 10.9641 21.6053 12.6193 22.6997 13.6932C24.1839 15.1569 26.3863 15.15 27.8569 13.6863C28.8213 12.7219 29.1701 11.2855 28.7392 9.98597C28.1784 8.29653 26.3521 7.209 24.6217 7.54415Z" fill="#C5AE5B"/>
<path d="M13.0897 14.4113C12.823 14.4592 12.3373 14.6234 12.009 14.7807C9.60824 15.9024 8.06928 18.31 7.61785 21.6547C7.39898 23.2552 7.50157 26.4358 7.78885 26.9282C7.85041 27.0377 8.01456 27.2018 8.14452 27.2907C8.33603 27.4275 8.44547 27.4481 8.75326 27.4275C9.17049 27.4002 9.42357 27.2565 9.61508 26.9351C9.71084 26.7709 9.7382 26.5178 9.75188 25.3961C9.78608 23.5562 9.92971 22.4687 10.3059 21.2238C10.4701 20.6835 10.8599 19.7396 10.901 19.7943C10.9147 19.8011 10.7437 21.2785 10.5248 23.0637C10.3059 24.8489 10.1281 26.4631 10.1281 26.6546C10.1212 27.195 10.3059 27.9132 10.5727 28.433L10.8121 28.9118L11.0788 34.3494C11.3866 40.7515 11.3866 40.7173 11.4892 40.9294C11.7286 41.3876 12.1185 41.6202 12.6383 41.6202C12.9324 41.6202 13.0555 41.5791 13.2812 41.4218C13.8284 41.0388 13.8011 41.1893 13.9926 36.7639C14.1909 32.2086 14.232 31.7298 14.3004 33.2551C14.6355 40.8062 14.6355 40.772 14.8476 41.0798C15.0664 41.4082 15.4768 41.627 15.8667 41.627C16.4549 41.627 17.0021 41.1551 17.0705 40.5942C17.091 40.4506 17.221 37.7625 17.3715 34.623L17.6314 28.9118L17.8776 28.392C18.1922 27.7148 18.2743 27.3318 18.2675 26.5862C18.2606 26.1143 17.816 22.1061 17.5424 20.0884L17.5014 19.8148L17.6177 20.02C17.7955 20.3278 18.117 21.2443 18.2675 21.8668C18.5 22.8312 18.6026 23.7409 18.6505 25.2661C18.6847 26.5384 18.7121 26.7846 18.8147 26.9624C19.2114 27.6054 20.1758 27.5985 20.593 26.9487L20.7366 26.723L20.6956 26.9282C20.6751 27.0377 20.381 28.4056 20.039 29.9583C19.7038 31.5109 19.4234 32.8584 19.4234 32.9541C19.4234 33.0499 19.4986 33.2004 19.5944 33.2893C19.7517 33.4534 19.7859 33.4603 20.8187 33.4603H21.8721L21.9131 33.9596C21.9336 34.2263 22.0157 35.8337 22.0909 37.53C22.1662 39.2194 22.2619 40.7584 22.2961 40.943C22.385 41.374 22.645 41.7159 23.0075 41.8801C23.4589 42.0853 23.965 42.0169 24.3344 41.7023C24.7585 41.3466 24.7585 41.3329 24.9705 37.4684C25.0799 35.5054 25.162 33.8023 25.1689 33.6791C25.1689 33.5355 25.2031 33.4603 25.2646 33.4603C25.3877 33.4603 25.4083 33.686 25.5792 37.4616C25.6545 39.1168 25.7434 40.6489 25.7844 40.8746C25.9281 41.7707 26.742 42.2358 27.5354 41.8801C27.809 41.757 28.1031 41.4355 28.2057 41.1551C28.2536 41.0388 28.6435 34.411 28.6572 33.6791V33.4603H29.6831C30.6886 33.4603 30.7228 33.4534 30.8801 33.2893C31.0032 33.173 31.0511 33.0499 31.0511 32.872C31.0511 32.7352 30.8664 31.7435 30.6339 30.6628C30.4082 29.5889 29.9636 27.4891 29.6489 26.0049C29.3343 24.5206 29.047 23.1663 29.006 22.9953C28.965 22.8243 28.9376 22.4892 28.9376 22.2429V21.7984L29.1086 22.2429C29.4574 23.1526 29.7379 24.4932 29.9157 26.128C30.0251 27.0992 30.1209 27.3318 30.5039 27.5643C30.5997 27.6327 30.7844 27.7969 30.9143 27.9405C31.3726 28.4672 32.0429 28.6313 32.9321 28.433C33.2193 28.3714 33.5613 28.2757 33.6913 28.221C33.8144 28.1662 33.9307 28.1252 33.9444 28.1252C33.958 28.1252 33.9922 28.5629 34.0128 29.0965L34.0538 30.0746L33.4724 32.7352C33.1509 34.199 32.9047 35.4575 32.9252 35.5464C32.9799 35.7585 33.2399 35.8542 33.7528 35.8542C33.9991 35.8542 34.1974 35.861 34.1974 35.8679C34.2043 35.8816 34.259 37.0443 34.3342 38.4602C34.471 41.3124 34.4847 41.3534 34.9293 41.5655C35.155 41.6749 35.2097 41.6749 35.456 41.5928C35.9826 41.4082 35.9826 41.3945 36.1194 38.8843C36.1878 37.6462 36.2425 36.463 36.2494 36.2441C36.2494 36.032 36.2767 35.8542 36.3041 35.8542C36.3383 35.8542 36.3999 36.6955 36.4477 37.7146C36.6051 41.0388 36.6187 41.1688 36.8308 41.3945C37.0702 41.6475 37.4053 41.7091 37.7131 41.5655C38.1167 41.374 38.144 41.2372 38.2603 38.8637C38.3219 37.6804 38.3903 36.5177 38.4108 36.2783L38.4518 35.8542H38.9169C39.4573 35.8542 39.724 35.7585 39.7787 35.5464C39.7993 35.4712 39.553 34.2195 39.2316 32.7763C38.9032 31.3331 38.6433 29.9925 38.6433 29.801C38.6502 29.0623 38.9306 30.0267 39.1221 31.4425C39.2384 32.3112 39.2657 32.4138 39.4299 32.5574C39.8335 32.9062 40.4285 32.6737 40.5311 32.1197C40.5927 31.7913 40.4559 30.0609 40.3122 29.3632C39.9155 27.4549 38.8827 25.9707 37.4122 25.2388C37.0086 25.0336 36.9128 25.0131 36.352 25.0131C35.6133 25.0131 35.3465 25.1157 34.5599 25.7107C33.6092 26.4289 32.5354 27.0308 32.1934 27.0308C32.1318 27.0308 32.1181 26.8188 32.1386 26.1622C32.1934 24.1034 31.8103 21.7573 31.1469 20.02C30.3466 17.9544 28.9102 16.2855 27.255 15.4989C26.3521 15.068 25.8939 14.9722 25.0321 15.0132C24.2181 15.0474 23.753 15.1979 22.8091 15.7314C21.6737 16.3744 20.894 16.9421 20.1621 17.6466L19.7107 18.0912L19.5876 17.8586C18.9446 16.6001 17.816 15.492 16.5302 14.8559C15.47 14.3293 14.3346 14.1856 13.0897 14.4113ZM22.898 19.548C23.411 19.8011 23.7325 20.2936 23.7325 20.8203C23.7325 20.9981 23.7462 21.0118 23.8898 20.9639C23.9719 20.9365 24.225 20.9092 24.4507 20.9092C24.8269 20.9092 24.9979 20.9707 26.359 21.5863C27.1798 21.9625 27.9664 22.3524 28.11 22.455C28.623 22.8243 28.8213 23.6314 28.5546 24.2812C28.4178 24.6232 27.98 25.0199 27.638 25.1157C27.0909 25.2661 26.8515 25.2114 25.5519 24.6232C24.8679 24.3154 24.307 24.0623 24.3002 24.0555C24.2934 24.0555 24.3344 23.9119 24.396 23.734C24.5464 23.3305 24.4438 22.9338 24.1292 22.7149C23.9514 22.5849 23.8351 22.5644 23.4179 22.5713C22.9459 22.5849 22.9117 22.5781 22.9117 22.4413C22.9117 22.3319 22.8844 22.3113 22.7954 22.3524C22.5424 22.4618 21.9405 22.4618 21.6395 22.3455C21.2838 22.2087 20.8256 21.7231 20.764 21.4153C20.593 20.5535 20.9213 19.8353 21.6463 19.5002C22.0362 19.3155 22.474 19.336 22.898 19.548ZM21.2428 24.459C21.2291 24.5411 21.1128 25.0746 20.9897 25.6423C20.8666 26.2169 20.7572 26.6752 20.7435 26.6615C20.7298 26.6478 20.7503 26.3674 20.7845 26.0322C20.8256 25.6971 20.8734 25.1225 20.894 24.76L20.9418 24.0965L21.1128 24.206C21.2291 24.2812 21.2702 24.3565 21.2428 24.459Z" fill="#C5AE5B"/>
<path d="M35.5517 20.4304C34.3069 20.9023 33.7323 22.2908 34.2864 23.4946C34.6352 24.2539 35.4355 24.7737 36.2631 24.7737C38.2671 24.7737 39.2863 22.4345 37.9046 20.9913C37.4874 20.5535 37.0633 20.3757 36.3862 20.3483C35.9963 20.3346 35.7159 20.362 35.5517 20.4304Z" fill="#C5AE5B"/>
</svg>
