<svg width="30" height="30" viewBox="0 0 30 30" fill="none" xmlns="http://www.w3.org/2000/svg">
<path fill-rule="evenodd" clip-rule="evenodd" d="M7.95031 0.0156588C7.49708 0.0588201 6.7146 0.22569 6.22391 0.383865C4.71162 0.871309 3.55516 1.5963 2.45087 2.74911C1.24783 4.00513 0.51441 5.39685 0.135528 7.14281C0.000621073 7.76446 0 7.79923 0 14.9712C0 21.646 0.00819878 22.2161 0.111242 22.734C0.457702 24.4744 1.24764 26.0032 2.44478 27.2503C3.74199 28.6016 5.25596 29.4446 7.13118 29.8599L7.76398 30H15H22.236L22.8636 29.861C24.6234 29.471 26.0175 28.7383 27.2499 27.5556C28.6014 26.2586 29.4445 24.7448 29.8599 22.8699L30 22.2372V15.0333C30 8.3086 29.9925 7.79234 29.8868 7.27266C29.3125 4.4483 27.5566 2.13851 25.0311 0.885096C24.3666 0.555331 23.6937 0.322384 22.8882 0.143218C22.3083 0.0142305 22.1775 0.0118705 15.2484 0.00199614C11.3711 -0.0034689 8.08696 0.00267934 7.95031 0.0156588ZM22.764 1.5078C24.2745 1.88234 25.5209 2.5946 26.5568 3.67518C27.5626 4.72453 28.2031 5.92926 28.5178 7.36358C28.627 7.86152 28.6335 8.29332 28.6335 14.9712C28.6335 20.7565 28.6178 22.1304 28.5474 22.4856C27.9461 25.5208 25.6594 27.8557 22.6398 28.518C22.1417 28.6272 21.7099 28.6337 15.0311 28.6337C7.35795 28.6337 7.64932 28.6456 6.54373 28.2876C3.99441 27.4622 2.06857 25.3137 1.48224 22.6408C1.37304 22.1428 1.36646 21.7104 1.36646 15.0022C1.36646 8.29407 1.37304 7.86158 1.48224 7.36358C1.62727 6.70256 1.83919 6.10836 2.15789 5.46945C3.18348 3.41323 5.3195 1.82632 7.54658 1.46594C7.8028 1.42446 8.05435 1.38186 8.10559 1.37124C8.15683 1.36068 11.3571 1.35757 15.2174 1.36447C22.1259 1.3767 22.2443 1.37894 22.764 1.5078ZM22.6708 5.55509C22.1716 5.78406 21.835 6.28722 21.835 6.80466C21.835 7.75626 22.8765 8.44423 23.7267 8.05423C24.2176 7.8291 24.5612 7.32415 24.5639 6.82422C24.5689 5.85474 23.5325 5.15987 22.6708 5.55509ZM14.2547 7.51629C14.2034 7.52865 13.9519 7.57262 13.6957 7.6141C13.0423 7.7198 12.2287 7.99653 11.5679 8.33779C9.56453 9.37235 8.1141 11.2797 7.63348 13.5117C7.49155 14.1707 7.47441 15.6951 7.60168 16.3374C8.21385 19.4276 10.5739 21.7874 13.6646 22.3994C14.307 22.5267 15.8317 22.5096 16.4907 22.3676C19.1455 21.7962 21.314 19.8539 22.1381 17.3096C22.4117 16.4649 22.4845 15.9803 22.4845 15.0022C22.4845 14.4849 22.4478 13.9167 22.3983 13.667C21.7954 10.6237 19.5125 8.29773 16.4806 7.63752C16.0684 7.54778 14.483 7.46146 14.2547 7.51629ZM16.0012 8.94521C18.2542 9.33969 20.0858 10.899 20.8184 13.046C21.7781 15.8585 20.5396 18.9832 17.9013 20.406C15.5707 21.663 12.7439 21.2912 10.8157 19.4742C8.75969 17.5367 8.26745 14.5628 9.5954 12.1013C10.8418 9.79086 13.4609 8.50037 16.0012 8.94521Z" fill="#C5AE5B"/>
</svg>
