<svg width="25" height="30" viewBox="0 0 25 30" fill="none" xmlns="http://www.w3.org/2000/svg">
<path d="M9.18 0.0412306C9.16731 0.0761143 9.03412 0.0824568 8.50135 0.0697718C7.89882 0.0570868 7.83539 0.0602581 7.83539 0.107827C7.83539 0.149053 7.80051 0.158567 7.64512 0.158567C7.50241 0.158567 7.4485 0.171252 7.43581 0.206135C7.41996 0.241019 7.3597 0.253704 7.18528 0.253704C7.05526 0.253704 6.9411 0.266389 6.93159 0.285417C6.92207 0.301273 6.83328 0.317129 6.73814 0.317129C6.61446 0.317129 6.56055 0.329814 6.54786 0.364698C6.53518 0.39641 6.48127 0.412267 6.37979 0.412267C6.29734 0.412267 6.2022 0.434465 6.16731 0.459835C6.1356 0.485205 6.06901 0.507404 6.02461 0.507404C5.97704 0.507404 5.93264 0.529603 5.91996 0.554973C5.90727 0.586685 5.85653 0.602541 5.75822 0.602541C5.65357 0.602541 5.61552 0.615226 5.61552 0.65011C5.61552 0.684994 5.57746 0.697679 5.47281 0.697679C5.36816 0.697679 5.33011 0.710364 5.33011 0.745247C5.33011 0.77696 5.29839 0.792816 5.23497 0.792816C5.17789 0.792816 5.13032 0.811844 5.1208 0.840385C5.10812 0.868926 5.06055 0.887954 5.00981 0.887954C4.94956 0.887954 4.91784 0.90381 4.91784 0.935522C4.91784 0.967235 4.88613 0.983091 4.82271 0.983091C4.76562 0.983091 4.71805 1.00212 4.70854 1.03066C4.69586 1.05603 4.65463 1.07823 4.6134 1.07823C4.56901 1.07823 4.52778 1.10043 4.51827 1.1258C4.50558 1.15117 4.48021 1.17337 4.45484 1.17337C4.42947 1.17337 4.41044 1.19556 4.41044 1.22093C4.41044 1.25265 4.37873 1.2685 4.31531 1.2685C4.26457 1.2685 4.21066 1.28753 4.19797 1.30973C4.18529 1.33193 4.11235 1.37633 4.03941 1.41121C3.9633 1.44609 3.90304 1.49366 3.90304 1.51269C3.90304 1.53489 3.88085 1.55392 3.85548 1.55392C3.82693 1.55392 3.79839 1.57294 3.78888 1.59831C3.77937 1.62368 3.72863 1.6554 3.67789 1.66491C3.62715 1.67759 3.58592 1.70614 3.58592 1.73151C3.58592 1.76005 3.57006 1.76956 3.55104 1.76005C3.53201 1.74736 3.50981 1.76639 3.5003 1.80444C3.49078 1.8425 3.46224 1.87104 3.44004 1.87104C3.41467 1.87104 3.38613 1.89324 3.37662 1.91861C3.36393 1.94398 3.33856 1.96618 3.31319 1.96618C3.28782 1.96618 3.26879 1.98838 3.26879 2.01375C3.26879 2.03912 3.2466 2.06132 3.22123 2.06132C3.19586 2.06132 3.17366 2.08351 3.17366 2.10888C3.17366 2.1406 3.14194 2.15645 3.07852 2.15645C3.01509 2.15645 2.98338 2.17231 2.98338 2.20402C2.98338 2.22939 2.96753 2.25159 2.95167 2.25159C2.90093 2.25159 2.76457 2.41967 2.7614 2.47992C2.7614 2.51163 2.7392 2.537 2.71383 2.537C2.68846 2.537 2.66626 2.5592 2.66626 2.58457C2.66626 2.60994 2.64406 2.63214 2.61869 2.63214C2.59332 2.63214 2.57112 2.65434 2.57112 2.67971C2.57112 2.70508 2.55209 2.72728 2.53307 2.72728C2.48233 2.72728 2.34913 2.86681 2.34913 2.91438C2.34913 2.93341 2.32693 2.94926 2.30156 2.94926C2.26985 2.94926 2.254 2.98098 2.254 3.0444C2.254 3.10783 2.23814 3.13954 2.20643 3.13954C2.18106 3.13954 2.15886 3.16174 2.15886 3.18711C2.15886 3.21248 2.13032 3.23468 2.09543 3.23468C2.06055 3.23468 2.03201 3.25688 2.03201 3.28225C2.03201 3.30762 2.00981 3.32981 1.98444 3.32981C1.95273 3.32981 1.93687 3.36153 1.93687 3.42495C1.93687 3.48838 1.92101 3.52009 1.8893 3.52009C1.86393 3.52009 1.84173 3.54229 1.84173 3.56766C1.84173 3.59303 1.81953 3.61523 1.79416 3.61523C1.76879 3.61523 1.7466 3.64377 1.7466 3.67548C1.7466 3.77062 1.71171 3.83721 1.66414 3.83721C1.63877 3.83721 1.61975 3.85624 1.61975 3.88161C1.61975 3.90698 1.59755 3.93235 1.57218 3.94504C1.54681 3.95455 1.52461 3.99895 1.52461 4.04334C1.52461 4.09408 1.50558 4.12263 1.47704 4.12263C1.44533 4.12263 1.42947 4.15434 1.42947 4.21459C1.42947 4.27802 1.41044 4.30973 1.36605 4.32241C1.32482 4.33193 1.30262 4.36681 1.30262 4.41755C1.30262 4.46195 1.28042 4.50318 1.25505 4.51586C1.22651 4.52537 1.20748 4.57294 1.20748 4.63003C1.20748 4.69345 1.19163 4.72516 1.15992 4.72516C1.1282 4.72516 1.11235 4.75688 1.11235 4.8203C1.11235 4.88055 1.09649 4.91544 1.06795 4.91544C1.04258 4.91544 1.01404 4.95666 1.00135 5.0074C0.991839 5.05814 0.960126 5.10888 0.934756 5.1184C0.906215 5.12791 0.890359 5.18182 0.890359 5.2611C0.890359 5.34038 0.874503 5.39112 0.84279 5.40381C0.814249 5.41332 0.795222 5.46089 0.795222 5.5148C0.795222 5.56554 0.776194 5.61311 0.747653 5.6258C0.722283 5.63531 0.69057 5.69874 0.681057 5.7685C0.671543 5.83827 0.63983 5.9017 0.617632 5.91121C0.585919 5.92389 0.573234 5.98732 0.573234 6.12051C0.573234 6.26005 0.560549 6.31079 0.528837 6.31079C0.500296 6.31079 0.481268 6.37421 0.465412 6.5074C0.452727 6.63108 0.427357 6.71353 0.398816 6.73256C0.363932 6.75159 0.351247 6.81501 0.351247 6.96723C0.351247 7.11311 0.338562 7.18605 0.303678 7.21142C0.271966 7.23679 0.252938 7.34461 0.237082 7.56977C0.224397 7.7759 0.202198 7.89958 0.176828 7.90909C0.151458 7.91861 0.132431 8.10254 0.116575 8.537C0.0975471 9.01269 0.0848621 9.1554 0.0468072 9.18394C-0.0134465 9.2315 -0.0166178 9.7611 0.0436359 9.7833C0.0721772 9.79599 0.0785197 9.98943 0.0721772 10.6395C0.0626634 11.3277 0.0658347 11.4799 0.10389 11.4799C0.135602 11.4799 0.141945 11.5687 0.135602 11.9397C0.126088 12.3425 0.132431 12.3996 0.173657 12.3996C0.214883 12.3996 0.224397 12.4471 0.224397 12.7008C0.224397 12.9609 0.23074 13.0021 0.275137 13.0021C0.322706 13.0021 0.325877 13.0338 0.310021 13.2875C0.290993 13.5254 0.297336 13.5793 0.335391 13.592C0.370274 13.6078 0.382959 13.6649 0.382959 13.8266C0.382959 13.9789 0.395644 14.0518 0.430528 14.0803C0.462241 14.1057 0.478097 14.1787 0.478097 14.3087C0.478097 14.445 0.490782 14.4989 0.525666 14.5116C0.560549 14.5275 0.573234 14.5814 0.573234 14.7178C0.573234 14.8573 0.585919 14.9112 0.620803 14.9239C0.655687 14.9397 0.668372 14.9968 0.668372 15.1617C0.668372 15.3298 0.681057 15.3869 0.71594 15.3996C0.750824 15.4154 0.763509 15.4693 0.763509 15.5994C0.763509 15.8467 0.84279 15.9197 1.13137 15.945C1.26457 15.9545 1.34702 15.9767 1.35653 16.0021C1.36922 16.037 1.4485 16.0465 1.67049 16.0465C1.90199 16.0465 1.96858 16.056 1.96858 16.0909C1.96858 16.148 2.10812 16.1734 2.40304 16.1734C2.57112 16.1734 2.64089 16.186 2.65357 16.2178C2.66626 16.2463 2.75822 16.2685 2.95801 16.2844C3.13877 16.297 3.26562 16.3224 3.29099 16.351C3.32271 16.3827 3.41784 16.3954 3.6208 16.3954C3.86182 16.3954 3.91256 16.4049 3.96647 16.4588C4.02038 16.5127 4.07112 16.5222 4.28042 16.5222C4.45167 16.5222 4.54046 16.5349 4.56583 16.5634C4.58803 16.592 4.70854 16.6142 4.90516 16.6269C5.11129 16.6427 5.2318 16.6649 5.26668 16.6966C5.30474 16.7315 5.39353 16.7442 5.61552 16.7442C5.85336 16.7442 5.91679 16.7537 5.9485 16.7981C5.97704 16.8362 6.05315 16.852 6.25294 16.8647C6.39882 16.871 6.54152 16.8964 6.56689 16.9186C6.59226 16.9408 6.74448 16.9662 6.90939 16.9757C7.11235 16.9884 7.217 17.0074 7.25188 17.0423C7.28994 17.0803 7.37239 17.093 7.61657 17.093C7.86393 17.093 7.93053 17.1025 7.93053 17.1374C7.93053 17.1977 8.03201 17.2199 8.29839 17.2199C8.47281 17.2199 8.52989 17.2326 8.54575 17.2674C8.55843 17.3055 8.61869 17.315 8.80896 17.315C9.00241 17.315 9.07852 17.3277 9.15146 17.3784C9.22757 17.4292 9.30051 17.4419 9.52884 17.4419C9.74765 17.4419 9.81742 17.4514 9.84596 17.4926C9.8745 17.5307 9.9633 17.5465 10.2075 17.5592C10.4231 17.5719 10.5436 17.5909 10.5658 17.6195C10.6166 17.6829 10.8988 17.6797 10.9242 17.6163C10.9337 17.5909 10.9622 17.5687 10.9908 17.5687C11.0605 17.5687 11.0605 17.0233 10.9908 16.9535C10.9654 16.9281 10.9432 16.8806 10.9432 16.8488C10.9432 16.7886 10.8417 16.6808 10.7847 16.6808C10.7656 16.6808 10.7529 16.6173 10.7529 16.5381C10.7529 16.4397 10.7371 16.389 10.7054 16.3763C10.6768 16.3636 10.6578 16.3161 10.6578 16.2653C10.6578 16.2051 10.6419 16.1734 10.6102 16.1734C10.5785 16.1734 10.5627 16.1385 10.5627 16.0624C10.5627 15.9863 10.5468 15.9514 10.5151 15.9514C10.4802 15.9514 10.4675 15.9133 10.4675 15.8087C10.4675 15.704 10.4548 15.666 10.42 15.666C10.3882 15.666 10.3724 15.6343 10.3724 15.5708C10.3724 15.5137 10.3534 15.4662 10.3248 15.4567C10.2931 15.444 10.2773 15.3932 10.2773 15.2981C10.2773 15.1966 10.2646 15.1586 10.2297 15.1586C10.198 15.1586 10.1821 15.1269 10.1821 15.0666C10.1821 15.0159 10.1631 14.9683 10.1345 14.9556C10.1028 14.9461 10.087 14.8954 10.087 14.8097C10.087 14.7241 10.0711 14.6734 10.0394 14.6639C10.0109 14.6512 9.99184 14.6036 9.99184 14.5529C9.99184 14.4926 9.97598 14.4609 9.94427 14.4609C9.90939 14.4609 9.8967 14.4228 9.8967 14.3023C9.8967 14.1818 9.88402 14.1438 9.84913 14.1438C9.81425 14.1438 9.80156 14.1089 9.80156 14.0169C9.80156 13.9313 9.78571 13.8806 9.754 13.871C9.72545 13.8584 9.70643 13.8108 9.70643 13.7442C9.70643 13.6681 9.69057 13.6364 9.65886 13.6364C9.6208 13.6364 9.61129 13.5951 9.61129 13.4461C9.61129 13.3002 9.60178 13.2558 9.56372 13.2558C9.52884 13.2558 9.52249 13.2304 9.53835 13.1575C9.55421 13.0814 9.54469 13.0592 9.49712 13.0465C9.44638 13.0338 9.43687 13.0053 9.44638 12.8626C9.4559 12.7421 9.44321 12.685 9.40833 12.6565C9.37662 12.6279 9.35759 12.5613 9.35759 12.4757C9.35759 12.3742 9.3449 12.3362 9.31002 12.3362C9.27514 12.3362 9.26245 12.2949 9.26245 12.1649C9.26245 12.0539 9.2466 11.981 9.21488 11.9556C9.18634 11.9302 9.16731 11.8605 9.16731 11.7748C9.16731 11.6797 9.15146 11.6321 9.11975 11.6195C9.08486 11.6036 9.07218 11.5497 9.07218 11.4133C9.07218 11.2674 9.06266 11.2262 9.02461 11.2262C8.98655 11.2262 8.97704 11.1755 8.97704 10.9725C8.97704 10.7696 8.96753 10.7188 8.92947 10.7188C8.89142 10.7188 8.8819 10.6744 8.8819 10.5127C8.8819 10.3478 8.87239 10.3066 8.83433 10.3066C8.78994 10.3066 8.78676 10.2653 8.80579 10.0211C8.82482 9.78647 8.81848 9.72305 8.77408 9.65962C8.73285 9.5962 8.72334 9.49789 8.72334 9.19662C8.72334 8.86364 8.717 8.81607 8.66943 8.81607C8.62503 8.81607 8.62186 8.77485 8.63772 8.42918C8.6504 8.21988 8.65991 7.84884 8.65991 7.60466C8.65991 7.25582 8.66943 7.16702 8.70431 7.16702C8.75822 7.16702 8.78676 7.02749 8.78676 6.7389C8.78676 6.56131 8.79945 6.50423 8.83433 6.48838C8.86922 6.47569 8.8819 6.42178 8.8819 6.28225C8.8819 6.12368 8.89142 6.09514 8.94533 6.07929C8.99607 6.0666 9.00875 6.03489 9.00875 5.93341C9.00875 5.83827 9.02144 5.80339 9.05632 5.80339C9.08803 5.80339 9.10389 5.7685 9.10389 5.69239C9.10389 5.61628 9.11975 5.5814 9.15146 5.5814C9.18317 5.5814 9.19903 5.54969 9.19903 5.48626C9.19903 5.42284 9.21488 5.39112 9.2466 5.39112C9.27514 5.39112 9.30368 5.35307 9.31636 5.29599C9.32588 5.24208 9.35442 5.20085 9.37662 5.20085C9.40516 5.20085 9.42101 5.16597 9.42101 5.10571C9.42101 5.04229 9.43687 5.01057 9.46858 5.01057C9.49395 5.01057 9.51615 4.98838 9.51615 4.96301C9.51615 4.93764 9.53518 4.91544 9.56055 4.91544C9.58592 4.91544 9.61446 4.86787 9.62397 4.80444C9.63666 4.73785 9.6652 4.69345 9.69057 4.69345C9.71594 4.69345 9.73814 4.67125 9.73814 4.64588C9.73814 4.62051 9.76034 4.59831 9.78571 4.59831C9.81108 4.59831 9.83328 4.57611 9.83328 4.55074C9.83328 4.52537 9.85548 4.50318 9.88085 4.50318C9.90622 4.50318 9.92841 4.48098 9.92841 4.45561C9.92841 4.43024 9.94744 4.40804 9.97281 4.40804C9.99818 4.40804 10.0236 4.38584 10.0362 4.36047C10.0458 4.3351 10.0743 4.3129 10.1028 4.3129C10.1282 4.3129 10.1504 4.2907 10.1504 4.26533C10.1504 4.23362 10.1821 4.21776 10.2455 4.21776C10.309 4.21776 10.3407 4.20191 10.3407 4.17019C10.3407 4.14482 10.3629 4.12263 10.3882 4.12263C10.4136 4.12263 10.4358 4.10043 10.4358 4.07506C10.4358 4.04334 10.4675 4.02749 10.531 4.02749C10.588 4.02749 10.6356 4.00846 10.6451 3.97992C10.6578 3.95455 10.699 3.93235 10.7403 3.93235C10.7847 3.93235 10.8259 3.91015 10.8354 3.88478C10.8481 3.85941 10.8893 3.83721 10.9305 3.83721C10.9749 3.83721 11.0162 3.81501 11.0257 3.78964C11.0384 3.7611 11.0859 3.74208 11.1367 3.74208C11.1906 3.74208 11.2381 3.72305 11.2477 3.69451C11.2603 3.66597 11.3079 3.64694 11.3586 3.64694C11.4189 3.64694 11.4506 3.63108 11.4506 3.59937C11.4506 3.56449 11.4887 3.5518 11.5933 3.5518C11.6916 3.5518 11.7424 3.53595 11.7551 3.50423C11.7677 3.47252 11.8185 3.45666 11.9136 3.45666C12.0151 3.45666 12.0531 3.44398 12.0531 3.4091C12.0531 3.37104 12.0975 3.36153 12.2593 3.36153C12.421 3.36153 12.4654 3.35201 12.4654 3.31396C12.4654 3.2759 12.5193 3.26639 12.7508 3.26639C12.9506 3.26639 13.0426 3.2537 13.0521 3.22516C13.0648 3.19662 13.1726 3.18711 13.4485 3.18711C13.7371 3.18711 13.8386 3.17759 13.8576 3.14588C13.8798 3.10783 14.051 3.10466 14.8312 3.12368C15.6398 3.14588 15.7857 3.1554 15.8142 3.19979C15.846 3.24102 15.9474 3.25053 16.3787 3.26005C16.7688 3.26956 16.9052 3.28542 16.9052 3.31396C16.9052 3.36153 17.2033 3.39324 17.6599 3.39324C17.9104 3.39324 17.9834 3.40275 17.9834 3.43764C17.9834 3.49155 18.2466 3.52009 18.7667 3.52009C19.087 3.52009 19.1631 3.51058 19.1758 3.47252C19.1885 3.44081 19.2392 3.42495 19.3343 3.42495C19.4104 3.42495 19.4739 3.4091 19.4739 3.39324C19.4739 3.37421 19.5024 3.33299 19.5373 3.2981C19.6134 3.22199 19.6197 3.08246 19.5531 3.05709C19.5278 3.0444 19.5056 3.01903 19.5056 2.99366C19.5056 2.96829 19.4834 2.94926 19.458 2.94926C19.4326 2.94926 19.4104 2.93024 19.4104 2.90804C19.4104 2.86047 19.2709 2.72728 19.2233 2.72728C19.2043 2.72728 19.1885 2.70508 19.1885 2.67971C19.1885 2.648 19.1567 2.63214 19.0933 2.63214C19.0331 2.63214 18.9982 2.61628 18.9982 2.58774C18.9982 2.55603 18.9474 2.53383 18.8555 2.51797C18.7667 2.50529 18.7128 2.48309 18.7128 2.45455C18.7128 2.42601 18.6779 2.41015 18.6208 2.41015C18.5701 2.41015 18.5225 2.39112 18.5098 2.36258C18.5003 2.33404 18.4527 2.31501 18.3956 2.31501C18.3354 2.31501 18.3005 2.29916 18.3005 2.27062C18.3005 2.2389 18.2498 2.21671 18.1578 2.20085C18.069 2.18816 18.0151 2.16597 18.0151 2.13742C18.0151 2.10888 17.9802 2.09303 17.9231 2.09303C17.8724 2.09303 17.8248 2.074 17.8121 2.04546C17.8026 2.01692 17.7551 1.99789 17.698 1.99789C17.6377 1.99789 17.6028 1.98203 17.6028 1.95349C17.6028 1.92178 17.5521 1.89958 17.4601 1.88373C17.3713 1.87104 17.3174 1.84884 17.3174 1.8203C17.3174 1.79176 17.2825 1.7759 17.2255 1.7759C17.1747 1.7759 17.1271 1.75688 17.1145 1.72833C17.1018 1.69662 17.051 1.68077 16.9527 1.68077C16.8512 1.68077 16.81 1.66808 16.81 1.63637C16.81 1.59197 16.7181 1.55392 16.5975 1.55392C16.5531 1.55392 16.5246 1.53489 16.5246 1.50635C16.5246 1.47463 16.4929 1.45878 16.4168 1.45878C16.3502 1.45878 16.3026 1.43975 16.2899 1.41121C16.2804 1.3795 16.2297 1.36364 16.1472 1.36364C15.9918 1.36364 15.9221 1.33827 15.9221 1.28119C15.9221 1.24948 15.8808 1.23679 15.7794 1.23679C15.6747 1.23679 15.6367 1.22411 15.6367 1.18922C15.6367 1.15434 15.5986 1.14165 15.4781 1.14165C15.3639 1.14165 15.3195 1.12897 15.3195 1.09726C15.3195 1.06871 15.2688 1.04334 15.1863 1.03066C15.1134 1.01797 15.0341 0.986262 15.0088 0.964064C14.9834 0.935522 14.8978 0.919666 14.7931 0.919666C14.6694 0.919666 14.6219 0.906981 14.6219 0.875269C14.6219 0.846727 14.5679 0.8277 14.4443 0.818186C14.3206 0.808672 14.2572 0.786474 14.235 0.75159C14.2128 0.710364 14.162 0.697679 14.0193 0.697679C13.8703 0.697679 13.829 0.688165 13.829 0.65011C13.829 0.612055 13.7878 0.602541 13.6388 0.602541C13.4961 0.602541 13.4453 0.589856 13.4231 0.54863C13.3978 0.507404 13.3375 0.491548 13.1758 0.482034C13.0553 0.475691 12.9348 0.450321 12.9094 0.428123C12.884 0.405924 12.7477 0.380554 12.6081 0.367869C12.4337 0.355184 12.3481 0.332985 12.329 0.301273C12.31 0.263218 12.2276 0.253704 11.9263 0.253704C11.6219 0.253704 11.5458 0.24419 11.5458 0.209307C11.5458 0.139539 11.4411 0.126854 10.8734 0.126854C10.3819 0.126854 10.3343 0.120512 10.2773 0.0634293C10.2202 0.00634687 10.1726 4.3752e-06 9.70643 4.3752e-06C9.31002 4.3752e-06 9.19268 0.00951812 9.18 0.0412306Z" fill="#C5AE5B"/>
<path d="M12.7318 5.62895C12.7159 5.66383 12.662 5.67652 12.5256 5.67652C12.3861 5.67652 12.3322 5.6892 12.3195 5.72409C12.3036 5.75897 12.2529 5.77165 12.1292 5.77165C12.0055 5.77165 11.9516 5.78434 11.9389 5.81922C11.9263 5.84459 11.8882 5.86679 11.847 5.86679C11.8089 5.86679 11.7582 5.88899 11.736 5.91436C11.7138 5.93973 11.6757 5.96193 11.6535 5.96193C11.6282 5.96193 11.6091 5.98413 11.6091 6.0095C11.6091 6.04121 11.5774 6.05707 11.514 6.05707C11.4506 6.05707 11.4189 6.07292 11.4189 6.10463C11.4189 6.13 11.3967 6.1522 11.3713 6.1522C11.2984 6.1522 11.1049 6.26003 11.1017 6.30125C11.1017 6.32345 11.0795 6.34248 11.0542 6.34248C11.0288 6.34248 11.0066 6.36468 11.0066 6.39005C11.0066 6.41542 10.9844 6.43762 10.959 6.43762C10.9305 6.43762 10.9019 6.45981 10.8924 6.48518C10.8797 6.51055 10.8544 6.53275 10.829 6.53275C10.8036 6.53275 10.7846 6.55178 10.7846 6.57715C10.7846 6.60252 10.7624 6.62789 10.737 6.64058C10.7117 6.65009 10.6895 6.67863 10.6895 6.70717C10.6895 6.73254 10.6673 6.75474 10.6419 6.75474C10.6165 6.75474 10.5943 6.77694 10.5943 6.80231C10.5943 6.82768 10.5753 6.84988 10.5499 6.84988C10.5246 6.84988 10.496 6.8911 10.4833 6.94502C10.4707 6.99576 10.4421 7.04015 10.4167 7.04015C10.3914 7.04015 10.3723 7.06235 10.3723 7.08772C10.3723 7.11309 10.3501 7.13529 10.3248 7.13529C10.2931 7.13529 10.2772 7.167 10.2772 7.22726C10.2772 7.278 10.2582 7.32557 10.2296 7.33825C10.2011 7.34776 10.1821 7.39533 10.1821 7.44924C10.1821 7.57292 10.1535 7.64269 10.0996 7.64269C10.0679 7.64269 10.0552 7.68392 10.0552 7.77271C10.0552 7.85516 10.0362 7.91859 10.0077 7.94079C9.9696 7.96933 9.95691 8.11521 9.93789 8.74311C9.91886 9.44713 9.92203 9.51373 9.9696 9.51373C10.014 9.51373 10.0235 9.54861 10.0235 9.71986C10.0235 9.88159 10.033 9.92599 10.0711 9.92599C10.106 9.92599 10.1186 9.96404 10.1186 10.0687C10.1186 10.167 10.1345 10.2177 10.1662 10.2304C10.1948 10.2431 10.2138 10.2907 10.2138 10.3414C10.2138 10.4017 10.2296 10.4334 10.2614 10.4334C10.2931 10.4334 10.3089 10.4683 10.3089 10.5444C10.3089 10.6205 10.3248 10.6554 10.3565 10.6554C10.3914 10.6554 10.4041 10.6903 10.4041 10.7822C10.4041 10.8678 10.4199 10.9186 10.4516 10.9281C10.477 10.9408 10.4992 10.9662 10.4992 10.9915C10.4992 11.0169 10.5214 11.0359 10.5468 11.0359C10.5721 11.0359 10.5943 11.0645 10.5943 11.0993C10.5943 11.1342 10.6165 11.1628 10.6419 11.1628C10.6736 11.1628 10.6895 11.1945 10.6895 11.2579C10.6895 11.3213 10.7053 11.353 10.737 11.353C10.7624 11.353 10.7846 11.3752 10.7846 11.4006C10.7846 11.426 10.8068 11.4482 10.8322 11.4482C10.8639 11.4482 10.8797 11.4799 10.8797 11.5433C10.8797 11.6067 10.8956 11.6385 10.9273 11.6385C10.9527 11.6385 10.9749 11.667 10.9749 11.7019C10.9749 11.7368 10.9971 11.7653 11.0225 11.7653C11.0478 11.7653 11.07 11.7875 11.07 11.8129C11.07 11.8383 11.0922 11.8604 11.1176 11.8604C11.143 11.8604 11.1652 11.8826 11.1652 11.908C11.1652 11.9334 11.1874 11.9556 11.2127 11.9556C11.2381 11.9556 11.2603 11.9683 11.2603 11.9873C11.2603 12.0317 11.5933 12.3678 11.6345 12.3678C11.6567 12.3678 11.6726 12.39 11.6726 12.4154C11.6726 12.4408 11.6948 12.463 11.7201 12.463C11.7455 12.463 11.7677 12.482 11.7677 12.5074C11.7677 12.5328 11.8121 12.5613 11.8628 12.574C11.9167 12.5867 11.958 12.6152 11.958 12.6406C11.958 12.6659 11.9802 12.685 12.0055 12.685C12.0309 12.685 12.0531 12.7072 12.0531 12.7325C12.0531 12.7579 12.0753 12.7801 12.1007 12.7801C12.1292 12.7801 12.1578 12.8023 12.1673 12.8277C12.18 12.853 12.2053 12.8752 12.2307 12.8752C12.2561 12.8752 12.3005 12.9038 12.329 12.9387C12.3607 12.9736 12.4019 13.0021 12.4241 13.0021C12.4463 13.0021 12.4654 13.0243 12.4654 13.0497C12.4654 13.0814 12.4971 13.0972 12.5605 13.0972C12.6239 13.0972 12.6556 13.1131 12.6556 13.1448C12.6556 13.1765 12.6874 13.1924 12.7476 13.1924C12.811 13.1924 12.8427 13.2114 12.8554 13.2558C12.8649 13.3002 12.8998 13.3192 12.9537 13.3192C13.0045 13.3192 13.0362 13.3383 13.0362 13.3668C13.0362 13.3985 13.0679 13.4144 13.1282 13.4144C13.1789 13.4144 13.2265 13.4334 13.2392 13.4619C13.2487 13.4905 13.2962 13.5095 13.3533 13.5095C13.4136 13.5095 13.4485 13.5254 13.4485 13.5539C13.4485 13.5983 13.5404 13.6363 13.6641 13.6363C13.7053 13.6363 13.7339 13.6554 13.7339 13.6839C13.7339 13.7188 13.7719 13.7315 13.8924 13.7315C14.0066 13.7315 14.051 13.7442 14.051 13.7759C14.051 13.8044 14.1112 13.8266 14.2381 13.8393C14.3586 13.852 14.4315 13.8774 14.4442 13.9059C14.4569 13.944 14.5267 13.9535 14.7487 13.9535C14.9675 13.9535 15.0341 13.963 15.0341 13.9979C15.0341 14.0518 15.2592 14.0803 15.7254 14.0803C16.014 14.0803 16.0869 14.0708 16.0996 14.0328C16.1155 13.9947 16.1821 13.9852 16.4167 13.9852C16.6609 13.9852 16.7148 13.9757 16.7148 13.9376C16.7148 13.9027 16.7529 13.89 16.8734 13.89C16.9939 13.89 17.032 13.8774 17.032 13.8425C17.032 13.8076 17.07 13.7949 17.1747 13.7949C17.2825 13.7949 17.3174 13.7822 17.3174 13.7442C17.3174 13.7093 17.3396 13.6998 17.4157 13.7125C17.495 13.7251 17.5172 13.7156 17.5299 13.6649C17.5425 13.6237 17.5742 13.6046 17.6377 13.6046C17.6916 13.6046 17.7392 13.5856 17.7487 13.5571C17.7614 13.5317 17.7867 13.5095 17.8121 13.5095C17.8375 13.5095 17.8565 13.4873 17.8565 13.4619C17.8565 13.4302 17.8882 13.4144 17.9516 13.4144C18.0151 13.4144 18.0468 13.3985 18.0468 13.3668C18.0468 13.3414 18.069 13.3192 18.0943 13.3192C18.1197 13.3192 18.1419 13.297 18.1419 13.2717C18.1419 13.2399 18.1736 13.2241 18.237 13.2241C18.2941 13.2241 18.3417 13.2051 18.3512 13.1765C18.3639 13.1511 18.3893 13.1289 18.4146 13.1289C18.4432 13.1289 18.459 13.0941 18.459 13.0338C18.459 12.9704 18.4749 12.9387 18.5066 12.9387C18.532 12.9387 18.5542 12.9165 18.5542 12.8911C18.5542 12.8657 18.5764 12.8435 18.6017 12.8435C18.6303 12.8435 18.6588 12.8213 18.6683 12.796C18.681 12.7706 18.7064 12.7484 18.7318 12.7484C18.7571 12.7484 18.7762 12.7262 18.7762 12.7008C18.7762 12.6755 18.7984 12.6533 18.8237 12.6533C18.8554 12.6533 18.8713 12.6184 18.8713 12.5423C18.8713 12.4662 18.8871 12.4313 18.9189 12.4313C18.9506 12.4313 18.9664 12.3996 18.9664 12.3361C18.9664 12.2632 18.9791 12.241 19.0299 12.241C19.0806 12.241 19.0933 12.2188 19.0933 12.1459C19.0933 12.0824 19.1091 12.0507 19.1408 12.0507C19.1789 12.0507 19.1884 12.0063 19.1884 11.8446C19.1884 11.6924 19.2011 11.6385 19.2328 11.6385C19.2836 11.6385 19.3153 11.4799 19.3153 11.223C19.3153 11.093 19.3279 11.0391 19.3628 11.0232C19.3914 11.0137 19.4104 10.963 19.4104 10.8932C19.4104 10.8235 19.3914 10.7727 19.3628 10.7632C19.3248 10.7473 19.3153 10.6712 19.3153 10.3668C19.3153 10.0877 19.3058 9.98307 19.274 9.97039C19.2487 9.96087 19.2392 9.9133 19.2455 9.83402C19.255 9.75474 19.2423 9.69766 19.2074 9.66277C19.1789 9.6374 19.1567 9.58032 19.1567 9.5391C19.1567 9.49787 19.1345 9.43444 19.1091 9.39956C19.0838 9.36785 19.0616 9.30125 19.0616 9.25685C19.0616 9.20929 19.0394 9.16489 19.014 9.1522C18.9886 9.14269 18.9664 9.10781 18.9664 9.07292C18.9664 9.03804 18.9442 8.99047 18.9189 8.9651C18.8967 8.93973 18.8649 8.88265 18.8523 8.83508C18.8427 8.79068 18.8206 8.75263 18.8079 8.75263C18.7952 8.75263 18.7762 8.72409 18.7666 8.6892C18.7571 8.65432 18.7318 8.62578 18.7064 8.62578C18.681 8.62578 18.6588 8.59406 18.6588 8.55601C18.6556 8.51478 18.6303 8.46721 18.6017 8.44819C18.5764 8.42916 18.5542 8.39745 18.5542 8.37525C18.5542 8.35622 18.532 8.34036 18.5066 8.34036C18.4812 8.34036 18.459 8.31182 18.459 8.27694C18.459 8.24206 18.4368 8.21351 18.4115 8.21351C18.3861 8.21351 18.3639 8.19132 18.3639 8.16595C18.3639 8.14058 18.3417 8.11838 18.3163 8.11838C18.2846 8.11838 18.2688 8.08666 18.2688 8.02324C18.2688 7.95981 18.2529 7.9281 18.2212 7.9281C18.1958 7.9281 18.1736 7.9059 18.1736 7.88053C18.1736 7.85516 18.1514 7.83296 18.126 7.83296C18.1007 7.83296 18.0785 7.81077 18.0785 7.7854C18.0785 7.75685 18.0563 7.72831 18.0309 7.7188C18.0055 7.70611 17.9833 7.68074 17.9833 7.65537C17.9833 7.63 17.9611 7.61098 17.9358 7.61098C17.9104 7.61098 17.8882 7.58878 17.8882 7.56341C17.8882 7.53804 17.866 7.51584 17.8406 7.51584C17.8153 7.51584 17.7931 7.49364 17.7931 7.46827C17.7931 7.4429 17.7709 7.4207 17.7455 7.4207C17.7201 7.4207 17.6979 7.40485 17.6979 7.38899C17.6979 7.36996 17.6599 7.33825 17.6123 7.31605C17.5616 7.29702 17.5108 7.26214 17.4981 7.23994C17.4855 7.21774 17.4506 7.19872 17.4284 7.19872C17.403 7.19872 17.3808 7.17652 17.3808 7.15115C17.3808 7.12578 17.3586 7.10358 17.3332 7.10358C17.3079 7.10358 17.2857 7.08138 17.2857 7.05601C17.2857 7.03064 17.2635 7.00844 17.2381 7.00844C17.2127 7.00844 17.1905 6.98624 17.1905 6.96087C17.1905 6.93233 17.1525 6.90379 17.0954 6.8911C17.0447 6.88159 17.0003 6.85305 17.0003 6.83085C17.0003 6.80548 16.9812 6.78645 16.9559 6.78645C16.9305 6.78645 16.9051 6.76425 16.8924 6.73888C16.8829 6.71351 16.8385 6.69132 16.7941 6.69132C16.7466 6.69132 16.7148 6.67229 16.7148 6.64375C16.7148 6.61838 16.6704 6.58984 16.6038 6.57715C16.5404 6.56764 16.4929 6.5391 16.4929 6.51373C16.4929 6.48836 16.4738 6.46933 16.4485 6.46933C16.4231 6.46933 16.3977 6.44713 16.385 6.42176C16.3755 6.39639 16.3311 6.37419 16.2867 6.37419C16.236 6.37419 16.2074 6.35516 16.2074 6.32662C16.2074 6.29808 16.1789 6.27905 16.1282 6.27905C16.0838 6.27905 16.0203 6.25051 15.9855 6.21563C15.9474 6.17757 15.8808 6.1522 15.811 6.1522C15.7349 6.1522 15.7 6.13635 15.7 6.10463C15.7 6.07292 15.6683 6.05707 15.6049 6.05707C15.5415 6.05707 15.5098 6.04121 15.5098 6.0095C15.5098 5.97779 15.4781 5.96193 15.4083 5.96193C15.3512 5.96193 15.2624 5.93339 15.2085 5.8985C15.1482 5.85728 15.0595 5.83508 14.9643 5.83508C14.8565 5.83508 14.8121 5.82239 14.8121 5.79068C14.8121 5.75897 14.7518 5.74311 14.5742 5.7336C14.4062 5.72726 14.3269 5.70823 14.2984 5.67335C14.2381 5.59724 12.7571 5.55601 12.7318 5.62895Z" fill="#C5AE5B"/>
<path d="M20.013 6.51691C20.013 6.54228 19.9908 6.56448 19.9654 6.56448C19.9274 6.56448 19.9179 6.60571 19.9179 6.7389C19.9179 6.86575 19.9305 6.91966 19.9654 6.93234C20.0035 6.9482 20.013 7.00845 20.013 7.2019C20.013 7.40486 20.0225 7.45243 20.0606 7.45243C20.0923 7.45243 20.1081 7.48731 20.1081 7.56342C20.1081 7.63953 20.124 7.67442 20.1557 7.67442C20.1906 7.67442 20.2033 7.71247 20.2033 7.81712C20.2033 7.92177 20.216 7.95983 20.2508 7.95983C20.2826 7.95983 20.2984 7.99471 20.2984 8.07082C20.2984 8.14693 20.3143 8.18182 20.346 8.18182C20.3809 8.18182 20.3935 8.21987 20.3935 8.32452C20.3935 8.43552 20.4062 8.46723 20.4443 8.46723C20.4823 8.46723 20.4919 8.48626 20.4792 8.53382C20.457 8.62262 20.4823 8.68922 20.5426 8.68922C20.5775 8.68922 20.5838 8.71141 20.5711 8.77167C20.5458 8.86998 20.5743 8.97463 20.625 8.97463C20.6536 8.97463 20.6599 9.01903 20.6536 9.10465C20.6441 9.20296 20.6536 9.24418 20.6916 9.26638C20.7265 9.28541 20.7424 9.33932 20.7424 9.43446C20.7424 9.53911 20.7551 9.57717 20.79 9.57717C20.828 9.57717 20.8375 9.62156 20.8375 9.7833C20.8375 9.93869 20.847 9.98943 20.8819 9.98943C20.9168 9.98943 20.9295 10.0624 20.939 10.3224C20.9453 10.5603 20.9612 10.6649 20.9897 10.6839C21.0246 10.7061 21.0278 10.8203 21.0119 11.2928C20.9993 11.6131 20.9739 11.8858 20.958 11.8953C20.9422 11.9049 20.9168 12.0412 20.9009 12.1934C20.8819 12.3901 20.8565 12.482 20.8217 12.5011C20.79 12.5201 20.7741 12.5772 20.7741 12.6691C20.7741 12.7738 20.7614 12.8118 20.7265 12.8118C20.6916 12.8118 20.679 12.8499 20.679 12.9514C20.679 13.0624 20.6663 13.0941 20.6155 13.1068C20.5711 13.1163 20.5521 13.1512 20.5521 13.2051C20.5521 13.2558 20.5331 13.2875 20.5045 13.2875C20.4728 13.2875 20.457 13.3192 20.457 13.3827C20.457 13.4461 20.4411 13.4778 20.4094 13.4778C20.3777 13.4778 20.3618 13.5127 20.3618 13.5888C20.3618 13.6649 20.346 13.6998 20.3143 13.6998C20.2889 13.6998 20.2667 13.722 20.2667 13.7474C20.2667 13.7727 20.2477 13.7949 20.2223 13.7949C20.1969 13.7949 20.1684 13.8362 20.1557 13.8901C20.143 13.9408 20.1145 13.9852 20.0891 13.9852C20.0637 13.9852 20.0447 14.0137 20.0447 14.0486C20.0447 14.0835 20.0225 14.112 19.9971 14.112C19.9686 14.112 19.9496 14.1406 19.9496 14.1913C19.9496 14.2357 19.9337 14.2706 19.9147 14.2706C19.8449 14.2706 19.7276 14.4133 19.7276 14.4989C19.7276 14.556 19.7117 14.5877 19.68 14.5877C19.6546 14.5877 19.6324 14.6099 19.6324 14.6353C19.6324 14.6607 19.6102 14.6829 19.5849 14.6829C19.5595 14.6829 19.5373 14.7051 19.5373 14.7304C19.5373 14.7558 19.5088 14.778 19.4739 14.778C19.439 14.778 19.4105 14.8002 19.4105 14.8256C19.4105 14.8509 19.3883 14.8731 19.3629 14.8731C19.3375 14.8731 19.3153 14.8953 19.3153 14.9207C19.3153 14.9461 19.2931 14.9683 19.2678 14.9683C19.2424 14.9683 19.2202 14.9905 19.2202 15.0159C19.2202 15.0412 19.198 15.0634 19.1726 15.0634C19.1472 15.0634 19.125 15.0856 19.125 15.111C19.125 15.1364 19.106 15.1586 19.0806 15.1586C19.0553 15.1586 19.0299 15.1808 19.0172 15.2061C19.0077 15.2315 18.9792 15.2537 18.9506 15.2537C18.9253 15.2537 18.9031 15.2759 18.9031 15.3013C18.9031 15.3298 18.8745 15.3488 18.8238 15.3488C18.7794 15.3488 18.735 15.371 18.7255 15.3964C18.7128 15.4218 18.6874 15.444 18.662 15.444C18.6367 15.444 18.6176 15.4662 18.6176 15.4915C18.6176 15.5169 18.5986 15.5391 18.5764 15.5391C18.5542 15.5391 18.513 15.5677 18.4813 15.6025C18.4527 15.6374 18.3988 15.666 18.3639 15.666C18.3291 15.666 18.3005 15.6882 18.3005 15.7167C18.3005 15.7421 18.2847 15.7548 18.2656 15.7452C18.2466 15.7326 18.2244 15.7516 18.2149 15.7896C18.2022 15.8372 18.1737 15.8562 18.1071 15.8562C18.0468 15.8562 18.0151 15.8721 18.0151 15.9038C18.0151 15.9292 17.9866 15.9514 17.9517 15.9514C17.9168 15.9514 17.8883 15.9736 17.8883 15.9989C17.8883 16.0307 17.8565 16.0465 17.7931 16.0465C17.7297 16.0465 17.698 16.0624 17.698 16.0941C17.698 16.1194 17.679 16.1416 17.6536 16.1416C17.6282 16.1416 17.6028 16.1638 17.5902 16.1892C17.5806 16.2178 17.5331 16.2368 17.476 16.2368C17.4126 16.2368 17.3809 16.2526 17.3809 16.2844C17.3809 16.3161 17.3491 16.3319 17.2857 16.3319C17.2223 16.3319 17.1906 16.3478 17.1906 16.3795C17.1906 16.4112 17.1589 16.4271 17.0954 16.4271C17.0384 16.4271 16.9908 16.4461 16.9813 16.4746C16.9686 16.5032 16.921 16.5222 16.8703 16.5222C16.81 16.5222 16.7783 16.5381 16.7783 16.5698C16.7783 16.6015 16.7466 16.6173 16.6832 16.6173C16.6198 16.6173 16.588 16.6332 16.588 16.6649C16.588 16.6966 16.5532 16.7125 16.4771 16.7125C16.4009 16.7125 16.3661 16.7283 16.3661 16.76C16.3661 16.7949 16.328 16.8076 16.2234 16.8076C16.1187 16.8076 16.0806 16.8203 16.0806 16.8552C16.0806 16.8869 16.0458 16.9027 15.9697 16.9027C15.8935 16.9027 15.8587 16.9186 15.8587 16.9503C15.8587 16.9852 15.8206 16.9979 15.716 16.9979C15.6113 16.9979 15.5732 17.0106 15.5732 17.0455C15.5732 17.0803 15.5352 17.093 15.4305 17.093C15.3322 17.093 15.2815 17.1089 15.2688 17.1406C15.2561 17.1723 15.2054 17.1882 15.1102 17.1882C15.0056 17.1882 14.9707 17.2008 14.9707 17.2389C14.9707 17.2738 14.9422 17.2865 14.8692 17.2833C14.698 17.2738 14.6536 17.2801 14.6536 17.3245C14.6536 17.3499 14.6092 17.3594 14.5109 17.3531C14.4221 17.3436 14.3396 17.3562 14.2952 17.3879C14.2572 17.4133 14.1462 17.4387 14.0511 17.4482C13.9559 17.4577 13.8735 17.4831 13.8671 17.5021C13.8608 17.5243 13.7752 17.537 13.6515 17.537C13.4929 17.537 13.4485 17.5465 13.4485 17.5846C13.4485 17.6226 13.4009 17.6321 13.2107 17.6321C13.0267 17.6321 12.9665 17.6448 12.9538 17.6797C12.9379 17.7178 12.8713 17.7273 12.6367 17.7273C12.4083 17.7273 12.3386 17.7368 12.3386 17.7717C12.3386 17.8066 12.2656 17.8097 11.958 17.797C11.6219 17.7844 11.5775 17.7875 11.5585 17.8351C11.5394 17.8827 11.476 17.889 10.9527 17.8827C10.5215 17.8795 10.3597 17.889 10.3407 17.9175C10.3248 17.9429 10.2551 17.9493 10.0997 17.9334C9.97917 17.9239 9.59545 17.908 9.24661 17.8985C8.90094 17.889 8.60602 17.87 8.59651 17.8573C8.58699 17.8414 8.24767 17.8192 7.84492 17.8066C7.29946 17.7875 7.10602 17.7717 7.10602 17.7431C7.10602 17.7051 6.76035 17.6638 6.402 17.6638C6.28467 17.6638 6.21173 17.648 6.19587 17.6194C6.17684 17.5909 6.06268 17.5719 5.80581 17.5592C5.53308 17.5433 5.43794 17.5275 5.41574 17.4894C5.39672 17.4514 5.32695 17.4419 5.10813 17.4419C4.88615 17.4419 4.82272 17.4323 4.82272 17.3975C4.82272 17.3467 4.68636 17.315 4.47388 17.315C4.36923 17.315 4.31532 17.2992 4.30264 17.2674C4.28995 17.2326 4.2297 17.2199 4.04577 17.2199C3.865 17.2199 3.80792 17.2104 3.80792 17.1755C3.80792 17.1247 3.71278 17.093 3.55422 17.093C3.49397 17.093 3.41469 17.0708 3.38297 17.0455C3.34809 17.0201 3.25612 16.9979 3.18001 16.9979C3.08805 16.9979 3.02462 16.9789 3.00242 16.9503C2.98023 16.9186 2.88826 16.8932 2.7519 16.8805C2.61236 16.8679 2.52674 16.8457 2.51722 16.8171C2.50771 16.7886 2.44111 16.7759 2.31426 16.7759C2.17473 16.7759 2.12716 16.7632 2.12716 16.7315C2.12716 16.6998 2.06691 16.6808 1.93054 16.6649C1.81955 16.6522 1.72124 16.6268 1.70856 16.6078C1.69587 16.5888 1.59122 16.5666 1.47071 16.5603C1.33752 16.5507 1.24238 16.5285 1.22335 16.5C1.20433 16.4746 1.10285 16.4493 0.960141 16.4366L0.731812 16.4175V16.63C0.731812 16.7949 0.741325 16.8393 0.77938 16.8393C0.811093 16.8393 0.826949 16.871 0.826949 16.9345C0.826949 16.9979 0.842805 17.0296 0.874518 17.0296C0.909401 17.0296 0.922086 17.0677 0.922086 17.1882C0.922086 17.3087 0.934771 17.3467 0.969655 17.3467C1.00137 17.3467 1.01722 17.3784 1.01722 17.4419C1.01722 17.5053 1.03308 17.537 1.06479 17.537C1.09968 17.537 1.11236 17.5751 1.11236 17.6797C1.11236 17.778 1.12822 17.8288 1.15993 17.8414C1.18847 17.8541 1.2075 17.9017 1.2075 17.9524C1.2075 18.0127 1.22335 18.0444 1.25507 18.0444C1.28995 18.0444 1.30264 18.0825 1.30264 18.1871C1.30264 18.2854 1.31849 18.3362 1.3502 18.3488C1.37875 18.3615 1.39777 18.4091 1.39777 18.4598C1.39777 18.5201 1.41363 18.5518 1.44534 18.5518C1.48023 18.5518 1.49291 18.5899 1.49291 18.6945C1.49291 18.7992 1.5056 18.8372 1.54048 18.8372C1.57219 18.8372 1.58805 18.8721 1.58805 18.9482C1.58805 19.0243 1.6039 19.0592 1.63562 19.0592C1.6705 19.0592 1.68319 19.0973 1.68319 19.2019C1.68319 19.3066 1.69587 19.3446 1.73075 19.3446C1.76247 19.3446 1.77832 19.3795 1.77832 19.4556C1.77832 19.5317 1.79418 19.5666 1.82589 19.5666C1.86078 19.5666 1.87346 19.6047 1.87346 19.7093C1.87346 19.814 1.88615 19.852 1.92103 19.852C1.95274 19.852 1.9686 19.8869 1.9686 19.963C1.9686 20.0391 1.98445 20.074 2.01617 20.074C2.05105 20.074 2.06374 20.112 2.06374 20.2167C2.06374 20.3214 2.07642 20.3594 2.1113 20.3594C2.14302 20.3594 2.15887 20.3943 2.15887 20.4704C2.15887 20.5465 2.17473 20.5814 2.20644 20.5814C2.23815 20.5814 2.25401 20.6131 2.25401 20.6765C2.25401 20.7431 2.26987 20.7717 2.30475 20.7717C2.33963 20.7717 2.35232 20.8002 2.34598 20.8731C2.33646 21.0412 2.34598 21.0888 2.39672 21.0888C2.4316 21.0888 2.44111 21.111 2.42526 21.1712C2.4094 21.2347 2.41892 21.2537 2.46966 21.2664C2.52357 21.2822 2.52991 21.3044 2.51722 21.4027C2.50454 21.4852 2.51722 21.5359 2.55211 21.5708C2.58065 21.5994 2.60285 21.6533 2.60285 21.6913C2.60285 21.7262 2.62505 21.7643 2.65042 21.7738C2.68213 21.7865 2.69798 21.8372 2.69798 21.9133C2.69798 21.9799 2.72018 22.0497 2.74555 22.0719C2.77092 22.0941 2.79312 22.1448 2.79312 22.1892C2.79312 22.2304 2.81532 22.2717 2.84069 22.2812C2.86923 22.2939 2.88826 22.3414 2.88826 22.4049C2.88826 22.4651 2.91046 22.5317 2.93583 22.5603C2.9612 22.5856 2.9834 22.6427 2.9834 22.6871C2.9834 22.7315 3.00242 22.7791 3.02462 22.7918C3.04999 22.8044 3.07853 22.8742 3.08805 22.944C3.10073 23.0137 3.12293 23.074 3.14196 23.0803C3.15782 23.0867 3.17367 23.1342 3.17367 23.1818C3.17367 23.2326 3.1927 23.2865 3.2149 23.2992C3.24027 23.3118 3.26881 23.3816 3.27832 23.4514C3.29101 23.5211 3.31321 23.5814 3.33223 23.5877C3.34809 23.5941 3.36395 23.6416 3.36395 23.6924C3.36395 23.7463 3.38297 23.7939 3.41152 23.8034C3.44006 23.8161 3.45908 23.8636 3.45908 23.9144C3.45908 23.9746 3.47494 24.0063 3.50665 24.0063C3.54154 24.0063 3.55422 24.0444 3.55422 24.149C3.55422 24.2474 3.57008 24.2981 3.60179 24.3108C3.63033 24.3235 3.64936 24.371 3.64936 24.4218C3.64936 24.482 3.66522 24.5137 3.69693 24.5137C3.73181 24.5137 3.7445 24.5518 3.7445 24.6564C3.7445 24.7548 3.76035 24.8055 3.79207 24.8182C3.82061 24.8309 3.83963 24.8784 3.83963 24.9292C3.83963 24.9894 3.85549 25.0211 3.8872 25.0211C3.92209 25.0211 3.93477 25.0592 3.93477 25.1638C3.93477 25.2622 3.95063 25.3129 3.98234 25.3256C4.01088 25.3383 4.02991 25.3858 4.02991 25.4366C4.02991 25.4968 4.04577 25.5285 4.07748 25.5285C4.11236 25.5285 4.12505 25.5666 4.12505 25.6712C4.12505 25.7696 4.1409 25.8203 4.17261 25.833C4.20116 25.8457 4.22018 25.8932 4.22018 25.944C4.22018 26.0042 4.23604 26.0359 4.26775 26.0359C4.30264 26.0359 4.31532 26.074 4.31532 26.1786C4.31532 26.277 4.33118 26.3277 4.36289 26.3404C4.39143 26.3531 4.41046 26.4006 4.41046 26.4514C4.41046 26.5116 4.42631 26.5433 4.45803 26.5433C4.49291 26.5433 4.5056 26.5814 4.5056 26.686C4.5056 26.7907 4.51828 26.8288 4.55316 26.8288C4.58488 26.8288 4.60073 26.8636 4.60073 26.9397C4.60073 27.0159 4.61659 27.0507 4.6483 27.0507C4.68319 27.0507 4.69587 27.0856 4.69587 27.1776C4.69587 27.2632 4.71173 27.314 4.74344 27.3235C4.77198 27.3362 4.79101 27.3837 4.79101 27.4503C4.79101 27.5264 4.80686 27.5581 4.83858 27.5581C4.87029 27.5581 4.88615 27.5899 4.88615 27.6501C4.88615 27.7008 4.90517 27.7484 4.93371 27.7611C4.96543 27.7738 4.98128 27.8245 4.98128 27.9228C4.98128 28.0275 4.99397 28.0655 5.02885 28.0655C5.06056 28.0655 5.07642 28.0973 5.07642 28.1607C5.07642 28.2241 5.09228 28.2558 5.12399 28.2558C5.15887 28.2558 5.17156 28.2939 5.17156 28.3985C5.17156 28.4968 5.18741 28.5476 5.21913 28.5603C5.24767 28.5729 5.2667 28.6205 5.2667 28.6712C5.2667 28.7315 5.28255 28.7632 5.31426 28.7632C5.34915 28.7632 5.36183 28.8013 5.36183 28.9059C5.36183 29.0042 5.37769 29.055 5.4094 29.0677C5.43794 29.0803 5.45697 29.1279 5.45697 29.1786C5.45697 29.2389 5.47283 29.2706 5.50454 29.2706C5.53942 29.2706 5.55211 29.3087 5.55211 29.4133C5.55211 29.518 5.56479 29.556 5.59968 29.556C5.63139 29.556 5.64725 29.5909 5.64725 29.667C5.64725 29.7431 5.6631 29.778 5.69481 29.778C5.72653 29.778 5.74238 29.8129 5.74238 29.889V30H6.02779C6.25295 30 6.31955 29.9905 6.33223 29.9524C6.34809 29.9175 6.40834 29.9049 6.58593 29.9049C6.77304 29.9049 6.82061 29.8953 6.82061 29.8573C6.82061 29.8192 6.87135 29.8097 7.07431 29.8097C7.28678 29.8097 7.32801 29.8002 7.32801 29.759C7.32801 29.7178 7.35972 29.7114 7.52145 29.7209C7.66099 29.7304 7.71807 29.7241 7.73075 29.6924C7.74344 29.6638 7.81638 29.6512 7.98128 29.6512C8.16204 29.6512 8.2223 29.6385 8.23498 29.6036C8.25084 29.5687 8.31109 29.556 8.48868 29.556C8.66944 29.556 8.7297 29.5433 8.74238 29.5085C8.75507 29.4767 8.80581 29.4609 8.90094 29.4609C9.00242 29.4609 9.04048 29.4482 9.04048 29.4133C9.04048 29.3753 9.08488 29.3658 9.24661 29.3658C9.40834 29.3658 9.45274 29.3562 9.45274 29.3182C9.45274 29.2801 9.49397 29.2706 9.63985 29.2706C9.77621 29.2706 9.83012 29.2579 9.84598 29.223C9.85866 29.1913 9.9094 29.1755 10.0077 29.1755C10.1124 29.1755 10.1504 29.1628 10.1504 29.1279C10.1504 29.0899 10.1948 29.0803 10.3565 29.0803C10.5246 29.0803 10.5627 29.0708 10.5627 29.0296C10.5627 28.9884 10.5849 28.982 10.6515 28.9947C10.7022 29.0042 10.7815 28.9947 10.8291 28.9662C10.8798 28.9408 10.9686 28.9218 11.0257 28.9218C11.0954 28.9218 11.143 28.9027 11.1525 28.8742C11.1652 28.8425 11.216 28.8266 11.3111 28.8266C11.4062 28.8266 11.457 28.8108 11.4697 28.7791C11.4823 28.7474 11.5331 28.7315 11.6282 28.7315C11.7297 28.7315 11.7678 28.7188 11.7678 28.6839C11.7678 28.649 11.8058 28.6364 11.9105 28.6364C12.0088 28.6364 12.0595 28.6205 12.0722 28.5888C12.0849 28.5571 12.1356 28.5412 12.2308 28.5412C12.3322 28.5412 12.3703 28.5285 12.3703 28.4937C12.3703 28.4619 12.402 28.4461 12.4749 28.4461C12.532 28.4461 12.6081 28.4239 12.643 28.3985C12.6747 28.3731 12.7413 28.351 12.7921 28.351C12.846 28.351 12.8777 28.3351 12.8777 28.3034C12.8777 28.2685 12.9157 28.2558 13.0204 28.2558C13.1187 28.2558 13.1694 28.24 13.1821 28.2082C13.1948 28.1797 13.2424 28.1607 13.2931 28.1607C13.3534 28.1607 13.3851 28.1448 13.3851 28.1131C13.3851 28.0782 13.4231 28.0655 13.5278 28.0655C13.6261 28.0655 13.6768 28.0497 13.6895 28.018C13.7022 27.9894 13.7498 27.9704 13.8005 27.9704C13.8608 27.9704 13.8925 27.9545 13.8925 27.9228C13.8925 27.8879 13.9305 27.8753 14.0352 27.8753C14.1335 27.8753 14.1842 27.8594 14.1969 27.8277C14.2096 27.7992 14.2572 27.7801 14.3079 27.7801C14.3682 27.7801 14.3999 27.7643 14.3999 27.7326C14.3999 27.7008 14.4316 27.685 14.495 27.685C14.5521 27.685 14.5997 27.666 14.6092 27.6374C14.6219 27.6089 14.6694 27.5899 14.7202 27.5899C14.7804 27.5899 14.8122 27.574 14.8122 27.5423C14.8122 27.5106 14.8439 27.4947 14.9073 27.4947C14.9707 27.4947 15.0024 27.4789 15.0024 27.4471C15.0024 27.4154 15.0373 27.3996 15.1134 27.3996C15.1895 27.3996 15.2244 27.3837 15.2244 27.352C15.2244 27.3171 15.2593 27.3044 15.3513 27.3044C15.4369 27.3044 15.4876 27.2886 15.4971 27.2569C15.5098 27.2315 15.5511 27.2093 15.5923 27.2093C15.6367 27.2093 15.6779 27.1871 15.6874 27.1617C15.7001 27.1364 15.735 27.1142 15.7667 27.1142C15.7984 27.1142 15.8269 27.092 15.8269 27.0666C15.8269 27.0349 15.8587 27.019 15.9221 27.019C15.9855 27.019 16.0172 27.0032 16.0172 26.9715C16.0172 26.9397 16.0521 26.9239 16.1282 26.9239C16.2043 26.9239 16.2392 26.908 16.2392 26.8763C16.2392 26.8446 16.2709 26.8288 16.3343 26.8288C16.3978 26.8288 16.4295 26.8129 16.4295 26.7812C16.4295 26.7495 16.4612 26.7336 16.5246 26.7336C16.588 26.7336 16.6198 26.7178 16.6198 26.686C16.6198 26.6607 16.6483 26.6385 16.6832 26.6385C16.7181 26.6385 16.7466 26.6163 16.7466 26.5909C16.7466 26.5592 16.7783 26.5433 16.8417 26.5433C16.9052 26.5433 16.9369 26.5275 16.9369 26.4958C16.9369 26.4641 16.9686 26.4482 17.032 26.4482C17.0891 26.4482 17.1367 26.4292 17.1462 26.4006C17.1589 26.3753 17.1842 26.3531 17.2096 26.3531C17.235 26.3531 17.254 26.3309 17.254 26.3055C17.254 26.2738 17.2857 26.2579 17.3491 26.2579C17.4094 26.2579 17.4443 26.2421 17.4443 26.2135C17.4443 26.1882 17.4887 26.1596 17.5394 26.1469C17.5933 26.1342 17.6346 26.1121 17.6346 26.0962C17.6346 26.0803 17.6568 26.0677 17.6821 26.0677C17.7107 26.0677 17.7392 26.0455 17.7487 26.0201C17.7614 25.9947 17.8026 25.9725 17.8439 25.9725C17.8883 25.9725 17.9295 25.9503 17.939 25.9249C17.9517 25.8996 17.9771 25.8774 17.9993 25.8774C18.0246 25.8774 18.0532 25.8488 18.0627 25.814C18.0754 25.7791 18.1007 25.7505 18.1198 25.7537C18.2149 25.7664 18.2688 25.7474 18.2688 25.703C18.2688 25.6776 18.291 25.6554 18.3164 25.6554C18.3417 25.6554 18.3639 25.6332 18.3639 25.6078C18.3639 25.5761 18.3957 25.5603 18.4591 25.5603C18.5225 25.5603 18.5542 25.5444 18.5542 25.5127C18.5542 25.4873 18.5828 25.4651 18.6176 25.4651C18.6525 25.4651 18.6811 25.4429 18.6811 25.4175C18.6811 25.3922 18.7033 25.37 18.7286 25.37C18.754 25.37 18.7762 25.3478 18.7762 25.3224C18.7762 25.2907 18.8079 25.2748 18.8713 25.2748C18.9348 25.2748 18.9665 25.259 18.9665 25.2273C18.9665 25.2019 18.995 25.1797 19.0299 25.1797C19.0648 25.1797 19.0933 25.1575 19.0933 25.1321C19.0933 25.1068 19.1219 25.0846 19.1536 25.0846C19.1885 25.0846 19.236 25.0624 19.2646 25.037C19.29 25.0116 19.3248 24.9894 19.3439 24.9894C19.3629 24.9894 19.3787 24.9672 19.3787 24.9419C19.3787 24.9165 19.4009 24.8943 19.4263 24.8943C19.4517 24.8943 19.4739 24.8721 19.4739 24.8467C19.4739 24.8214 19.5024 24.7992 19.5373 24.7992C19.5722 24.7992 19.6007 24.777 19.6007 24.7516C19.6007 24.7262 19.6229 24.704 19.6483 24.704C19.6737 24.704 19.6959 24.6818 19.6959 24.6564C19.6959 24.6311 19.7181 24.6089 19.7434 24.6089C19.7688 24.6089 19.791 24.5867 19.791 24.5613C19.791 24.5328 19.8195 24.5137 19.8703 24.5137C19.9496 24.5137 20.2033 24.3013 20.2033 24.2347C20.2033 24.2125 20.2255 24.1966 20.2508 24.1966C20.2762 24.1966 20.2984 24.1744 20.2984 24.149C20.2984 24.1237 20.3206 24.1015 20.346 24.1015C20.3745 24.1015 20.4031 24.0793 20.4126 24.0539C20.4253 24.0285 20.4506 24.0063 20.476 24.0063C20.5014 24.0063 20.5204 23.9841 20.5204 23.9588C20.5204 23.9334 20.5426 23.9112 20.568 23.9112C20.5933 23.9112 20.6155 23.889 20.6155 23.8636C20.6155 23.8383 20.6377 23.8161 20.6631 23.8161C20.6885 23.8161 20.7107 23.7939 20.7107 23.7685C20.7107 23.7431 20.7329 23.7209 20.7582 23.7209C20.7836 23.7209 20.8058 23.6987 20.8058 23.6734C20.8058 23.648 20.8343 23.6258 20.8692 23.6258C20.9041 23.6258 20.9327 23.6036 20.9327 23.5782C20.9327 23.5529 20.9549 23.5307 20.9802 23.5307C21.0056 23.5307 21.0278 23.5085 21.0278 23.4831C21.0278 23.4577 21.05 23.4355 21.0754 23.4355C21.1007 23.4355 21.1229 23.4133 21.1229 23.3879C21.1229 23.3626 21.1451 23.3404 21.1705 23.3404C21.1959 23.3404 21.2181 23.3182 21.2181 23.2928C21.2181 23.2674 21.2339 23.2452 21.253 23.2452C21.3005 23.2452 21.4401 23.1121 21.4401 23.0613C21.4401 23.0423 21.4623 23.0233 21.4876 23.0233C21.513 23.0233 21.5352 23.0011 21.5352 22.9757C21.5352 22.9503 21.5574 22.9281 21.5828 22.9281C21.6081 22.9281 21.6303 22.9059 21.6303 22.8805C21.6303 22.8552 21.6462 22.833 21.6652 22.833C21.7286 22.833 21.8523 22.6934 21.8523 22.6173C21.8523 22.5761 21.8713 22.5476 21.8999 22.5476C21.9253 22.5476 21.9475 22.5254 21.9475 22.5C21.9475 22.4746 21.9697 22.4524 21.995 22.4524C22.0204 22.4524 22.0426 22.4302 22.0426 22.4049C22.0426 22.3795 22.0616 22.3573 22.087 22.3573C22.1124 22.3573 22.1409 22.3288 22.1536 22.297C22.1631 22.2622 22.1916 22.2273 22.217 22.2178C22.2424 22.2082 22.2646 22.1638 22.2646 22.1194C22.2646 22.0687 22.2836 22.0402 22.3122 22.0402C22.3375 22.0402 22.3597 22.018 22.3597 21.9926C22.3597 21.9672 22.3819 21.945 22.4073 21.945C22.4327 21.945 22.4549 21.9228 22.4549 21.8975C22.4549 21.8721 22.4739 21.8499 22.4993 21.8499C22.5246 21.8499 22.5532 21.8087 22.5659 21.7548C22.5785 21.704 22.6071 21.6596 22.6324 21.6596C22.6578 21.6596 22.6768 21.6406 22.6768 21.6152C22.6768 21.5899 22.699 21.5645 22.7244 21.5518C22.7498 21.5423 22.772 21.4979 22.772 21.4535C22.772 21.4027 22.791 21.3742 22.8195 21.3742C22.8449 21.3742 22.8671 21.3488 22.8671 21.314C22.8671 21.2822 22.8957 21.2474 22.9305 21.2378C22.9749 21.2283 22.994 21.1934 22.994 21.1395C22.994 21.0888 23.013 21.0571 23.0415 21.0571C23.0732 21.0571 23.0891 21.0254 23.0891 20.9619C23.0891 20.8985 23.105 20.8668 23.1367 20.8668C23.1684 20.8668 23.1842 20.8351 23.1842 20.7717C23.1842 20.7178 23.2001 20.6765 23.2255 20.6765C23.2921 20.6765 23.4062 20.5275 23.4062 20.4419C23.4062 20.3911 23.4221 20.3594 23.4538 20.3594C23.4855 20.3594 23.5014 20.3277 23.5014 20.2643C23.5014 20.2008 23.5172 20.1691 23.5489 20.1691C23.5743 20.1691 23.5965 20.1438 23.5965 20.112C23.5965 20.0772 23.625 20.0201 23.6599 19.9789C23.6948 19.9376 23.7234 19.8615 23.7234 19.7981C23.7234 19.7252 23.7392 19.6934 23.7709 19.6934C23.8026 19.6934 23.8185 19.6586 23.8185 19.5825C23.8185 19.5095 23.8343 19.4715 23.8629 19.4715C23.8851 19.4715 23.9136 19.4271 23.9263 19.3763C23.9358 19.3192 23.9644 19.2812 23.9929 19.2812C24.0246 19.2812 24.0405 19.2495 24.0405 19.186C24.0405 19.129 24.0595 19.0814 24.088 19.0719C24.1198 19.0592 24.1356 19.0085 24.1356 18.9133C24.1356 18.8118 24.1483 18.7738 24.1832 18.7738C24.2086 18.7738 24.2308 18.7484 24.2308 18.7167C24.2308 18.6882 24.2593 18.6184 24.2942 18.5677C24.3322 18.5106 24.3576 18.4186 24.3576 18.3425C24.3576 18.2537 24.3735 18.203 24.4052 18.1903C24.4369 18.1776 24.4527 18.1268 24.4527 18.0285C24.4527 17.9271 24.4654 17.8858 24.4971 17.8858C24.5415 17.8858 24.5796 17.7939 24.5796 17.6702C24.5796 17.629 24.5986 17.6004 24.6272 17.6004C24.6652 17.6004 24.6747 17.5433 24.6747 17.2833C24.6747 17.0074 24.6842 16.9567 24.7382 16.9027C24.773 16.8679 24.8016 16.8108 24.8016 16.7759C24.8016 16.7378 24.8238 16.6776 24.8491 16.6364C24.8872 16.5793 24.8999 16.3763 24.9189 15.5835C24.9348 14.7178 24.9316 14.5941 24.8904 14.5529C24.8491 14.5148 24.8428 14.4482 24.8555 14.1438C24.8713 13.8298 24.865 13.7727 24.8206 13.7347C24.7889 13.7061 24.7699 13.6427 24.7699 13.5507C24.7699 13.4556 24.754 13.408 24.7223 13.3953C24.6874 13.3795 24.6747 13.3256 24.6747 13.1892C24.6747 13.0433 24.6652 13.0021 24.6272 13.0021C24.5891 13.0021 24.5796 12.9577 24.5796 12.796C24.5796 12.6342 24.5701 12.5899 24.532 12.5899C24.4971 12.5899 24.4845 12.5518 24.4845 12.4471C24.4845 12.3488 24.4686 12.2981 24.4369 12.2854C24.4052 12.2727 24.3893 12.222 24.3893 12.1427C24.3893 12.0603 24.3735 12.0095 24.3417 12C24.3132 11.9873 24.2942 11.9397 24.2942 11.8731C24.2942 11.797 24.2783 11.7653 24.2466 11.7653C24.2149 11.7653 24.199 11.7336 24.199 11.6702C24.199 11.6068 24.1832 11.5751 24.1515 11.5751C24.1166 11.5751 24.1039 11.537 24.1039 11.4323C24.1039 11.334 24.088 11.2833 24.0563 11.2706C24.0278 11.2579 24.0088 11.2104 24.0088 11.1596C24.0088 11.0994 23.9929 11.0677 23.9612 11.0677C23.9295 11.0677 23.9136 11.0359 23.9136 10.9725C23.9136 10.9091 23.8978 10.8774 23.8661 10.8774C23.8343 10.8774 23.8185 10.8457 23.8185 10.7822C23.8185 10.7252 23.7995 10.6776 23.7709 10.6681C23.7456 10.6554 23.7234 10.63 23.7234 10.6046C23.7234 10.5793 23.7012 10.5603 23.6758 10.5603C23.6441 10.5603 23.6282 10.5285 23.6282 10.4683C23.6282 10.4175 23.6092 10.37 23.5806 10.3573C23.5521 10.3478 23.5331 10.3002 23.5331 10.2431C23.5331 10.1797 23.5172 10.148 23.4855 10.148C23.457 10.148 23.4379 10.1194 23.4379 10.0687C23.4379 10.0243 23.4157 9.97991 23.3904 9.9704C23.365 9.95771 23.3428 9.92917 23.3428 9.90697C23.3428 9.8816 23.3206 9.85306 23.2952 9.84355C23.2699 9.83086 23.2477 9.78964 23.2477 9.74841C23.2477 9.70084 23.2286 9.6723 23.2001 9.6723C23.1747 9.6723 23.1525 9.64376 23.1525 9.60888C23.1525 9.57399 23.1303 9.54545 23.105 9.54545C23.0764 9.54545 23.0574 9.51691 23.0574 9.46617C23.0574 9.42177 23.0352 9.37738 23.0098 9.36786C22.9845 9.35518 22.9623 9.32029 22.9623 9.28858C22.9623 9.25687 22.9401 9.22833 22.9147 9.22833C22.8893 9.22833 22.8671 9.20613 22.8671 9.18076C22.8671 9.15539 22.8449 9.13319 22.8195 9.13319C22.7942 9.13319 22.772 9.10465 22.772 9.07294C22.772 9.03805 22.753 8.99048 22.7308 8.96829C22.7086 8.94609 22.68 8.90169 22.6673 8.86998C22.6578 8.84144 22.6324 8.81607 22.6134 8.81607C22.5976 8.81607 22.5817 8.79387 22.5817 8.7685C22.5817 8.74313 22.5595 8.72093 22.5341 8.72093C22.5088 8.72093 22.4866 8.69873 22.4866 8.67336C22.4866 8.64799 22.4644 8.62579 22.439 8.62579C22.4136 8.62579 22.3914 8.60359 22.3914 8.57822C22.3914 8.55285 22.3629 8.53065 22.328 8.53065C22.2773 8.53065 22.2646 8.50845 22.2646 8.43552C22.2646 8.37843 22.2456 8.33086 22.217 8.32135C22.1916 8.30867 22.1694 8.2833 22.1694 8.25793C22.1694 8.23256 22.1472 8.21353 22.1219 8.21353C22.0965 8.21353 22.0743 8.19133 22.0743 8.16596C22.0743 8.14059 22.0521 8.11839 22.0267 8.11839C22.0014 8.11839 21.9792 8.09619 21.9792 8.07082C21.9792 8.04545 21.957 8.02325 21.9316 8.02325C21.9062 8.02325 21.884 7.99471 21.884 7.95983C21.884 7.92495 21.8618 7.8964 21.8365 7.8964C21.8111 7.8964 21.7889 7.87421 21.7889 7.84884C21.7889 7.82347 21.7667 7.80127 21.7413 7.80127C21.716 7.80127 21.6938 7.77907 21.6938 7.7537C21.6938 7.72833 21.6716 7.70613 21.6462 7.70613C21.6208 7.70613 21.5986 7.68393 21.5986 7.65856C21.5986 7.63319 21.5764 7.61099 21.5511 7.61099C21.5257 7.61099 21.5035 7.58879 21.5035 7.56342C21.5035 7.53488 21.4813 7.50634 21.4559 7.49683C21.4305 7.48414 21.4083 7.45877 21.4083 7.4334C21.4083 7.40803 21.3861 7.389 21.3608 7.389C21.3354 7.389 21.3132 7.36681 21.3132 7.34144C21.3132 7.31607 21.291 7.29387 21.2656 7.29387C21.2403 7.29387 21.2181 7.27167 21.2181 7.2463C21.2181 7.22093 21.1895 7.19873 21.1546 7.19873C21.1039 7.19873 21.0912 7.17653 21.0912 7.10359C21.0912 7.04017 21.0754 7.00845 21.0437 7.00845C21.0183 7.00845 20.9961 6.98626 20.9961 6.96089C20.9961 6.93552 20.9739 6.91332 20.9485 6.91332C20.9231 6.91332 20.9009 6.89746 20.9009 6.87526C20.9009 6.85623 20.8375 6.77695 20.7582 6.70084C20.6536 6.60253 20.587 6.56448 20.5204 6.56448C20.457 6.56448 20.4253 6.54862 20.4253 6.51691C20.4253 6.47886 20.3809 6.46934 20.2191 6.46934C20.0574 6.46934 20.013 6.47886 20.013 6.51691Z" fill="#C5AE5B"/>
</svg>
