<svg width="30" height="31" viewBox="0 0 30 31" fill="none" xmlns="http://www.w3.org/2000/svg">
<path fill-rule="evenodd" clip-rule="evenodd" d="M13.7308 0.0533053C7.25907 0.615364 1.92129 5.22481 0.390373 11.5734C-0.142901 13.7848 -0.12921 16.3661 0.427754 18.6103C1.86321 24.3944 6.64931 28.8276 12.5208 29.8117C14.7538 30.186 17.2013 30.0254 19.3963 29.3605C22.8529 28.3137 25.892 25.9494 27.8194 22.808C30.4956 18.4462 30.7248 12.8688 28.4166 8.27658C26.9888 5.43579 24.5507 3.00274 21.7088 1.58263C19.2677 0.362801 16.4302 -0.181109 13.7308 0.0533053ZM16.7683 1.29033C23.1424 2.11393 28.0941 7.19978 28.7656 13.6126C28.8703 14.6135 28.808 16.3675 28.6321 17.3685C27.4648 24.0107 21.7351 28.8345 15.0171 28.8308C13.9565 28.8301 13.2298 28.7611 12.2751 28.5703C8.08999 27.7336 4.50456 24.9818 2.61702 21.1576C1.89315 19.6911 1.48182 18.329 1.27715 16.7208C1.14463 15.6798 1.17806 13.6417 1.34229 12.7515C1.89697 9.74433 3.15189 7.31798 5.2292 5.23595C7.36332 3.09706 9.9769 1.77998 12.9984 1.32064C13.9815 1.17125 15.7373 1.15711 16.7683 1.29033ZM9.09267 8.4277C8.54908 8.69861 8.25308 9.19654 8.2555 9.83603C8.25958 10.9061 9.24379 11.6108 10.3177 11.3126C10.6522 11.2197 11.1941 10.6729 11.2971 10.3242C11.6146 9.24958 10.9063 8.26729 9.81088 8.26334C9.52125 8.26226 9.34262 8.30314 9.09267 8.4277ZM8.2541 17.2411V21.7626H9.81432H11.3745V17.2411V12.7197H9.81432H8.2541V17.2411ZM13.2001 12.7622C13.1767 12.7855 13.1576 14.8201 13.1576 17.2836V21.7626H14.495H15.8323V19.2184C15.8323 17.579 15.8577 16.5542 15.9038 16.3368C16.0973 15.4238 16.5926 15.0122 17.4977 15.0122C18.0639 15.0122 18.4201 15.1667 18.6634 15.5178C19.0244 16.0387 19.0368 16.1488 19.0649 19.072L19.0908 21.7626H20.4227H21.7547V18.8097C21.7547 15.6739 21.7175 15.1644 21.435 14.4261C21.0543 13.4313 20.2651 12.9035 18.9835 12.7867C17.5746 12.6584 16.4254 13.0178 15.8923 13.7537L15.7049 14.0124V13.3661V12.7197H14.4737C13.7966 12.7197 13.2234 12.7388 13.2001 12.7622Z" fill="#C5AE5B"/>
</svg>
