<svg width="51" height="50" viewBox="0 0 51 50" fill="none" xmlns="http://www.w3.org/2000/svg">
<path d="M21.8727 0.129551C12.1037 1.3409 3.88804 8.25731 1.02574 17.6843C0.283299 20.1266 0 22.1878 0 24.9915C0 27.7952 0.283299 29.8564 1.02574 32.2987C3.43867 40.2506 9.73964 46.5516 17.6916 48.9645C20.1045 49.6972 22.195 49.9902 24.9303 50C29.1212 50 32.4036 49.2576 36.0865 47.4601C43.716 43.7283 48.9912 36.1965 49.9095 27.7073C50.0365 26.4862 50.0365 23.4969 49.9095 22.2757C49.2843 16.5511 46.7151 11.2368 42.6121 7.19249C41.4203 6.02022 41.0491 5.69785 39.7987 4.7698C36.4186 2.25918 32.3157 0.637535 28.0271 0.119781C26.6301 -0.0462914 23.2599 -0.0365219 21.8727 0.129551ZM27.8317 3.07C30.2544 3.39238 32.6185 4.10551 34.7579 5.17032C39.1539 7.33903 42.7098 10.9145 44.8297 15.2714C46.3927 18.4659 47.0765 21.4356 47.0765 24.9915C47.0765 29.8564 45.6112 34.3013 42.7391 38.1698C41.9967 39.1565 40.9221 40.3678 40.8537 40.2897C40.8244 40.2701 40.7072 39.5277 40.5802 38.6485C40.0038 34.6335 39.3102 32.5429 38.2063 31.5269C37.3857 30.765 35.1193 29.7197 33.7224 29.4559L33.4196 29.3973L33.4684 30.1202C33.527 30.8529 33.3512 32.8653 33.1949 33.2658C33.1167 33.4709 33.1753 33.5296 33.7419 33.891C34.7384 34.5162 35.2659 35.2391 35.4515 36.2453C35.5492 36.7338 35.4417 38.502 35.1584 41.3056C34.9826 43.0445 34.5332 44.2559 33.908 44.6759C33.6149 44.8811 33.4293 44.9201 32.8627 44.9201C32.0421 44.9201 31.7393 44.7638 31.7393 44.334C31.7393 43.9921 31.964 43.8456 32.511 43.8456C32.726 43.8456 33.0093 43.8065 33.1558 43.7479C33.781 43.5134 34.1425 41.6964 34.3476 37.6716C34.416 36.3723 34.2988 35.8839 33.7615 35.2782C32.6185 33.9789 30.4009 34.1939 29.5413 35.6787C29.2775 36.1379 27.7829 40.1041 27.6363 40.739C27.5875 40.9735 27.5386 41.4522 27.5386 41.8039C27.5386 42.4975 27.6461 42.6733 28.1248 42.8198C28.4765 42.9273 28.5937 43.0445 28.6621 43.3669C28.7598 43.8163 28.5742 43.9726 28.0076 43.9237C27.226 43.8456 26.5715 43.2594 26.3566 42.4486C26.171 41.7843 26.4348 40.6707 27.4117 37.994C28.3885 35.288 28.5839 34.8874 29.2482 34.3013C29.8832 33.7152 30.5475 33.4123 31.3681 33.3342C31.9444 33.2756 32.0421 33.2365 32.0812 33.0607C32.1105 32.9532 32.1691 32.6601 32.2277 32.4159C32.3254 31.9372 32.3352 29.8076 32.2375 29.3387C32.1789 29.0652 32.1105 29.0261 31.2118 28.733C29.9125 28.3129 29.6976 28.2641 29.6487 28.4302C29.2482 29.8271 28.0955 32.4745 27.187 34.0766L26.5227 35.2587L26.3468 34.2525C25.9854 32.2108 25.9854 32.1131 26.1808 31.7125C26.4348 31.2046 26.4152 31.0971 26.0049 30.7161C24.989 29.8076 25.0085 29.8271 24.6666 30.0127C24.5005 30.1007 24.1391 30.384 23.8558 30.638L23.3478 31.0971L23.592 31.6637L23.8362 32.2303L23.5822 33.4905C23.4455 34.1939 23.338 34.8484 23.338 34.9558C23.338 35.327 23.1719 35.1512 22.6835 34.2427C21.4917 32.0838 20.6515 30.1984 20.3487 29.0163C20.1436 28.2153 20.2119 28.2348 19.0592 28.5865C18.3754 28.7916 18.1019 29.0847 17.8674 29.8467C17.0273 32.5527 17.0859 36.9389 17.9846 39.7426L18.307 40.739L18.8834 40.9149C20.0752 41.2861 20.5929 42.2825 20.124 43.318C19.4793 44.7443 17.2813 44.5392 16.9003 43.025C16.783 42.5561 16.8807 41.8722 17.0859 41.7452C17.252 41.6378 17.1933 40.9833 16.9491 40.1529C16.3532 38.1893 16.109 36.4407 16.109 34.2525C16.109 32.7285 16.2848 31.3511 16.5877 30.3644C16.8026 29.6904 16.8514 29.2898 16.7147 29.2898C16.1676 29.2898 13.6374 30.2081 12.5922 30.7943C11.7032 31.2827 10.9217 32.1424 10.5505 33.0313C9.98386 34.4088 9.32934 37.3785 9.12419 39.5277L9.05581 40.2408L8.81159 40.0161C7.77608 39.0588 6.11536 36.6459 5.17754 34.7507C3.65358 31.693 2.91114 28.479 2.91114 24.9915C2.91114 21.504 3.65358 18.29 5.17754 15.2323C9.37818 6.74312 18.5121 1.83912 27.8317 3.07Z" fill="#C5AE5B"/>
<path d="M22.3123 9.8594C20.0459 10.2111 18.3363 11.7448 17.8088 13.9135C17.6915 14.3531 17.6427 14.9686 17.6427 15.711C17.672 20.6638 20.0947 25.5288 23.1426 26.7597C23.5236 26.9062 23.9632 26.9844 24.6763 27.0234C25.5555 27.0625 25.7705 27.043 26.4836 26.8183C28.4667 26.1931 30.1079 24.6593 31.202 22.4125C32.003 20.7811 32.2277 19.433 32.2277 16.3948C32.2277 13.6009 32.0226 12.9171 30.7917 11.608C30.0981 10.8754 29.4143 10.426 28.3983 10.0743C27.6754 9.81055 27.4214 9.80078 25.1746 9.87893C24.9401 9.87893 24.3344 9.8594 23.8264 9.83009C23.3185 9.79101 22.6346 9.80078 22.3123 9.8594Z" fill="#C5AE5B"/>
</svg>
