<svg width="50" height="50" viewBox="0 0 50 50" fill="none" xmlns="http://www.w3.org/2000/svg">
<circle cx="25" cy="25" r="23.5" stroke="#C5AE5B" stroke-width="3"/>
<path d="M16.6489 8.18667C15.84 8.40445 14.6578 9.57111 14.4089 10.4267C14.3156 10.7844 14.2222 11.8422 14.2222 12.7756C14.2222 15.0933 14.0978 15 17.2244 15H19.6667V18.5V22H14.8133C10.3333 22 9.89778 22.0311 9.27556 22.3111C8.76222 22.5444 8.54444 22.7622 8.31111 23.2756C8.01556 23.9133 8 24.3644 8 32.4844C8 40.9156 8 41.04 8.32667 41.7244C8.57556 42.2378 8.82444 42.4867 9.30667 42.7044C9.89778 42.9689 10.4422 43 16.5556 43C22.6689 43 23.2133 42.9689 23.8044 42.7044C24.66 42.3156 25.1111 41.4133 25.1111 40.0756V39.1111H32.3911C40.6822 39.1111 40.6356 39.1111 41.8333 37.9133C42.6111 37.1511 43 36.1244 43 34.9111C43 34.04 42.6733 33.6667 41.9422 33.6667H41.4444V22.5756C41.4444 9.96 41.4756 10.3956 40.2622 9.18222C39.0489 7.96889 39.4067 8 27.6156 8.01556C20.9733 8.03111 17.0378 8.09333 16.6489 8.18667ZM19.1067 10.1622C19.5578 10.6289 19.5889 10.7222 19.6356 12.0444L19.6978 13.4444H17.7222H15.7467L15.8089 12.06C15.8556 10.8311 15.9022 10.6133 16.2444 10.2556C16.7733 9.68 17.1311 9.55556 17.94 9.61778C18.4378 9.66444 18.7333 9.80445 19.1067 10.1622ZM38.8933 9.97556C39.9356 10.7222 39.8889 10.2089 39.8889 22.5289V33.6667H32.5H25.1111V28.7978C25.1111 24.3333 25.08 23.8978 24.8 23.2756C24.4111 22.42 23.5711 22.0156 22.2022 22H21.2378L21.1911 16.2756C21.1444 11.2822 21.1133 10.5044 20.88 10.0533L20.6156 9.55556L29.5133 9.58667L38.4111 9.63334L38.8933 9.97556ZM23.3067 23.8044C23.5244 24.0222 23.5556 25.0178 23.5556 32.5C23.5556 39.9822 23.5244 40.9778 23.3067 41.1956C23.1044 41.4133 22.2644 41.4444 16.5556 41.4444C10.8467 41.4444 10.0067 41.4133 9.80444 41.1956C9.58667 40.9778 9.55556 39.9822 9.55556 32.5C9.55556 25.0178 9.58667 24.0222 9.80444 23.8044C10.0067 23.5867 10.8467 23.5556 16.5556 23.5556C22.2644 23.5556 23.1044 23.5867 23.3067 23.8044ZM41.3822 35.7044C41.2578 36.3733 40.76 37.0111 40.1378 37.3067C39.6711 37.5244 38.7222 37.5556 32.36 37.5556H25.1111V36.3889V35.2222H33.2933H41.4911L41.3822 35.7044Z" fill="#C5AE5B"/>
<path d="M32.08 12.8378C31.8778 12.9467 31.8 13.1956 31.8 13.6622C31.8 14.2844 31.7689 14.3311 31.1 14.6578C30.68 14.86 30.2445 15.2333 29.98 15.6378C29.6067 16.1978 29.5445 16.4622 29.5445 17.3489C29.5445 18.2667 29.6067 18.4844 30.0111 19.06C30.5556 19.8222 31.3022 20.2578 32.4067 20.4289C33.3089 20.5689 33.6356 20.8022 33.9311 21.4867C34.1022 21.9222 34.1022 22.0778 33.9156 22.5289C33.2778 24.0689 31.2556 23.7889 30.9445 22.0933C30.8045 21.4089 30.3689 21.1133 29.84 21.3622C29.0156 21.7356 29.56 23.6333 30.7422 24.4889C31.0845 24.7533 31.4733 24.9556 31.5978 24.9556C31.7378 24.9556 31.8 25.1733 31.8 25.6556C31.8 26.48 32.2045 26.8222 32.8267 26.5267C33.1378 26.3867 33.2 26.2467 33.2 25.7022C33.2 25.0644 33.2311 25.0178 33.8533 24.7222C34.2422 24.5356 34.7089 24.1156 34.9889 23.7267C35.3933 23.1511 35.4556 22.9333 35.4556 22.0311C35.4556 21.2067 35.3778 20.8644 35.0822 20.3978C34.6 19.6044 33.7445 19.0756 32.8111 18.9511C31.8311 18.8267 31.3645 18.5311 31.0845 17.8622C30.8978 17.4111 30.8978 17.2556 31.0845 16.8044C31.7378 15.2489 33.7445 15.5444 34.0711 17.24C34.1956 17.94 34.6778 18.2511 35.2067 17.9711C35.4556 17.8311 35.5333 17.6444 35.5333 17.1622C35.5333 16.0422 34.6156 14.7822 33.5578 14.4556C33.2622 14.3778 33.2 14.2533 33.2 13.6778C33.2 13.1489 33.1222 12.9467 32.9044 12.8222C32.5311 12.6356 32.4222 12.6356 32.08 12.8378Z" fill="#C5AE5B"/>
<path d="M27.7089 30.0578C27.3667 30.4311 27.3822 30.7578 27.7244 31.0689C27.9733 31.3022 28.5489 31.3333 32.5311 31.3333C36.7 31.3333 37.0578 31.3178 37.2911 31.0533C37.6333 30.68 37.6178 30.3533 37.2756 30.0422C37.0267 29.8089 36.4511 29.7778 32.4689 29.7778C28.3 29.7778 27.9422 29.7933 27.7089 30.0578Z" fill="#C5AE5B"/>
<path d="M12.1533 26.1689C11.9356 26.4022 11.8889 26.8222 11.8889 28.6422C11.8889 30.5556 11.92 30.8511 12.1689 31.0689C12.4178 31.3022 12.9622 31.3333 16.5867 31.3333C20.3822 31.3333 20.7244 31.3178 20.9578 31.0533C21.1756 30.82 21.2222 30.4 21.2222 28.58C21.2222 26.6667 21.1911 26.3711 20.9422 26.1533C20.6933 25.92 20.1489 25.8889 16.5244 25.8889C12.7289 25.8889 12.3867 25.9045 12.1533 26.1689ZM19.6667 28.6111V29.7778H16.5556H13.4444V28.6111V27.4445H16.5556H19.6667V28.6111Z" fill="#C5AE5B"/>
<path d="M12.1533 33.9467C11.9356 34.18 11.8889 34.6 11.8889 36.42C11.8889 38.3333 11.92 38.6289 12.1689 38.8467C12.5422 39.1889 12.8689 39.1733 13.18 38.8311C13.3978 38.5978 13.4444 38.1778 13.4444 36.3578C13.4444 34.4444 13.4133 34.1489 13.1644 33.9311C12.7911 33.5889 12.4644 33.6044 12.1533 33.9467Z" fill="#C5AE5B"/>
<path d="M19.9311 33.9467C19.4178 34.5067 19.7444 35.2222 20.5067 35.2222C20.7867 35.2222 21.2222 34.8022 21.2222 34.5378C21.2222 33.9156 20.32 33.5111 19.9311 33.9467Z" fill="#C5AE5B"/>
<path d="M15.9645 34.0089C15.6689 34.3045 15.7467 34.88 16.1045 35.0667C16.8356 35.4556 17.5511 34.8334 17.1778 34.1334C16.9911 33.7756 16.2756 33.6978 15.9645 34.0089Z" fill="#C5AE5B"/>
<path d="M16.0267 37.8044C15.7 38.1311 15.7156 38.5355 16.0578 38.8467C16.4311 39.1889 16.7578 39.1733 17.0689 38.8311C17.4111 38.4578 17.3956 38.1311 17.0533 37.82C16.6956 37.4933 16.3378 37.4778 16.0267 37.8044Z" fill="#C5AE5B"/>
<path d="M19.9156 37.8044C19.5889 38.1311 19.6044 38.5355 19.9467 38.8467C20.32 39.1889 20.6467 39.1733 20.9578 38.8311C21.3156 38.4422 21.2844 38.0844 20.88 37.8044C20.4444 37.4933 20.2111 37.4933 19.9156 37.8044Z" fill="#C5AE5B"/>
</svg>
