<svg width="30" height="30" viewBox="0 0 30 30" fill="none" xmlns="http://www.w3.org/2000/svg">
<path fill-rule="evenodd" clip-rule="evenodd" d="M13.8312 0.0178608C12.4282 0.14641 10.8165 0.516839 9.61162 0.987795C4.52258 2.97672 0.97222 7.41846 0.131453 12.848C-0.0312638 13.899 -0.0323746 16.1307 0.129362 17.1241C0.38729 18.7081 0.929483 20.3891 1.61145 21.719L1.92441 22.3294L0.941572 25.8415C0.241564 28.3429 -0.0287152 29.4036 0.00239043 29.5275C0.0576748 29.7475 0.25215 29.9439 0.468518 29.9981C0.579936 30.0261 1.86089 29.7379 4.28857 29.1387L7.941 28.2372L8.58409 28.5396C9.96267 29.1877 11.3528 29.618 12.8837 29.8704C13.757 30.0145 16.0289 30.0343 16.9352 29.9057C20.2379 29.4375 23.2681 27.9544 25.5496 25.6895C27.4983 23.7549 28.881 21.3607 29.5449 18.7715C29.9078 17.356 30 16.5924 30 15.0012C30 13.41 29.9078 12.6463 29.5449 11.2309C28.6255 7.64539 26.3146 4.43988 23.176 2.39655C22.4 1.89136 20.8025 1.10726 19.9412 0.808753C19.1647 0.539701 18.0922 0.27816 17.1939 0.138898C16.5607 0.0407228 14.4221 -0.036224 13.8312 0.0178608ZM16.3238 1.35104C21.9048 1.90364 26.6405 5.81604 28.1729 11.1401C28.5729 12.5297 28.6919 13.4153 28.6919 15.0012C28.6919 16.1772 28.6675 16.5436 28.5416 17.2547C27.9819 20.4153 26.5213 23.0672 24.1605 25.209C22.2684 26.9257 19.9096 28.061 17.262 28.5294C16.0387 28.7458 13.9774 28.7461 12.7568 28.53C11.3198 28.2755 10.1811 27.9033 8.90991 27.2724C8.48554 27.0618 8.09639 26.8894 8.04529 26.8894C7.99413 26.8894 6.52072 27.2422 4.7711 27.6735C3.02147 28.1048 1.58499 28.4502 1.57898 28.4411C1.5729 28.4319 1.94499 27.087 2.40576 25.4523C2.86659 23.8177 3.24391 22.3998 3.24424 22.3013C3.24457 22.2029 3.0527 21.7399 2.81784 21.2723C1.84592 19.3374 1.38718 17.5945 1.30478 15.5237C1.10063 10.3958 3.78833 5.58984 8.27662 3.05719C10.7146 1.68149 13.5627 1.07761 16.3238 1.35104ZM8.93011 7.27176C8.76837 7.32826 8.50763 7.46647 8.35066 7.57889C7.94165 7.87191 7.3162 8.6777 7.02586 9.2857C6.63495 10.1043 6.54497 10.5264 6.55222 11.5066C6.55941 12.4845 6.71076 13.1142 7.17224 14.0867C7.77887 15.3652 9.13857 17.1606 10.6109 18.6273C12.4991 20.5083 14.144 21.5125 16.7713 22.3879C17.947 22.7797 18.4891 22.868 19.4024 22.8167C20.2516 22.769 20.8811 22.5762 21.6351 22.1327C22.9056 21.3853 23.4548 20.4283 23.4657 18.9428C23.4698 18.3798 23.4585 18.3286 23.274 18.0688C23.0945 17.8161 22.9397 17.7276 21.4446 17.0223C20.5462 16.5985 19.668 16.2055 19.493 16.149C18.7648 15.914 18.4613 16.0711 17.6156 17.1213C17.2697 17.5509 16.9443 17.9292 16.8924 17.9619C16.7656 18.0418 15.6053 17.4926 14.848 16.9941C13.8772 16.3551 12.4953 14.9089 11.9678 13.98L11.8516 13.7753L12.2531 13.3091C12.4739 13.0526 12.747 12.6597 12.86 12.4359C13.2001 11.7627 13.1776 11.6268 12.4304 9.84091C12.0771 8.99666 11.7204 8.17095 11.6376 8.00608C11.4516 7.63552 11.1039 7.32251 10.778 7.23204C10.4002 7.1272 9.27475 7.15137 8.93011 7.27176ZM11.0989 10.0369C11.4551 10.8811 11.7603 11.6019 11.7773 11.6387C11.8214 11.7346 11.489 12.2267 11.0724 12.6823C10.2752 13.5543 10.2991 13.9152 11.243 15.2518C12.416 16.9128 13.8794 18.1211 15.7419 18.9664C16.7312 19.4154 16.9586 19.448 17.404 19.2037C17.7287 19.0257 18.3721 18.345 18.8391 17.6854C18.9421 17.5398 19.0639 17.4202 19.1099 17.4194C19.2127 17.4177 20.3959 17.9549 21.4358 18.4755L22.2114 18.8639L22.1697 19.1783C22.0958 19.735 21.934 20.1614 21.6973 20.4234C21.3914 20.7618 20.8611 21.1066 20.319 21.3198C19.9209 21.4763 19.7895 21.4942 19.0264 21.496L18.1768 21.4981L17.1781 21.1553C15.3387 20.524 14.4075 20.0486 13.125 19.0862C11.1741 17.6221 8.98251 14.9975 8.24565 13.2427C7.98726 12.6273 7.81919 11.9046 7.81919 11.4086C7.81919 10.8693 8.02288 10.0491 8.25578 9.65057C8.45855 9.30359 9.09831 8.60996 9.28952 8.52975C9.3614 8.49964 9.6522 8.48102 9.93575 8.4884L10.4513 8.50186L11.0989 10.0369Z" fill="#C5AE5B"/>
</svg>
