<svg width="374" height="187" viewBox="0 0 374 187" fill="none" xmlns="http://www.w3.org/2000/svg">
<path d="M74.0117 79.4351C76.0392 78.0293 77.5589 76.087 79.2776 74.3683C92.6539 60.9798 106.002 47.5548 119.358 34.142C126.972 26.495 134.587 18.8439 142.213 11.2049C145.606 7.80399 149.044 4.4396 152.416 1.01428C153.014 0.408851 153.33 0.25445 153.968 0.94114C154.57 1.5872 154.724 1.98947 154.013 2.68835C150.47 6.16243 146.967 9.67714 143.465 13.1919C131.588 25.1175 119.723 37.0554 107.85 48.9851C97.5623 59.318 87.2741 69.6508 76.9778 79.9756C73.8044 83.1571 70.4441 86.168 67.4657 89.5201C64.5036 92.852 61.2449 95.8751 58.2665 99.1745C57.2873 100.259 56.9175 100.003 56.2715 98.8697C45.2113 79.4473 34.1105 60.0453 23.0178 40.6392C22.8959 40.4238 22.839 40.1556 22.5139 40.0906C21.9816 40.2897 22.2132 40.7611 22.2132 41.1227C22.2051 58.7288 22.2011 76.3349 22.2214 93.941C22.2254 96.4968 22.3677 99.0526 22.9081 101.568C24.062 106.919 27.2558 109.889 32.6924 110.743C34.7728 111.068 36.8654 111.157 38.9579 111.202C39.9209 111.222 40.1728 111.571 40.1769 112.478C40.181 113.465 39.7421 113.664 38.8645 113.664C27.0404 113.644 15.2204 113.644 3.3963 113.668C2.4333 113.672 2.01885 113.441 2.01479 112.392C2.01073 111.279 2.59991 111.124 3.46944 111.141C5.72862 111.177 7.95121 110.913 10.1535 110.389C14.8872 109.259 17.6461 106.261 18.6904 101.568C19.1374 99.5605 19.3446 97.5288 19.3446 95.4769C19.3446 75.9245 19.2755 56.3762 19.4136 36.8238C19.434 33.8495 18.0768 32.1348 15.9355 30.6923C13.2619 28.8923 10.1982 28.3234 7.02885 28.2747C6.20807 28.2625 5.52138 28.3316 5.51732 27.141C5.51325 25.9911 6.12682 25.9546 6.98823 25.9708C12.1039 26.0724 17.2195 25.8123 22.3351 26.109C27.463 26.4056 31.1727 29.0101 33.822 33.2725C38.0599 40.0947 41.8875 47.1607 45.8899 54.1211C52.2163 65.1162 58.5144 76.1276 64.7881 87.1513C65.3163 88.0736 65.682 88.2402 66.4174 87.391C67.9858 85.5788 69.9403 84.1201 71.2974 82.1088C72.4635 81.4749 73.3006 80.52 74.0117 79.4351Z" fill="#132B3C"/>
<path d="M147.333 47.4654C147.333 51.9188 147.341 56.3721 147.325 60.8213C147.321 61.4674 147.642 62.3248 146.431 62.3654C145.383 62.3979 145.054 61.9144 144.871 60.9351C143.701 54.6899 141.738 48.7616 137.801 43.6419C136.891 42.4595 135.781 41.4762 134.741 40.4157C134.01 39.668 133.518 39.668 132.758 40.4441C129.504 43.7719 126.184 47.0307 122.889 50.3178C119.016 54.182 115.177 58.0787 111.264 61.8981C110.309 62.8327 110.374 63.2999 111.418 64.1126C115.969 67.6395 121.271 69.6955 126.46 71.9709C131.194 74.0432 135.952 76.0545 140.251 78.98C147.548 83.9535 151.234 90.8326 150.876 99.6742C150.344 112.827 141.645 122.575 128.565 125.017C120.991 126.431 113.73 125.309 106.611 122.648C105.177 122.112 103.718 121.616 102.235 121.254C99.2932 120.531 97.4607 121.608 96.6603 124.476C96.4612 125.2 96.2661 125.728 95.3763 125.638C94.4376 125.545 94.6042 124.854 94.5839 124.261C94.4458 120.381 94.3401 116.496 94.1776 112.616C93.9257 106.541 93.6209 100.471 93.3853 94.4001C93.3609 93.7215 92.788 92.7098 94.1939 92.5066C95.6363 92.2954 95.7663 93.2258 95.9126 94.2254C96.8065 100.397 98.379 106.362 101.719 111.71C106.042 118.629 112.336 122.254 120.483 122.766C123.567 122.961 126.606 122.892 129.556 121.896C135.233 119.978 138.63 115.968 139.983 110.222C141.693 102.961 140.292 96.639 134.209 91.7752C130.771 89.0285 126.826 87.2122 122.856 85.4366C116.838 82.7467 110.593 80.52 105.169 76.6518C103.84 75.7051 102.528 74.7055 101.357 73.5759C100.541 72.7876 100.098 72.9461 99.3908 73.6572C94.8887 78.1999 90.346 82.7061 85.8195 87.2244C64.528 108.483 43.2325 129.742 21.941 151.001C21.4453 151.493 21.104 152.127 20.2548 151.237C19.5071 150.453 19.6371 150.071 20.3076 149.4C31.5994 138.19 42.879 126.967 54.1464 115.736C58.5997 111.295 63.0165 106.813 67.4698 102.372C78.2212 91.6493 88.9888 80.9385 99.7483 70.2197C109.858 60.1468 119.963 50.074 130.056 39.985C131.243 38.7985 132.348 37.5226 133.445 36.2427C133.993 35.6048 134.522 35.4951 135.318 35.7673C136.813 36.2833 138.333 36.7466 139.873 37.1001C142.888 37.7989 144.704 36.6978 145.484 33.7072C145.667 33.0124 145.858 32.5695 146.667 32.663C147.553 32.7646 147.329 33.4391 147.329 33.9551C147.341 38.4612 147.333 42.9633 147.333 47.4654Z" fill="#C5AE5B"/>
<path d="M207.026 57.1157C207.506 56.6891 207.339 56.3152 207.339 55.9821C207.347 46.6203 207.376 37.2586 207.311 27.8968C207.303 26.5519 207.62 26.1212 208.997 26.1821C211.459 26.2918 211.464 26.2065 211.464 28.5998C211.464 40.1638 211.476 51.7238 211.439 63.2878C211.435 63.9582 211.963 65.1325 210.96 65.2504C209.761 65.3926 208.347 65.9127 207.299 64.5271C204.8 61.2237 202.22 57.9812 199.676 54.7143C194.552 48.14 189.428 41.5616 184.301 34.9913C184.15 34.7962 183.963 34.6296 183.809 34.4671C183.26 34.6703 183.464 35.0807 183.464 35.4017C183.46 44.865 183.431 54.3324 183.496 63.7957C183.504 65.1528 183.041 65.4169 181.826 65.3804C179.319 65.3113 179.319 65.3682 179.319 62.849C179.319 51.3378 179.311 39.8265 179.343 28.3153C179.348 27.6327 178.827 26.4503 179.79 26.3284C180.985 26.1781 182.395 25.6498 183.455 27.0192C187.673 32.4842 191.94 37.9128 196.19 43.3535C199.619 47.7458 203.053 52.1382 206.486 56.5306C206.645 56.7134 206.819 56.8882 207.026 57.1157Z" fill="#152C3C"/>
<path d="M346.563 132.725C335.031 132.725 326.564 124.31 326.316 113.132C326.064 101.677 334.832 92.4904 346.929 92.6448C357.875 92.787 367.046 101.133 366.773 113.27C366.526 124.55 357.623 132.928 346.563 132.725ZM330.525 112.762C330.606 122.814 338.416 129.198 347.396 128.873C355.876 128.564 362.759 121.494 362.596 112.628C362.41 102.384 354.722 96.2326 345.88 96.5211C337.221 96.8015 330.424 103.823 330.525 112.762Z" fill="#142B3C"/>
<path d="M275.106 121.896C272.034 121.896 268.963 121.941 265.895 121.872C264.899 121.847 264.436 122.225 264.075 123.091C263.026 125.59 261.815 128.024 260.844 130.551C260.316 131.932 259.564 132.371 258.122 132.298C255.574 132.172 255.554 132.253 256.566 129.994C261.925 118.052 267.305 106.119 272.648 94.1644C272.993 93.3924 273.424 93.0308 274.265 93.1121C274.822 93.1649 275.403 93.1974 275.951 93.108C277.089 92.9252 277.561 93.5103 277.987 94.4651C283.432 106.647 288.905 118.82 294.407 130.978C294.866 131.989 294.793 132.286 293.606 132.286C290.368 132.286 290.38 132.322 289.096 129.34C288.206 127.272 287.223 125.248 286.398 123.156C285.988 122.112 285.386 121.843 284.318 121.868C281.246 121.945 278.174 121.896 275.106 121.896ZM275.224 97.7482C272.221 104.607 269.401 111.064 266.561 117.512C266.171 118.394 266.618 118.43 267.297 118.43C272.567 118.418 277.837 118.406 283.107 118.438C284.123 118.446 284.208 118.182 283.81 117.297C282.022 113.335 280.291 109.349 278.548 105.367C277.479 102.949 276.431 100.523 275.224 97.7482Z" fill="#162D3D"/>
<path d="M253.929 65.3518C252.661 65.6932 251.897 65.0633 251.344 63.6087C250.365 61.0326 249.114 58.5621 248.029 56.0267C247.704 55.2668 247.289 54.9499 246.428 54.958C240.138 54.9946 233.844 54.9986 227.554 54.954C226.624 54.9458 226.181 55.2953 225.839 56.0957C224.779 58.5906 223.576 61.0245 222.613 63.5518C222.069 64.9739 221.317 65.4778 219.793 65.3925C217.274 65.2502 217.27 65.3518 218.302 63.052C223.629 51.2158 228.968 39.3835 234.25 27.527C234.701 26.5152 235.242 26.2836 236.286 26.1576C238.48 25.8895 239.435 26.7753 240.309 28.7744C245.408 40.4319 250.686 52.0081 255.916 63.6087C256.708 65.3681 256.74 65.3559 254.79 65.3518C254.587 65.3518 254.384 65.3518 253.929 65.3518ZM236.944 30.8426C233.95 37.7095 231.146 44.166 228.302 50.6063C227.887 51.5408 228.375 51.5124 229.013 51.5124C234.323 51.5083 239.634 51.5002 244.945 51.5246C245.887 51.5286 245.936 51.2605 245.579 50.4641C243.519 45.8523 241.507 41.2202 239.476 36.5921C238.687 34.7921 237.891 32.992 236.944 30.8426Z" fill="#162D3D"/>
<path d="M204.918 121.417C206.08 119.483 206.746 117.5 207.156 115.452C207.347 114.497 207.583 114.306 208.53 114.619C210.61 115.31 210.61 115.245 210.045 117.349C209.513 119.332 208.798 121.238 207.754 123.001C207.36 123.668 207.433 124.05 207.957 124.566C209.237 125.817 210.427 127.154 211.715 128.397C212.378 129.035 212.634 129.551 211.801 130.23C211.488 130.482 211.236 130.827 211.013 131.168C210.537 131.908 210.159 131.729 209.647 131.164C208.473 129.88 207.209 128.682 206.043 127.398C205.474 126.772 205.182 126.626 204.41 127.296C199.042 131.973 192.874 132.782 186.389 130.291C180.046 127.853 178.494 120.925 182.87 115.732C184.471 113.831 186.47 112.4 188.579 111.145C189.449 110.625 189.461 110.328 188.782 109.621C187.003 107.768 185.402 105.785 185.032 103.1C184.345 98.0976 187.36 94.4285 192.708 93.8434C194.438 93.6565 196.178 93.6971 197.876 94.2132C202.817 95.7166 204.694 101.364 201.643 105.586C200.111 107.707 197.957 109.101 195.775 110.434C195.145 110.816 194.841 111.039 195.519 111.73C198.648 114.883 201.716 118.101 204.918 121.417ZM192.923 128.401C196.531 128.332 199.631 127.369 202.207 124.988C202.719 124.517 202.988 124.204 202.342 123.546C199.002 120.153 195.718 116.707 192.415 113.286C192.139 112.998 191.923 112.656 191.399 112.981C189.087 114.408 186.714 115.769 185.199 118.121C183.151 121.295 184.183 125.236 187.482 127.089C189.225 128.072 191.143 128.312 192.923 128.401ZM188.47 102.21C188.555 104.713 190.603 106.553 192.447 108.52C192.671 108.76 192.931 108.621 193.138 108.496C195.239 107.244 197.417 106.062 198.888 104.03C200.797 101.389 199.696 97.8864 196.681 96.9478C194.983 96.4195 193.26 96.4602 191.586 97.1143C189.563 97.8985 188.449 99.5645 188.47 102.21Z" fill="#0E2839"/>
<path d="M240.414 132.79C233.978 132.725 229.403 131.607 225.401 128.556C224.592 127.938 224.157 127.414 224.917 126.484C225.169 126.171 225.356 125.781 225.482 125.399C225.823 124.387 226.148 124.33 227.067 125.021C232.162 128.869 237.858 129.998 244.01 128.239C247.631 127.203 249.374 124.452 248.829 121.104C248.48 118.963 247.058 117.703 245.233 116.833C242.023 115.306 238.5 114.786 235.124 113.794C232.158 112.925 229.212 111.925 227.233 109.373C223.089 104.026 225.673 96.1067 232.442 93.7988C238.651 91.6818 244.729 92.336 250.536 95.4241C251.45 95.9117 251.718 96.4521 251.133 97.3623C250.914 97.6995 250.772 98.1018 250.666 98.4918C250.39 99.532 249.963 99.5686 249.037 99.0363C244.498 96.4358 239.667 95.5785 234.579 97.1063C232.324 97.7848 230.573 99.1298 229.858 101.519C228.997 104.392 230.02 106.931 232.678 108.414C235.807 110.162 239.354 110.617 242.73 111.596C244.551 112.12 246.347 112.689 248.033 113.579C251.113 115.208 252.954 117.634 253.136 121.205C253.344 125.252 251.775 128.393 248.313 130.486C245.437 132.229 242.255 132.879 240.414 132.79Z" fill="#152C3C"/>
<path d="M308.21 65.8192C302.363 65.7948 297.869 64.7018 293.96 61.7356C293.501 61.3902 292.712 61.1017 292.989 60.3541C293.338 59.4073 293.777 58.4403 294.403 57.6601C294.772 57.1969 295.154 57.9446 295.488 58.1884C300.713 61.9591 306.438 63.1252 312.622 61.248C316.848 59.964 318.608 55.6813 316.495 52.2763C315.645 50.9111 314.309 50.1553 312.874 49.5621C309.888 48.3228 306.694 47.7824 303.606 46.9006C302.025 46.4496 300.494 45.9011 299.031 45.1494C295.715 43.4347 293.838 40.8098 293.765 36.9863C293.684 32.8743 295.358 29.7618 298.945 27.7464C302.936 25.5076 307.263 25.4507 311.635 26.0114C314.028 26.3162 316.279 27.141 318.453 28.23C319.701 28.8517 320.103 29.4408 319.42 30.8183C318.494 32.6874 318.628 32.6914 316.836 31.765C312.452 29.4977 307.868 28.7379 303.045 30.1641C302.159 30.4282 301.327 30.8142 300.579 31.3709C296.78 34.2111 297.125 39.3471 301.29 41.6062C304.346 43.264 307.783 43.715 311.066 44.6577C312.639 45.1087 314.207 45.5801 315.69 46.283C319.115 47.9083 321.354 50.3341 321.513 54.377C321.692 58.8751 319.745 62.0525 315.828 64.0598C313.126 65.4413 310.213 65.9248 308.21 65.8192Z" fill="#152C3C"/>
<path d="M274.428 65.8313C268.528 65.7704 264.038 64.6652 260.141 61.6665C259.719 61.3414 258.991 61.057 259.247 60.3987C259.633 59.4154 260.125 58.4362 260.763 57.6032C261.047 57.2335 261.405 57.9202 261.71 58.1396C266.915 61.9428 272.632 63.0967 278.832 61.2723C282.315 60.2484 284.066 57.4244 283.501 54.1779C283.087 51.7806 281.388 50.5291 279.34 49.6474C276.272 48.3227 272.969 47.7945 269.783 46.8762C268.207 46.4211 266.675 45.8645 265.216 45.1046C262.067 43.4671 260.231 40.9601 260.052 37.3438C259.853 33.3334 261.21 29.9487 264.79 28.0349C271.73 24.3251 278.674 25.1215 285.468 28.6728C286.158 29.0345 286.268 29.5261 285.919 30.1925C285.752 30.5094 285.598 30.8385 285.504 31.1839C285.155 32.4557 284.692 32.7036 283.383 31.9641C278.934 29.4489 274.176 28.6647 269.202 30.2006C266.049 31.1758 264.192 33.5609 264.217 36.454C264.237 38.8432 265.464 40.4929 267.516 41.594C270.58 43.2396 274.009 43.7109 277.292 44.6496C278.869 45.1006 280.425 45.58 281.92 46.2627C286.045 48.148 288.145 51.2564 287.78 55.8763C287.438 60.1834 284.972 62.8855 281.161 64.4945C278.678 65.5388 276.053 65.9451 274.428 65.8313Z" fill="#152C3C"/>
<path d="M347.107 45.7995C347.107 39.7655 347.152 33.7275 347.075 27.6936C347.058 26.4055 347.489 26.1861 348.639 26.1942C356.465 26.2389 364.291 26.2836 372.117 26.1658C373.982 26.1374 373.799 27.0557 373.88 28.3071C373.974 29.7496 373.372 30.0056 372.104 29.9975C365.66 29.9487 359.216 30.0056 352.767 29.9446C351.532 29.9324 351.199 30.3063 351.219 31.5131C351.288 35.5519 351.292 39.5949 351.219 43.6337C351.199 44.7958 351.528 45.1006 352.67 45.0884C358.346 45.0315 364.027 45.1128 369.703 45.0274C371.19 45.0031 371.231 45.706 371.17 46.795C371.113 47.7945 371.442 48.7778 369.727 48.7453C364.051 48.6397 358.371 48.7372 352.694 48.6803C351.532 48.6681 351.211 49.0257 351.227 50.1593C351.284 54.7102 351.203 59.2651 351.284 63.8159C351.305 65.039 350.984 65.4087 349.761 65.3803C347.111 65.3193 347.107 65.3803 347.107 62.6782C347.107 57.0506 347.107 51.423 347.107 45.7995Z" fill="#152C3C"/>
<path d="M74.0117 79.4351C73.3047 80.52 72.4636 81.4749 71.3015 82.1006C71.269 81.4383 71.208 80.776 71.208 80.1177C71.204 68.505 71.2162 56.8922 71.1918 45.2794C71.1877 43.0324 71.0577 40.7895 70.6636 38.5628C69.6803 33.0043 66.7547 29.9812 61.2206 28.8801C59.0548 28.4494 56.8648 28.2706 54.6584 28.3681C53.7889 28.4087 53.3338 28.2178 53.35 27.206C53.3663 26.2836 53.6466 25.9626 54.5934 25.9626C66.4622 25.987 78.3309 25.9952 90.1956 25.9586C91.2683 25.9545 91.313 26.4665 91.3415 27.2751C91.374 28.1812 90.9921 28.3925 90.151 28.3722C87.6846 28.3031 85.2547 28.5997 82.8655 29.2376C78.6235 30.3713 75.9783 33.0815 74.8894 37.3073C74.3002 39.5908 74.028 41.9272 74.028 44.292C74.0239 56.0064 74.0158 67.7207 74.0117 79.4351Z" fill="#111D4C"/>
<path d="M310.449 114.643C310.449 120.064 310.42 125.484 310.477 130.904C310.489 131.993 310.176 132.298 309.104 132.282C306.324 132.245 306.324 132.294 306.324 129.564C306.324 119.235 306.288 108.902 306.361 98.5731C306.373 97.0819 305.906 96.8015 304.541 96.8421C301.168 96.9396 297.792 96.8137 294.415 96.9071C293.094 96.9437 292.647 96.4967 292.834 95.2493C292.879 94.9486 292.879 94.6317 292.834 94.331C292.688 93.3558 293.135 93.0999 294.049 93.1161C296.503 93.1608 298.958 93.1324 301.412 93.1324C308.417 93.1324 315.426 93.2055 322.427 93.0836C324.402 93.0511 323.833 94.2254 323.943 95.2453C324.077 96.4724 323.723 96.9478 322.374 96.9071C318.847 96.8055 315.316 96.9234 311.789 96.8421C310.668 96.8177 310.412 97.1712 310.42 98.2196C310.469 103.701 310.445 109.174 310.449 114.643Z" fill="#132A3A"/>
<path d="M334.373 45.8605C334.373 51.8456 334.336 57.8308 334.405 63.8119C334.418 65.0268 334.117 65.4088 332.886 65.3763C330.273 65.3072 330.273 65.3722 330.273 62.8042C330.273 51.1955 330.297 39.5827 330.241 27.974C330.232 26.5966 330.529 25.9586 331.984 26.2065C332.333 26.2674 332.703 26.2552 333.056 26.2065C334.162 26.0561 334.41 26.5478 334.401 27.6002C334.349 33.6869 334.373 39.7737 334.373 45.8605Z" fill="#132A3A"/>
<path d="M22.5831 176.673C22.5831 173.812 22.6074 170.948 22.5668 168.087C22.5546 167.275 22.7171 166.852 23.6476 166.876C26.2522 166.941 28.8648 166.824 31.4613 166.998C36.711 167.348 39.9819 170.566 40.6036 175.791C41.1359 180.285 38.3322 184.499 33.7367 185.974C32.9809 186.218 32.1236 186.185 31.3109 186.197C28.808 186.226 26.3009 186.169 23.802 186.246C22.7781 186.274 22.5343 185.953 22.5587 184.954C22.6318 182.195 22.5831 179.432 22.5831 176.673ZM24.7366 176.535C24.7366 178.835 24.7406 181.139 24.7325 183.438C24.7325 183.971 24.6797 184.503 25.4639 184.474C27.7596 184.389 30.0757 184.706 32.3511 184.255C36.199 183.487 38.5273 180.574 38.5354 176.608C38.5435 172.687 36.1584 169.749 32.3308 168.969C30.1001 168.514 27.8409 168.827 25.598 168.717C24.7691 168.677 24.7203 169.152 24.7244 169.786C24.7447 172.037 24.7325 174.288 24.7366 176.535Z" fill="#243544"/>
<path d="M125.444 176.612C125.444 173.8 125.489 170.988 125.42 168.181C125.396 167.153 125.725 166.844 126.72 166.876C129.325 166.958 131.937 166.815 134.534 167.011C139.605 167.388 142.925 170.753 143.485 175.856C143.981 180.33 141.08 184.584 136.545 186.014C136.163 186.136 135.741 186.173 135.334 186.177C132.372 186.201 129.406 186.189 126.444 186.238C125.656 186.25 125.404 186.035 125.42 185.202C125.481 182.337 125.444 179.477 125.444 176.612ZM127.602 176.628C127.602 178.879 127.61 181.13 127.598 183.377C127.594 183.966 127.537 184.527 128.415 184.483C130.71 184.373 133.022 184.718 135.298 184.231C139.129 183.414 141.433 180.484 141.401 176.519C141.372 172.662 139.036 169.802 135.257 168.981C133.128 168.518 130.97 168.847 128.837 168.705C127.769 168.632 127.549 169.05 127.582 170.03C127.651 172.228 127.602 174.426 127.602 176.628Z" fill="#243544"/>
<path d="M315.991 176.527C315.991 173.719 316.015 170.907 315.975 168.099C315.962 167.287 316.129 166.86 317.051 166.88C319.757 166.945 322.472 166.807 325.166 167.01C330.2 167.392 333.548 170.858 334.032 175.929C334.462 180.488 331.561 184.743 327.01 186.006C325.332 186.473 323.553 186.185 321.822 186.213C320.237 186.238 318.652 186.177 317.072 186.234C316.202 186.266 315.946 185.99 315.966 185.104C316.031 182.248 315.991 179.387 315.991 176.527ZM318.132 176.608C318.132 178.859 318.136 181.11 318.128 183.361C318.124 183.946 318.059 184.519 318.937 184.482C321.232 184.381 323.548 184.718 325.824 184.243C329.668 183.442 331.947 180.541 331.923 176.543C331.902 172.65 329.586 169.79 325.816 168.989C323.536 168.506 321.224 168.827 318.929 168.725C318.047 168.685 318.124 169.282 318.124 169.859C318.132 172.106 318.132 174.357 318.132 176.608Z" fill="#253645"/>
<path d="M70.8871 186.222C65.3732 186.652 60.9768 181.931 60.9443 176.661C60.9118 171.224 65.2229 166.937 70.8261 166.901C76.5147 166.86 80.8136 171.123 80.8299 176.677C80.842 181.577 76.726 186.636 70.8871 186.222ZM78.6438 176.612C78.6438 172.13 75.3729 168.75 71.0049 168.725C66.5069 168.697 63.1384 172.033 63.11 176.543C63.0816 181.151 66.4256 184.511 71.013 184.478C75.4217 184.446 78.6398 181.126 78.6438 176.612Z" fill="#243544"/>
<path d="M254.721 186.222C248.988 186.66 244.685 181.72 244.742 176.539C244.798 171.11 249.053 166.95 254.595 166.901C260.284 166.848 264.595 171.086 264.631 176.649C264.66 181.594 260.503 186.632 254.721 186.222ZM262.47 176.766C262.535 172.22 259.239 168.762 254.81 168.725C250.353 168.689 246.919 172.069 246.879 176.543C246.838 181.045 250.158 184.43 254.656 184.478C259.069 184.523 262.409 181.228 262.47 176.766Z" fill="#243544"/>
<path d="M346.575 186.222C341.057 186.64 336.673 181.943 336.636 176.648C336.6 171.204 340.939 166.917 346.53 166.897C352.178 166.876 356.404 171.013 356.514 176.535C356.619 181.524 352.434 186.656 346.575 186.222ZM354.368 176.665C354.385 172.122 351.045 168.701 346.607 168.721C342.191 168.741 338.834 172.081 338.798 176.49C338.757 181.11 342.085 184.487 346.664 184.474C351.073 184.466 354.352 181.142 354.368 176.665Z" fill="#243544"/>
<path d="M156.049 186.222C150.474 186.644 146.134 181.898 146.102 176.669C146.069 171.216 150.364 166.941 155.976 166.901C161.652 166.856 165.971 171.127 165.992 176.673C166.008 181.545 161.9 186.64 156.049 186.222ZM156.11 184.479C160.506 184.479 163.814 181.134 163.834 176.673C163.854 172.155 160.482 168.705 156.061 168.725C151.583 168.746 148.231 172.138 148.239 176.641C148.256 181.151 151.591 184.479 156.11 184.479Z" fill="#243544"/>
<path d="M100.411 180.476C100.411 180.578 100.427 180.683 100.407 180.781C100.203 181.951 101.016 183.394 99.9149 184.267C98.5253 185.372 96.9284 186.12 95.035 186.226C91.76 186.413 88.7247 186.031 86.2339 183.633C83.3409 180.85 82.516 176.6 84.1576 172.748C85.7057 169.115 89.769 166.694 93.9541 166.913C96.1036 167.027 98.0865 167.583 99.7077 169.091C100.159 169.509 100.699 169.855 100.037 170.582C99.4355 171.244 99.0616 171.11 98.4115 170.582C95.2787 168.039 90.9798 168.14 88.1477 170.745C85.1572 173.5 84.5558 177.77 86.7012 181.045C88.8385 184.312 94.0801 185.515 97.5338 183.568C98.1433 183.223 98.4278 182.837 98.4034 182.122C98.3587 180.692 98.4196 179.257 98.3709 177.827C98.3424 177.043 98.5903 176.722 99.4111 176.734C100.244 176.746 100.472 177.104 100.423 177.868C100.374 178.733 100.411 179.607 100.411 180.476Z" fill="#243544"/>
<path d="M122.324 186.026C120.889 186.51 119.841 186.339 119.504 184.751C118.858 181.719 117.038 180.696 114.006 181.159C112.259 181.427 110.431 181.244 108.643 181.191C107.818 181.167 107.306 181.374 107.03 182.219C106.762 183.04 106.217 183.784 106.01 184.612C105.624 186.157 104.718 186.526 103.133 186.055C104.141 183.788 105.136 181.533 106.144 179.281C107.859 175.458 109.598 171.643 111.288 167.811C111.577 167.157 111.934 166.852 112.661 166.876C113.316 166.901 113.815 166.97 114.132 167.681C116.838 173.792 119.577 179.891 122.324 186.026ZM112.706 169.233C111.227 172.638 109.927 175.629 108.631 178.615C108.367 179.225 108.61 179.46 109.232 179.456C111.585 179.448 113.937 179.452 116.294 179.448C116.973 179.448 117.058 179.111 116.814 178.554C115.489 175.576 114.181 172.593 112.706 169.233Z" fill="#263645"/>
<path d="M19.4706 186.051C17.8696 186.526 16.8904 186.181 16.5816 184.629C15.9965 181.695 14.2208 180.757 11.3197 181.163C9.46276 181.423 7.54085 181.24 5.64737 181.195C4.8591 181.175 4.43652 181.459 4.16021 182.195C3.74576 183.296 3.23786 184.357 2.77059 185.437C2.61212 185.803 2.54304 186.254 1.98637 186.218C1.4297 186.181 0.682067 186.352 0.365133 186.055C-0.077762 185.649 0.629247 185.194 0.824283 184.755C3.28662 179.249 5.77333 173.756 8.20316 168.234C8.62574 167.271 9.12552 166.702 10.251 166.889C10.698 166.962 11.0027 167.112 11.1937 167.539C13.9405 173.682 16.6913 179.83 19.4706 186.051ZM9.84877 169.233C8.38194 172.606 7.08982 175.584 5.78552 178.554C5.47265 179.269 5.77739 179.46 6.44376 179.456C8.73544 179.448 11.0271 179.452 13.3188 179.456C13.8633 179.456 14.2696 179.326 13.9811 178.66C12.6646 175.641 11.3359 172.622 9.84877 169.233Z" fill="#253645"/>
<path d="M190.802 186.051C193.569 179.883 196.316 173.788 199.026 167.677C199.343 166.958 199.839 166.897 200.489 166.876C201.216 166.852 201.578 167.165 201.866 167.815C204.458 173.65 207.083 179.473 209.692 185.303C209.818 185.584 210.216 186.079 209.651 186.14C208.977 186.213 208.075 186.669 207.616 185.718C207.083 184.613 206.604 183.483 206.161 182.341C205.844 181.52 205.365 181.167 204.442 181.187C201.732 181.248 199.022 181.24 196.316 181.191C195.479 181.175 194.983 181.407 194.703 182.223C194.422 183.04 193.898 183.788 193.691 184.621C193.301 186.161 192.395 186.534 190.802 186.051ZM200.399 169.241C198.924 172.614 197.604 175.629 196.287 178.648C195.913 179.505 196.527 179.452 197.051 179.452C198.892 179.456 200.732 179.452 202.569 179.452C204.857 179.452 204.857 179.452 203.951 177.376C202.817 174.779 201.683 172.183 200.399 169.241Z" fill="#253645"/>
<path d="M312.757 186.063C311.395 186.514 310.379 186.274 310.042 184.714C309.384 181.671 307.519 180.72 304.52 181.159C302.716 181.423 300.843 181.228 299.002 181.195C298.295 181.183 297.865 181.394 297.609 182.097C297.296 182.959 296.739 183.751 296.532 184.633C296.154 186.213 295.228 186.522 293.667 186.055C294.35 184.531 295.028 183.024 295.703 181.516C297.731 176.994 299.766 172.471 301.774 167.941C302.07 167.266 302.383 166.844 303.216 166.872C303.968 166.897 304.423 167.084 304.748 167.823C307.393 173.804 310.079 179.769 312.748 185.742C312.789 185.823 312.757 185.937 312.757 186.063ZM303.253 169.253C301.761 172.667 300.416 175.722 299.1 178.79C298.832 179.412 299.311 179.456 299.75 179.456C302.099 179.46 304.447 179.46 306.796 179.456C307.239 179.456 307.714 179.395 307.45 178.782C306.121 175.718 304.76 172.667 303.253 169.253Z" fill="#253645"/>
<path d="M366.359 186.177C364.145 186.498 362.121 185.779 360.219 184.548C359.472 184.064 359.273 183.585 359.797 182.8C360.378 181.931 360.76 182.695 361.154 182.934C363.442 184.336 365.904 184.779 368.517 184.251C370.394 183.873 371.507 182.743 371.56 181.289C371.609 179.924 370.776 178.896 368.947 178.306C367.294 177.778 365.587 177.417 363.925 176.909C362.596 176.498 361.329 175.929 360.512 174.706C358.753 172.069 360.118 168.522 363.373 167.449C366.27 166.494 369.122 166.775 371.889 168.034C372.588 168.351 372.978 168.676 372.564 169.546C372.137 170.444 371.657 170.074 371.089 169.798C368.992 168.778 366.814 168.412 364.539 169.083C363.133 169.501 362.019 170.245 361.906 171.891C361.784 173.585 362.832 174.438 364.234 174.897C366.318 175.584 368.48 176.047 370.54 176.803C372.954 177.689 374.339 180.05 373.835 182.028C373.356 183.914 370.768 186.039 368.748 186.169C367.984 186.222 367.212 186.177 366.359 186.177Z" fill="#263645"/>
<path d="M218.412 186.181C216.157 186.502 214.088 185.779 212.158 184.482C211.447 184.007 211.354 183.564 211.793 182.849C212.321 181.992 212.715 182.63 213.142 182.902C215.36 184.304 217.774 184.751 220.338 184.3C222.337 183.946 223.499 182.849 223.588 181.358C223.674 179.899 222.743 178.871 220.752 178.229C218.712 177.571 216.543 177.335 214.596 176.384C212.028 175.133 211.082 172.589 212.252 170.107C212.878 168.778 213.975 167.941 215.32 167.49C218.265 166.499 221.15 166.779 223.97 168.059C224.75 168.412 224.921 168.839 224.559 169.615C224.177 170.432 223.702 170.09 223.194 169.839C221.106 168.81 218.94 168.437 216.652 169.071C214.929 169.546 214.019 170.533 213.954 171.98C213.873 173.682 214.95 174.491 216.339 174.946C218.424 175.629 220.577 176.112 222.642 176.84C224.466 177.482 225.624 178.847 225.721 180.842C225.819 182.804 224.844 184.214 223.219 185.279C221.752 186.234 220.155 186.291 218.412 186.181Z" fill="#263645"/>
<path d="M175.256 186.193C173.159 186.51 171.144 185.771 169.242 184.548C168.486 184.06 168.324 183.532 168.836 182.78C169.405 181.947 169.799 182.695 170.205 182.943C172.7 184.446 175.349 184.881 178.153 184.084C179.53 183.69 180.514 182.837 180.583 181.285C180.652 179.761 179.689 178.948 178.401 178.489C177.296 178.099 176.142 177.847 175.02 177.506C173.947 177.181 172.859 176.88 171.822 176.454C169.909 175.661 168.755 174.263 168.779 172.11C168.799 170.042 170.132 168.225 172.245 167.51C175.24 166.494 178.177 166.746 181.042 168.095C181.741 168.425 181.94 168.782 181.623 169.522C181.241 170.411 180.758 170.099 180.164 169.814C178.226 168.88 176.215 168.469 174.065 168.969C172.123 169.42 171.063 170.383 170.973 171.866C170.876 173.451 171.68 174.426 173.679 175.076C175.67 175.722 177.767 176.002 179.705 176.831C181.436 177.571 182.59 178.806 182.724 180.736C182.858 182.691 181.94 184.137 180.323 185.23C178.807 186.242 177.153 186.274 175.256 186.193Z" fill="#263645"/>
<path d="M235.193 186.185C233.031 186.518 231.02 185.758 229.11 184.556C228.351 184.076 228.18 183.556 228.692 182.796C229.261 181.951 229.651 182.699 230.057 182.943C232.552 184.442 235.201 184.881 238.005 184.084C239.382 183.69 240.361 182.849 240.431 181.289C240.5 179.753 239.549 178.952 238.257 178.497C237.152 178.107 236.002 177.843 234.88 177.506C233.852 177.197 232.812 176.925 231.821 176.527C229.854 175.734 228.615 174.357 228.643 172.114C228.672 170.034 229.964 168.242 232.101 167.51C235.096 166.486 238.033 166.75 240.898 168.091C241.585 168.412 241.816 168.762 241.479 169.513C241.089 170.387 240.63 170.099 240.02 169.81C238.086 168.884 236.075 168.461 233.921 168.965C231.963 169.424 230.906 170.367 230.805 171.85C230.695 173.451 231.56 174.442 233.661 175.109C235.656 175.742 237.757 176.015 239.679 176.884C242.487 178.152 243.462 181.13 241.804 183.625C240.8 185.137 239.293 185.986 237.477 186.173C236.77 186.246 236.046 186.185 235.193 186.185Z" fill="#263645"/>
<path d="M277.926 186.222C273.05 186.23 269.584 184.011 268.158 180.212C266.74 176.433 267.833 171.972 270.803 169.408C274.013 166.637 278.621 166.104 282.262 168.103C282.749 168.372 283.209 168.709 283.639 169.071C284.106 169.461 284.635 169.843 283.968 170.566C283.387 171.2 283.022 171.167 282.347 170.606C279.023 167.864 274.383 168.262 271.616 171.443C268.886 174.584 269.048 179.493 271.978 182.321C274.631 184.885 279.068 185.226 282.164 183.02C282.916 182.483 283.452 182.235 284.05 183.093C284.708 184.04 283.737 184.226 283.294 184.564C281.604 185.84 279.706 186.498 277.926 186.222Z" fill="#253645"/>
<path d="M50.4773 183.524C51.3468 181.537 52.0782 179.879 52.8015 178.217C54.2886 174.8 55.7758 171.383 57.2589 167.961C57.4823 167.449 57.6043 166.848 58.36 166.897C58.7582 166.925 59.2255 166.734 59.5343 167.059C59.9163 167.466 59.4612 167.815 59.3149 168.156C56.8566 173.877 54.3536 179.582 51.936 185.324C51.6028 186.116 51.1884 186.226 50.4651 186.242C49.6606 186.258 49.2339 186.063 48.8886 185.234C46.5156 179.586 44.0533 173.975 41.6478 168.339C41.4691 167.921 40.693 167.287 41.5666 166.982C42.237 166.75 43.1878 166.547 43.6429 167.636C44.8456 170.509 46.093 173.361 47.3242 176.222C48.3278 178.546 49.3315 180.866 50.4773 183.524Z" fill="#243544"/>
<path d="M290.738 176.563C290.738 179.424 290.697 182.288 290.762 185.149C290.782 186.071 290.449 186.254 289.624 186.242C288.848 186.234 288.576 186.043 288.584 185.206C288.625 179.481 288.621 173.756 288.588 168.03C288.584 167.161 288.865 166.885 289.726 166.864C290.73 166.844 290.754 167.388 290.75 168.128C290.726 170.944 290.738 173.751 290.738 176.563Z" fill="#243544"/>
<path d="M330.525 112.762C330.423 103.823 337.221 96.8055 345.88 96.5211C354.722 96.2326 362.413 102.384 362.596 112.628C362.759 121.494 355.876 128.564 347.396 128.873C338.416 129.198 330.606 122.814 330.525 112.762Z" fill="#FCFCFC"/>
<path d="M275.224 97.7482C276.431 100.523 277.479 102.949 278.544 105.371C280.287 109.353 282.018 113.339 283.806 117.301C284.204 118.186 284.119 118.446 283.103 118.442C277.833 118.41 272.563 118.422 267.293 118.434C266.614 118.434 266.171 118.398 266.557 117.516C269.402 111.063 272.221 104.603 275.224 97.7482Z" fill="#FAFAFA"/>
<path d="M236.944 30.8427C237.895 32.9962 238.691 34.7921 239.48 36.5922C241.511 41.2162 243.523 45.8523 245.583 50.4641C245.94 51.2605 245.887 51.5287 244.949 51.5246C239.638 51.5003 234.327 51.5084 229.017 51.5124C228.379 51.5124 227.891 51.5409 228.306 50.6063C231.146 44.1661 233.946 37.7055 236.944 30.8427Z" fill="#FAFAFA"/>
<path d="M192.923 128.401C191.143 128.312 189.225 128.072 187.478 127.093C184.179 125.236 183.147 121.295 185.195 118.125C186.714 115.773 189.087 114.412 191.395 112.985C191.919 112.66 192.135 113.002 192.411 113.29C195.714 116.715 199.002 120.161 202.337 123.55C202.984 124.204 202.715 124.517 202.203 124.992C199.631 127.369 196.531 128.336 192.923 128.401Z" fill="#FCFCFC"/>
<path d="M188.47 102.21C188.449 99.5645 189.563 97.8986 191.586 97.1103C193.26 96.4561 194.983 96.4155 196.681 96.9437C199.7 97.8864 200.801 101.385 198.888 104.026C197.417 106.058 195.239 107.244 193.138 108.491C192.931 108.613 192.671 108.756 192.447 108.516C190.603 106.557 188.555 104.713 188.47 102.21Z" fill="#FCFCFC"/>
<path d="M24.7366 176.535C24.7366 174.284 24.7487 172.033 24.7284 169.782C24.7244 169.148 24.7691 168.672 25.602 168.713C27.845 168.823 30.1041 168.51 32.3349 168.965C36.1624 169.745 38.5476 172.683 38.5394 176.604C38.5313 180.57 36.2031 183.483 32.3552 184.251C30.0797 184.706 27.7637 184.389 25.4679 184.47C24.6837 184.499 24.7366 183.966 24.7366 183.434C24.7406 181.138 24.7366 178.839 24.7366 176.535Z" fill="#FBFAFB"/>
<path d="M127.602 176.628C127.602 174.43 127.651 172.228 127.582 170.034C127.549 169.054 127.769 168.636 128.837 168.709C130.974 168.855 133.132 168.526 135.257 168.985C139.032 169.806 141.372 172.667 141.401 176.523C141.429 180.488 139.129 183.418 135.298 184.235C133.022 184.718 130.706 184.373 128.415 184.487C127.537 184.527 127.594 183.971 127.598 183.381C127.61 181.126 127.602 178.875 127.602 176.628Z" fill="#FBFAFB"/>
<path d="M318.132 176.608C318.132 174.357 318.132 172.106 318.128 169.855C318.128 169.278 318.051 168.685 318.933 168.721C321.228 168.823 323.536 168.502 325.82 168.985C329.591 169.786 331.907 172.646 331.927 176.539C331.951 180.537 329.672 183.438 325.828 184.239C323.553 184.714 321.237 184.377 318.941 184.478C318.059 184.519 318.128 183.946 318.132 183.357C318.136 181.106 318.132 178.855 318.132 176.608Z" fill="#FAFAFA"/>
<path d="M78.6437 176.612C78.6437 181.126 75.4216 184.446 71.013 184.474C66.4296 184.507 63.0815 181.147 63.1099 176.539C63.1384 172.029 66.5068 168.693 71.0048 168.721C75.3728 168.75 78.6437 172.13 78.6437 176.612Z" fill="#FAFAFA"/>
<path d="M262.47 176.766C262.409 181.228 259.069 184.523 254.656 184.474C250.158 184.426 246.838 181.041 246.879 176.539C246.92 172.069 250.349 168.685 254.81 168.721C259.239 168.762 262.535 172.224 262.47 176.766Z" fill="#FAFAFA"/>
<path d="M354.368 176.665C354.352 181.142 351.073 184.466 346.664 184.474C342.085 184.487 338.761 181.11 338.798 176.49C338.834 172.081 342.191 168.741 346.607 168.721C351.045 168.701 354.385 172.122 354.368 176.665Z" fill="#FAFAFA"/>
<path d="M156.11 184.478C151.591 184.478 148.251 181.155 148.243 176.64C148.235 172.138 151.583 168.746 156.065 168.725C160.486 168.705 163.858 172.151 163.838 176.673C163.814 181.13 160.506 184.474 156.11 184.478Z" fill="#FAFAFA"/>
<path d="M112.706 169.233C114.181 172.589 115.493 175.576 116.81 178.558C117.054 179.115 116.968 179.452 116.29 179.452C113.937 179.456 111.585 179.452 109.228 179.46C108.606 179.464 108.362 179.229 108.627 178.619C109.927 175.629 111.227 172.638 112.706 169.233Z" fill="#F4F3F4"/>
<path d="M9.84882 169.233C11.336 172.622 12.6647 175.641 13.9812 178.664C14.2696 179.33 13.8674 179.46 13.3189 179.46C11.0272 179.456 8.73549 179.452 6.44381 179.46C5.77744 179.464 5.4727 179.269 5.78557 178.558C7.08987 175.584 8.38199 172.606 9.84882 169.233Z" fill="#F4F3F4"/>
<path d="M200.399 169.241C201.683 172.183 202.817 174.779 203.951 177.376C204.857 179.456 204.857 179.452 202.569 179.452C200.728 179.452 198.888 179.456 197.051 179.452C196.527 179.452 195.913 179.505 196.287 178.648C197.604 175.633 198.924 172.618 200.399 169.241Z" fill="#F4F3F4"/>
<path d="M303.252 169.253C304.76 172.667 306.117 175.718 307.45 178.782C307.714 179.391 307.239 179.452 306.796 179.456C304.447 179.46 302.099 179.46 299.75 179.456C299.311 179.456 298.836 179.412 299.1 178.79C300.42 175.722 301.765 172.667 303.252 169.253Z" fill="#F4F3F4"/>
</svg>
