<svg width="372" height="152" viewBox="0 0 372 152" fill="none" xmlns="http://www.w3.org/2000/svg">
<path d="M71.9969 78.9457C74.0245 77.5398 75.5441 75.5976 77.2629 73.8788C90.6391 60.4904 103.987 47.0654 117.343 33.6526C124.957 26.0055 132.572 18.3544 140.199 10.7155C143.591 7.31454 147.029 3.95016 150.401 0.524835C150.999 -0.0805903 151.316 -0.234991 151.954 0.451699C152.555 1.09776 152.709 1.50003 151.998 2.19891C148.455 5.67299 144.953 9.1877 141.45 12.7024C129.573 24.6281 117.709 36.5659 105.836 48.4957C95.5475 58.8285 85.2594 69.1614 74.9631 79.4861C71.7897 82.6676 68.4293 85.6785 65.451 89.0307C62.4888 92.3626 59.2301 95.3856 56.2518 98.685C55.2725 99.7699 54.9028 99.5139 54.2567 98.3803C43.1965 78.9579 32.0957 59.5558 21.003 40.1497C20.8811 39.9344 20.8242 39.6662 20.4991 39.6012C19.9669 39.8003 20.1985 40.2716 20.1985 40.6333C20.1903 58.2394 20.1863 75.8454 20.2066 93.4515C20.2107 96.0073 20.3529 98.5631 20.8933 101.078C22.0473 106.43 25.241 109.4 30.6776 110.253C32.758 110.578 34.8506 110.668 36.9432 110.712C37.9062 110.733 38.1581 111.082 38.1621 111.988C38.1662 112.975 37.7274 113.175 36.8497 113.175C25.0256 113.154 13.2056 113.154 1.38153 113.179C0.418534 113.183 0.00408414 112.951 2.08852e-05 111.903C-0.00404237 110.789 0.585137 110.635 1.45467 110.651C3.71385 110.688 5.93644 110.424 8.13872 109.9C12.8724 108.77 15.6314 105.771 16.6756 101.078C17.1226 99.071 17.3298 97.0394 17.3298 94.9875C17.3298 75.4351 17.2607 55.8867 17.3989 36.3343C17.4192 33.36 16.0621 31.6453 13.9207 30.2029C11.2471 28.4028 8.18342 27.834 5.01408 27.7852C4.1933 27.7731 3.50661 27.8421 3.50255 26.6516C3.49848 25.5017 4.11205 25.4651 4.97346 25.4814C10.0891 25.5829 15.2047 25.3229 20.3204 25.6195C25.4482 25.9161 29.158 28.5207 31.8072 32.783C36.0452 39.6053 39.8728 46.6713 43.8751 53.6316C50.2016 64.6268 56.4996 75.6382 62.7733 86.6618C63.3015 87.5842 63.6672 87.7508 64.4027 86.9016C65.9711 85.0893 67.9255 83.6306 69.2826 81.6193C70.4488 80.9855 71.2858 80.0306 71.9969 78.9457Z" fill="#132B3C"/>
<path d="M145.318 46.976C145.318 51.4293 145.326 55.8826 145.31 60.3319C145.306 60.978 145.627 61.8353 144.416 61.876C143.368 61.9085 143.039 61.4249 142.856 60.4457C141.686 54.2005 139.723 48.2722 135.786 43.1525C134.876 41.97 133.767 40.9867 132.726 39.9262C131.995 39.1786 131.503 39.1786 130.743 39.9547C127.489 43.2825 124.169 46.5412 120.874 49.8284C117.002 53.6926 113.162 57.5892 109.249 61.4087C108.294 62.3432 108.359 62.8105 109.403 63.6231C113.954 67.1501 119.257 69.2061 124.445 71.4815C129.179 73.5537 133.937 75.5651 138.236 78.4906C145.534 83.464 149.219 90.3431 148.862 99.1848C148.329 112.338 139.63 122.085 126.55 124.527C118.976 125.941 111.715 124.82 104.596 122.158C103.162 121.622 101.703 121.126 100.22 120.765C97.2785 120.041 95.446 121.118 94.6455 123.987C94.4464 124.71 94.2513 125.238 93.3615 125.149C92.4229 125.056 92.5895 124.365 92.5692 123.772C92.431 119.891 92.3254 116.007 92.1628 112.126C91.9109 106.052 91.6062 99.9812 91.3705 93.9107C91.3461 93.2321 90.7732 92.2204 92.1791 92.0172C93.6216 91.8059 93.7516 92.7364 93.8978 93.736C94.7918 99.908 96.3643 105.873 99.7043 111.22C104.028 118.14 110.322 121.764 118.468 122.276C121.552 122.471 124.592 122.402 127.542 121.407C133.218 119.489 136.615 115.478 137.968 109.733C139.679 102.472 138.277 96.1495 132.194 91.2858C128.757 88.539 124.811 86.7228 120.841 84.9471C114.824 82.2573 108.578 80.0306 103.154 76.1624C101.825 75.2156 100.513 74.2161 99.3426 73.0865C98.5259 72.2982 98.083 72.4567 97.376 73.1677C92.8739 77.7105 88.3312 82.2166 83.8047 86.735C62.5133 107.994 41.2177 129.253 19.9262 150.512C19.4305 151.004 19.0892 151.637 18.24 150.748C17.4923 149.963 17.6224 149.581 18.2928 148.911C29.5846 137.7 40.8642 126.478 52.1316 115.247C56.585 110.806 61.0017 106.324 65.455 101.883C76.2064 91.1598 86.9741 80.4491 97.7336 69.7302C107.843 59.6574 117.948 49.5846 128.041 39.4955C129.228 38.3091 130.333 37.0332 131.43 35.7533C131.979 35.1153 132.507 35.0056 133.303 35.2779C134.799 35.7939 136.318 36.2571 137.858 36.6106C140.873 37.3095 142.689 36.2084 143.47 33.2178C143.652 32.523 143.843 32.0801 144.652 32.1735C145.538 32.2751 145.314 32.9496 145.314 33.4657C145.326 37.9718 145.318 42.4739 145.318 46.976Z" fill="#C5AE5B"/>
<path d="M205.012 56.6263C205.491 56.1996 205.325 55.8258 205.325 55.4926C205.333 46.1309 205.361 36.7691 205.296 27.4074C205.288 26.0624 205.605 25.6317 206.982 25.6927C209.445 25.8024 209.449 25.7171 209.449 28.1103C209.449 39.6744 209.461 51.2343 209.424 62.7983C209.42 63.4688 209.949 64.6431 208.945 64.7609C207.746 64.9031 206.332 65.4232 205.284 64.0377C202.785 60.7342 200.205 57.4917 197.661 54.2249C192.538 47.6505 187.414 41.0721 182.286 34.5018C182.136 34.3068 181.949 34.1402 181.794 33.9777C181.246 34.1808 181.449 34.5912 181.449 34.9122C181.445 44.3755 181.416 53.8429 181.481 63.3063C181.49 64.6634 181.026 64.9275 179.811 64.8909C177.304 64.8218 177.304 64.8787 177.304 62.3595C177.304 50.8483 177.296 39.3371 177.329 27.8259C177.333 27.1433 176.813 25.9609 177.776 25.839C178.97 25.6886 180.38 25.1604 181.441 26.5297C185.658 31.9948 189.925 37.4233 194.175 42.864C197.604 47.2564 201.038 51.6488 204.471 56.0412C204.63 56.224 204.805 56.3987 205.012 56.6263Z" fill="#152C3C"/>
<path d="M344.548 132.235C333.016 132.235 324.549 123.82 324.301 112.642C324.049 101.188 332.817 92.001 344.914 92.1554C355.86 92.2976 365.031 100.644 364.759 112.78C364.511 124.06 355.608 132.438 344.548 132.235ZM328.51 112.273C328.592 122.325 336.401 128.708 345.381 128.383C353.861 128.075 360.744 121.004 360.582 112.138C360.395 101.895 352.707 95.7432 343.865 96.0317C335.207 96.3121 328.409 103.333 328.51 112.273Z" fill="#142B3C"/>
<path d="M273.091 121.407C270.02 121.407 266.948 121.451 263.88 121.382C262.885 121.358 262.421 121.736 262.06 122.601C261.011 125.1 259.801 127.534 258.829 130.061C258.301 131.443 257.55 131.882 256.107 131.809C253.559 131.683 253.539 131.764 254.551 129.505C259.91 117.563 265.29 105.629 270.633 93.675C270.979 92.903 271.409 92.5414 272.25 92.6226C272.807 92.6755 273.388 92.708 273.937 92.6186C275.074 92.4357 275.546 93.0208 275.972 93.9757C281.417 106.157 286.89 118.331 292.392 130.488C292.851 131.5 292.778 131.796 291.592 131.796C288.353 131.796 288.365 131.833 287.081 128.851C286.191 126.782 285.208 124.759 284.383 122.666C283.973 121.622 283.372 121.354 282.303 121.378C279.231 121.455 276.159 121.407 273.091 121.407ZM273.209 97.2588C270.207 104.118 267.387 110.574 264.546 117.022C264.156 117.904 264.603 117.941 265.282 117.941C270.552 117.929 275.822 117.916 281.092 117.949C282.108 117.957 282.193 117.693 281.795 116.807C280.007 112.845 278.276 108.859 276.533 104.877C275.464 102.46 274.416 100.034 273.209 97.2588Z" fill="#162D3D"/>
<path d="M251.914 64.8624C250.646 65.2037 249.882 64.5739 249.33 63.1193C248.35 60.5432 247.099 58.0727 246.014 55.5372C245.689 54.7774 245.275 54.4605 244.413 54.4686C238.123 54.5051 231.829 54.5092 225.539 54.4645C224.609 54.4564 224.166 54.8058 223.825 55.6063C222.764 58.1011 221.561 60.535 220.598 63.0624C220.054 64.4845 219.302 64.9883 217.778 64.903C215.259 64.7608 215.255 64.8624 216.287 62.5626C221.614 50.7263 226.953 38.8941 232.236 27.0375C232.687 26.0258 233.227 25.7942 234.271 25.6682C236.465 25.4 237.42 26.2858 238.294 28.2849C243.393 39.9424 248.671 51.5187 253.901 63.1193C254.693 64.8786 254.726 64.8665 252.775 64.8624C252.572 64.8624 252.369 64.8624 251.914 64.8624ZM234.929 30.3531C231.935 37.22 229.131 43.6766 226.287 50.1168C225.873 51.0514 226.36 51.0229 226.998 51.0229C232.309 51.0189 237.619 51.0108 242.93 51.0351C243.873 51.0392 243.921 50.771 243.564 49.9746C241.504 45.3628 239.493 40.7307 237.461 36.1027C236.673 34.3026 235.876 32.5026 234.929 30.3531Z" fill="#162D3D"/>
<path d="M202.903 120.927C204.065 118.993 204.731 117.01 205.142 114.962C205.333 114.008 205.568 113.817 206.515 114.129C208.595 114.82 208.595 114.755 208.031 116.86C207.498 118.843 206.783 120.748 205.739 122.512C205.345 123.178 205.418 123.56 205.942 124.076C207.222 125.328 208.413 126.665 209.701 127.908C210.363 128.546 210.619 129.062 209.786 129.74C209.473 129.992 209.221 130.338 208.998 130.679C208.522 131.419 208.144 131.24 207.632 130.675C206.458 129.391 205.194 128.192 204.028 126.908C203.459 126.283 203.167 126.136 202.395 126.807C197.027 131.484 190.859 132.292 184.374 129.801C178.032 127.363 176.479 120.436 180.856 115.243C182.456 113.341 184.456 111.911 186.564 110.655C187.434 110.135 187.446 109.839 186.768 109.132C184.988 107.279 183.387 105.296 183.017 102.61C182.331 97.6082 185.345 93.9391 190.693 93.354C192.424 93.1671 194.163 93.2077 195.861 93.7237C200.802 95.2271 202.679 100.875 199.628 105.097C198.096 107.218 195.942 108.612 193.76 109.944C193.131 110.326 192.826 110.55 193.504 111.24C196.633 114.394 199.701 117.612 202.903 120.927ZM190.908 127.912C194.516 127.843 197.617 126.88 200.193 124.499C200.705 124.027 200.973 123.715 200.327 123.056C196.987 119.664 193.704 116.218 190.4 112.797C190.124 112.508 189.908 112.167 189.384 112.492C187.072 113.918 184.699 115.279 183.184 117.632C181.136 120.805 182.168 124.747 185.467 126.6C187.21 127.583 189.128 127.823 190.908 127.912ZM186.455 101.72C186.54 104.223 188.588 106.064 190.433 108.03C190.656 108.27 190.916 108.132 191.123 108.006C193.224 106.755 195.402 105.572 196.873 103.541C198.783 100.899 197.682 97.3969 194.667 96.4583C192.968 95.9301 191.245 95.9707 189.571 96.6249C187.548 97.4091 186.434 99.075 186.455 101.72Z" fill="#0E2839"/>
<path d="M238.4 132.3C231.963 132.235 227.388 131.118 223.386 128.066C222.577 127.449 222.142 126.925 222.902 125.994C223.154 125.681 223.341 125.291 223.467 124.909C223.808 123.898 224.133 123.841 225.052 124.531C230.147 128.379 235.844 129.509 241.996 127.749C245.616 126.713 247.359 123.963 246.815 120.614C246.465 118.473 245.043 117.213 243.219 116.344C240.009 114.816 236.486 114.296 233.109 113.305C230.143 112.435 227.197 111.436 225.218 108.884C221.074 103.537 223.658 95.6173 230.427 93.3094C236.636 91.1924 242.715 91.8466 248.521 94.9347C249.435 95.4222 249.704 95.9626 249.118 96.8728C248.899 97.2101 248.757 97.6123 248.651 98.0024C248.375 99.0426 247.948 99.0792 247.022 98.5469C242.483 95.9464 237.652 95.089 232.565 96.6168C230.31 97.2954 228.558 98.6403 227.843 101.03C226.982 103.902 228.006 106.442 230.663 107.925C233.792 109.672 237.339 110.127 240.716 111.106C242.536 111.631 244.332 112.199 246.018 113.089C249.098 114.719 250.939 117.144 251.122 120.716C251.329 124.763 249.76 127.904 246.299 129.996C243.422 131.74 240.24 132.39 238.4 132.3Z" fill="#152C3C"/>
<path d="M306.195 65.3297C300.348 65.3054 295.854 64.2123 291.945 61.2462C291.486 60.9008 290.698 60.6123 290.974 59.8646C291.323 58.9179 291.762 57.9508 292.388 57.1707C292.758 56.7075 293.14 57.4551 293.473 57.6989C298.698 61.4696 304.423 62.6358 310.608 60.7586C314.833 59.4746 316.593 55.1919 314.48 51.7869C313.631 50.4216 312.294 49.6659 310.859 49.0726C307.873 47.8333 304.679 47.2929 301.591 46.4112C300.011 45.9602 298.479 45.4116 297.016 44.6599C293.7 42.9452 291.823 40.3204 291.75 36.4969C291.669 32.3848 293.343 29.2724 296.931 27.257C300.921 25.0181 305.248 24.9613 309.62 25.522C312.013 25.8267 314.265 26.6516 316.438 27.7405C317.686 28.3622 318.088 28.9514 317.405 30.3288C316.479 32.1979 316.613 32.202 314.821 31.2756C310.437 29.0083 305.854 28.2484 301.03 29.6746C300.145 29.9388 299.312 30.3248 298.564 30.8814C294.765 33.7217 295.11 38.8576 299.275 41.1168C302.331 42.7746 305.768 43.2256 309.051 44.1683C310.624 44.6193 312.192 45.0906 313.675 45.7936C317.101 47.4189 319.34 49.8447 319.498 53.8876C319.677 58.3856 317.73 61.5631 313.813 63.5703C311.111 64.9518 308.198 65.4354 306.195 65.3297Z" fill="#152C3C"/>
<path d="M272.413 65.3419C266.513 65.2809 262.023 64.1757 258.127 61.177C257.704 60.852 256.977 60.5676 257.233 59.9093C257.619 58.926 258.11 57.9468 258.748 57.1138C259.033 56.744 259.39 57.4307 259.695 57.6501C264.9 61.4533 270.617 62.6073 276.818 60.7829C280.3 59.759 282.051 56.935 281.486 53.6885C281.072 51.2911 279.373 50.0396 277.325 49.1579C274.258 47.8333 270.954 47.3051 267.769 46.3868C266.192 45.9317 264.66 45.375 263.202 44.6152C260.053 42.9777 258.216 40.4707 258.037 36.8544C257.838 32.8439 259.195 29.4592 262.775 27.5455C269.715 23.8357 276.659 24.6321 283.453 28.1834C284.144 28.545 284.253 29.0367 283.904 29.7031C283.737 30.02 283.583 30.3491 283.489 30.6945C283.14 31.9663 282.677 32.2141 281.368 31.4746C276.919 28.9595 272.161 28.1753 267.188 29.7112C264.034 30.6864 262.178 33.0715 262.202 35.9645C262.222 38.3537 263.449 40.0034 265.501 41.1046C268.565 42.7502 271.994 43.2215 275.278 44.1601C276.854 44.6111 278.41 45.0906 279.906 45.7732C284.03 47.6586 286.13 50.767 285.765 55.3869C285.423 59.694 282.957 62.396 279.146 64.0051C276.663 65.0493 274.038 65.4557 272.413 65.3419Z" fill="#152C3C"/>
<path d="M345.093 45.31C345.093 39.2761 345.137 33.2381 345.06 27.2041C345.044 25.9161 345.474 25.6967 346.624 25.7048C354.45 25.7495 362.276 25.7942 370.102 25.6764C371.967 25.6479 371.784 26.5662 371.865 27.8177C371.959 29.2602 371.357 29.5161 370.09 29.508C363.645 29.4593 357.201 29.5161 350.753 29.4552C349.517 29.443 349.184 29.8168 349.205 31.0236C349.274 35.0625 349.278 39.1054 349.205 43.1443C349.184 44.3064 349.513 44.6111 350.655 44.5989C356.331 44.5421 362.012 44.6233 367.688 44.538C369.175 44.5136 369.216 45.2166 369.155 46.3055C369.098 47.3051 369.427 48.2884 367.713 48.2559C362.036 48.1502 356.356 48.2478 350.679 48.1909C349.517 48.1787 349.196 48.5362 349.213 49.6699C349.27 54.2207 349.188 58.7757 349.27 63.3265C349.29 64.5495 348.969 64.9193 347.746 64.8909C345.097 64.8299 345.093 64.8909 345.093 62.1888C345.093 56.5612 345.093 50.9336 345.093 45.31Z" fill="#152C3C"/>
<path d="M71.9969 78.9457C71.2899 80.0306 70.4488 80.9854 69.2867 81.6112C69.2542 80.9489 69.1933 80.2866 69.1933 79.6283C69.1892 68.0155 69.2014 56.4027 69.177 44.7899C69.173 42.5429 69.0429 40.3 68.6488 38.0734C67.6655 32.5148 64.7399 29.4918 59.2058 28.3906C57.0401 27.9599 54.85 27.7811 52.6436 27.8786C51.7741 27.9193 51.319 27.7283 51.3353 26.7166C51.3515 25.7942 51.6319 25.4732 52.5786 25.4732C64.4474 25.4976 76.3162 25.5057 88.1809 25.4691C89.2536 25.4651 89.2983 25.977 89.3267 26.7856C89.3592 27.6917 88.9773 27.903 88.1362 27.8827C85.6698 27.8136 83.24 28.1103 80.8508 28.7482C76.6087 29.8818 73.9635 32.592 72.8746 36.8178C72.2854 39.1014 72.0132 41.4377 72.0132 43.8026C72.0091 55.5169 72.001 67.2313 71.9969 78.9457Z" fill="#111D4C"/>
<path d="M308.434 114.154C308.434 119.574 308.405 124.995 308.462 130.415C308.475 131.504 308.162 131.809 307.089 131.792C304.31 131.756 304.31 131.805 304.31 129.074C304.31 118.745 304.273 108.412 304.346 98.0836C304.358 96.5924 303.891 96.312 302.526 96.3527C299.153 96.4502 295.777 96.3242 292.4 96.4177C291.08 96.4542 290.633 96.0073 290.82 94.7599C290.864 94.4592 290.864 94.1423 290.82 93.8416C290.673 92.8664 291.12 92.6104 292.035 92.6267C294.489 92.6714 296.943 92.6429 299.397 92.6429C306.402 92.6429 313.411 92.7161 320.412 92.5942C322.387 92.5617 321.818 93.7359 321.928 94.7558C322.062 95.9829 321.709 96.4583 320.36 96.4177C316.833 96.3161 313.302 96.4339 309.775 96.3527C308.653 96.3283 308.397 96.6818 308.405 97.7301C308.454 103.211 308.43 108.685 308.434 114.154Z" fill="#132A3A"/>
<path d="M332.358 45.371C332.358 51.3562 332.322 57.3414 332.391 63.3225C332.403 64.5374 332.102 64.9194 330.871 64.8868C328.258 64.8178 328.258 64.8828 328.258 62.3148C328.258 50.7061 328.283 39.0933 328.226 27.4846C328.218 26.1071 328.514 25.4692 329.969 25.717C330.318 25.778 330.688 25.7658 331.042 25.717C332.147 25.5667 332.395 26.0584 332.387 27.1107C332.334 33.1975 332.358 39.2843 332.358 45.371Z" fill="#132A3A"/>
</svg>
