<svg width="302" height="150" viewBox="0 0 302 150" fill="none" xmlns="http://www.w3.org/2000/svg">
<path d="M59.5644 63.7263C61.2011 62.5914 62.4278 61.0236 63.8152 59.6362C74.6127 48.8288 85.3873 37.992 96.1684 27.1649C102.315 20.9921 108.462 14.816 114.618 8.64972C117.357 5.90442 120.132 3.18864 122.854 0.423656C123.336 -0.0650538 123.592 -0.189689 124.107 0.364619C124.592 0.886128 124.717 1.21085 124.143 1.77499C121.283 4.57933 118.456 7.41646 115.628 10.2536C106.041 19.8802 96.4636 29.5166 86.8796 39.1465C78.5749 47.4874 70.2701 55.8282 61.9588 64.1625C59.3971 66.7307 56.6846 69.1611 54.2804 71.8671C51.8894 74.5566 49.2589 76.9969 46.8547 79.6602C46.0642 80.5359 45.7657 80.3293 45.2442 79.4142C36.3163 63.7361 27.3555 48.0745 18.4013 32.4095C18.3029 32.2357 18.257 32.0192 17.9946 31.9667C17.5649 32.1275 17.7519 32.5079 17.7519 32.7998C17.7453 47.0118 17.742 61.2237 17.7584 75.4356C17.7617 77.4987 17.8765 79.5618 18.3127 81.5921C19.2442 85.9117 21.8223 88.3093 26.2108 88.9981C27.8901 89.2605 29.5793 89.3327 31.2685 89.3688C32.0458 89.3852 32.2492 89.6672 32.2524 90.3987C32.2557 91.1957 31.9015 91.3564 31.193 91.3564C21.6484 91.34 12.1071 91.34 2.56252 91.3597C1.78517 91.363 1.45062 91.176 1.44734 90.3298C1.44406 89.4311 1.91966 89.3064 2.62156 89.3196C4.4452 89.3491 6.23932 89.1359 8.01704 88.7128C11.8382 87.8009 14.0652 85.3804 14.9082 81.5921C15.269 79.9718 15.4362 78.3318 15.4362 76.6754C15.4362 60.8924 15.3805 45.1127 15.492 29.3297C15.5084 26.9288 14.4129 25.5446 12.6844 24.3803C10.5262 22.9272 8.05312 22.4681 5.49477 22.4287C4.83223 22.4189 4.27792 22.4746 4.27464 21.5136C4.27136 20.5854 4.76664 20.5559 5.46198 20.569C9.59141 20.651 13.7208 20.4411 17.8503 20.6805C21.9895 20.9199 24.9841 23.0224 27.1226 26.463C30.5436 31.97 33.6333 37.6738 36.864 43.2923C41.9709 52.1678 47.0548 61.0564 52.119 69.9549C52.5454 70.6994 52.8406 70.8339 53.4342 70.1484C54.7003 68.6855 56.2779 67.508 57.3734 65.8845C58.3147 65.3728 58.9904 64.602 59.5644 63.7263Z" fill="#132B3C"/>
<path d="M118.751 37.9199C118.751 41.5147 118.757 45.1095 118.744 48.701C118.741 49.2225 119 49.9146 118.023 49.9474C117.176 49.9736 116.911 49.5833 116.763 48.7928C115.818 43.7516 114.234 38.9661 111.056 34.8334C110.321 33.879 109.426 33.0852 108.586 32.2292C107.996 31.6257 107.599 31.6257 106.986 32.2521C104.358 34.9384 101.679 37.5689 99.0186 40.2224C95.8929 43.3416 92.7933 46.487 89.6348 49.5702C88.864 50.3245 88.9165 50.7017 89.7594 51.3577C93.4329 54.2047 97.7132 55.8643 101.902 57.7011C105.723 59.3739 109.564 60.9974 113.034 63.359C118.925 67.3736 121.899 72.9265 121.611 80.0637C121.181 90.6808 114.159 98.5493 103.601 100.521C97.4869 101.662 91.6257 100.757 85.8792 98.6084C84.7214 98.1754 83.5439 97.7753 82.3468 97.4834C79.9721 96.8995 78.4929 97.7687 77.8467 100.084C77.686 100.668 77.5285 101.095 76.8102 101.022C76.0526 100.947 76.187 100.389 76.1706 99.9105C76.0591 96.7782 75.9739 93.6426 75.8427 90.5102C75.6393 85.6067 75.3933 80.7065 75.2031 75.8063C75.1834 75.2586 74.7209 74.4419 75.8558 74.2779C77.0202 74.1073 77.1251 74.8584 77.2432 75.6653C77.9648 80.6475 79.2341 85.4624 81.9302 89.7788C85.4201 95.3645 90.5007 98.2902 97.0769 98.7035C99.5664 98.8609 102.02 98.8052 104.401 98.0016C108.983 96.4535 111.725 93.2162 112.817 88.5784C114.198 82.7171 113.067 77.6135 108.157 73.6875C105.382 71.4702 102.197 70.0041 98.9924 68.5708C94.1348 66.3995 89.0936 64.6021 84.7149 61.4796C83.6423 60.7154 82.5829 59.9085 81.6383 58.9967C80.979 58.3604 80.6215 58.4883 80.0508 59.0623C76.4166 62.7292 72.7497 66.3667 69.0959 70.014C51.909 87.1746 34.7189 104.335 17.5321 121.496C17.1319 121.893 16.8564 122.404 16.1709 121.686C15.5674 121.053 15.6724 120.745 16.2136 120.203C25.3285 111.154 34.4336 102.095 43.5288 93.0292C47.1236 89.4443 50.6889 85.8265 54.2837 82.2415C62.9624 73.5858 71.6542 64.9399 80.3394 56.2875C88.4999 48.1565 96.6571 40.0256 104.804 31.8815C105.762 30.9238 106.654 29.8939 107.54 28.8607C107.983 28.3457 108.409 28.2572 109.052 28.4769C110.259 28.8935 111.486 29.2674 112.729 29.5528C115.162 30.1169 116.629 29.228 117.258 26.814C117.406 26.2532 117.56 25.8956 118.213 25.9711C118.928 26.0531 118.747 26.5975 118.747 27.0141C118.757 30.6515 118.751 34.2857 118.751 37.9199Z" fill="#C5AE5B"/>
<path d="M166.936 45.7096C167.323 45.3652 167.189 45.0635 167.189 44.7945C167.195 37.2376 167.218 29.6806 167.166 22.1237C167.159 21.038 167.415 20.6903 168.527 20.7395C170.515 20.8281 170.518 20.7592 170.518 22.6911C170.518 32.0258 170.528 41.3572 170.498 50.6918C170.495 51.233 170.921 52.1809 170.111 52.2761C169.144 52.3909 168.002 52.8107 167.156 51.6922C165.139 49.0256 163.056 46.4083 161.003 43.7712C156.867 38.4643 152.731 33.1541 148.592 27.8504C148.47 27.693 148.319 27.5585 148.195 27.4273C147.752 27.5913 147.916 27.9226 147.916 28.1817C147.913 35.8206 147.89 43.4629 147.942 51.1018C147.949 52.1973 147.575 52.4105 146.594 52.381C144.57 52.3252 144.57 52.3712 144.57 50.3376C144.57 41.0456 144.564 31.7535 144.59 22.4615C144.593 21.9105 144.173 20.956 144.951 20.8576C145.915 20.7363 147.053 20.3099 147.909 21.4152C151.314 25.8267 154.758 30.2087 158.189 34.6005C160.957 38.1461 163.728 41.6917 166.5 45.2373C166.628 45.3849 166.769 45.526 166.936 45.7096Z" fill="#152C3C"/>
<path d="M279.572 106.742C270.264 106.742 263.428 99.9497 263.228 90.9266C263.025 81.6805 270.103 74.2646 279.867 74.3892C288.704 74.504 296.106 81.241 295.887 91.0382C295.687 100.143 288.5 106.906 279.572 106.742ZM266.626 90.6282C266.692 98.7427 272.996 103.895 280.245 103.633C287.09 103.384 292.646 97.6767 292.515 90.5199C292.364 82.2512 286.158 77.2854 279.021 77.5183C272.032 77.7446 266.544 83.4123 266.626 90.6282Z" fill="#142B3C"/>
<path d="M221.891 98.0015C219.412 98.0015 216.932 98.0376 214.456 97.9819C213.652 97.9622 213.278 98.2672 212.986 98.9658C212.14 100.983 211.163 102.948 210.379 104.988C209.952 106.103 209.346 106.457 208.181 106.398C206.125 106.296 206.108 106.362 206.925 104.538C211.251 94.8987 215.594 85.2656 219.907 75.616C220.186 74.9928 220.533 74.7009 221.212 74.7665C221.662 74.8092 222.131 74.8354 222.574 74.7633C223.492 74.6157 223.872 75.088 224.217 75.8587C228.612 85.692 233.03 95.5186 237.471 105.332C237.842 106.149 237.783 106.388 236.825 106.388C234.211 106.388 234.221 106.418 233.184 104.01C232.466 102.341 231.672 100.707 231.006 99.0183C230.675 98.1754 230.19 97.9589 229.327 97.9786C226.847 98.0409 224.368 98.0015 221.891 98.0015ZM221.986 78.5089C219.563 84.0454 217.286 89.2573 214.994 94.4625C214.679 95.1742 215.04 95.2038 215.587 95.2038C219.841 95.1939 224.095 95.1841 228.349 95.2103C229.169 95.2169 229.238 95.0037 228.917 94.2887C227.474 91.0907 226.077 87.8731 224.669 84.6588C223.807 82.7072 222.961 80.7491 221.986 78.5089Z" fill="#162D3D"/>
<path d="M204.796 52.3581C203.773 52.6336 203.156 52.1252 202.71 50.951C201.92 48.8715 200.91 46.8773 200.034 44.8307C199.772 44.2173 199.437 43.9615 198.742 43.968C193.664 43.9976 188.584 44.0008 183.506 43.9648C182.755 43.9582 182.398 44.2403 182.122 44.8864C181.266 46.9003 180.295 48.865 179.518 50.9051C179.078 52.0531 178.472 52.4598 177.242 52.3909C175.208 52.2761 175.205 52.3581 176.038 50.5017C180.338 40.9472 184.648 31.3961 188.912 21.8252C189.276 21.0085 189.712 20.8216 190.555 20.7199C192.326 20.5034 193.097 21.2185 193.802 22.8322C197.918 32.2423 202.179 41.5868 206.4 50.951C207.04 52.3712 207.066 52.3614 205.492 52.3581C205.328 52.3581 205.164 52.3581 204.796 52.3581ZM191.086 24.5017C188.669 30.0447 186.406 35.2566 184.11 40.4552C183.775 41.2096 184.169 41.1867 184.684 41.1867C188.971 41.1834 193.258 41.1768 197.544 41.1965C198.305 41.1998 198.345 40.9833 198.056 40.3404C196.393 36.6177 194.77 32.8786 193.13 29.1428C192.493 27.6898 191.85 26.2368 191.086 24.5017Z" fill="#162D3D"/>
<path d="M165.234 97.6144C166.172 96.0531 166.71 94.4525 167.041 92.7994C167.195 92.0286 167.385 91.8745 168.15 92.1271C169.829 92.6846 169.829 92.6321 169.373 94.3312C168.943 95.9318 168.366 97.4701 167.523 98.8935C167.205 99.4315 167.264 99.7398 167.687 100.156C168.72 101.167 169.681 102.246 170.721 103.249C171.256 103.764 171.462 104.181 170.79 104.729C170.537 104.932 170.334 105.211 170.154 105.486C169.77 106.083 169.465 105.939 169.052 105.483C168.104 104.446 167.084 103.479 166.142 102.442C165.683 101.937 165.447 101.819 164.824 102.36C160.491 106.136 155.512 106.788 150.277 104.778C145.157 102.81 143.904 97.2175 147.437 93.0257C148.729 91.4907 150.343 90.3362 152.045 89.3227C152.747 88.9029 152.757 88.6634 152.209 88.0927C150.773 86.5971 149.48 84.9965 149.182 82.8284C148.628 78.7908 151.061 75.8291 155.378 75.3568C156.775 75.2059 158.179 75.2387 159.55 75.6552C163.538 76.8688 165.053 81.4279 162.59 84.8358C161.354 86.5479 159.615 87.6729 157.854 88.7487C157.346 89.057 157.1 89.2374 157.647 89.795C160.173 92.3403 162.649 94.9379 165.234 97.6144ZM155.551 103.253C158.464 103.197 160.967 102.419 163.046 100.497C163.459 100.117 163.676 99.8644 163.154 99.333C160.458 96.5943 157.808 93.8129 155.142 91.0512C154.918 90.8183 154.745 90.5428 154.322 90.8052C152.455 91.9565 150.54 93.0553 149.316 94.9543C147.663 97.516 148.496 100.698 151.16 102.193C152.567 102.987 154.115 103.18 155.551 103.253ZM151.957 82.1101C152.026 84.1306 153.679 85.6164 155.168 87.2039C155.348 87.3974 155.558 87.2859 155.725 87.1842C157.421 86.174 159.179 85.2195 160.366 83.5796C161.908 81.4476 161.019 78.6203 158.585 77.8626C157.214 77.4363 155.824 77.469 154.472 77.9971C152.839 78.6301 151.94 79.9749 151.957 82.1101Z" fill="#0E2839"/>
<path d="M193.887 106.795C188.692 106.742 184.999 105.84 181.768 103.377C181.115 102.879 180.764 102.456 181.378 101.704C181.581 101.452 181.732 101.137 181.834 100.829C182.109 100.012 182.372 99.9661 183.113 100.524C187.226 103.63 191.824 104.542 196.79 103.121C199.712 102.285 201.12 100.064 200.68 97.3618C200.398 95.6333 199.25 94.6166 197.777 93.9146C195.186 92.6814 192.342 92.2615 189.617 91.4612C187.223 90.7593 184.845 89.9525 183.247 87.8927C179.902 83.5763 181.988 77.1837 187.452 75.3207C192.464 73.6119 197.371 74.14 202.058 76.6327C202.796 77.0263 203.012 77.4625 202.54 78.1972C202.363 78.4694 202.248 78.7942 202.163 79.109C201.94 79.9487 201.595 79.9782 200.847 79.5485C197.184 77.4494 193.284 76.7573 189.177 77.9906C187.357 78.5383 185.943 79.624 185.366 81.5526C184.671 83.8715 185.497 85.9214 187.642 87.1186C190.168 88.529 193.031 88.8964 195.757 89.6868C197.226 90.1099 198.676 90.5691 200.037 91.2874C202.523 92.6027 204.009 94.5608 204.157 97.4438C204.324 100.711 203.058 103.246 200.264 104.935C197.941 106.342 195.373 106.867 193.887 106.795Z" fill="#152C3C"/>
<path d="M248.613 52.7352C243.893 52.7155 240.265 51.8332 237.11 49.4388C236.74 49.16 236.103 48.9272 236.326 48.3237C236.608 47.5594 236.963 46.7788 237.468 46.1491C237.766 45.7752 238.074 46.3787 238.343 46.5755C242.561 49.6192 247.183 50.5606 252.175 49.0452C255.586 48.0088 257.006 44.5517 255.301 41.8032C254.615 40.7011 253.536 40.091 252.378 39.6122C249.967 38.6118 247.389 38.1756 244.897 37.4638C243.621 37.0997 242.384 36.657 241.204 36.0502C238.527 34.666 237.012 32.5472 236.953 29.4608C236.887 26.1415 238.238 23.6291 241.135 22.0022C244.356 20.195 247.849 20.1491 251.378 20.6017C253.31 20.8477 255.127 21.5135 256.882 22.3925C257.889 22.8944 258.213 23.37 257.662 24.4819C256.914 25.9906 257.023 25.9939 255.576 25.2461C252.037 23.4159 248.337 22.8025 244.444 23.9538C243.729 24.167 243.057 24.4786 242.453 24.9279C239.386 27.2206 239.665 31.3664 243.027 33.1901C245.494 34.5283 248.268 34.8923 250.919 35.6533C252.188 36.0174 253.454 36.3978 254.651 36.9653C257.416 38.2772 259.223 40.2354 259.351 43.4989C259.496 47.1298 257.925 49.6947 254.763 51.315C252.582 52.4301 250.23 52.8204 248.613 52.7352Z" fill="#152C3C"/>
<path d="M221.344 52.7451C216.581 52.6959 212.957 51.8038 209.811 49.3832C209.47 49.1208 208.883 48.8912 209.09 48.3598C209.401 47.5661 209.798 46.7756 210.313 46.1032C210.543 45.8048 210.831 46.3591 211.077 46.5362C215.279 49.6062 219.894 50.5377 224.899 49.065C227.71 48.2385 229.124 45.9589 228.668 43.3383C228.333 41.4031 226.962 40.3929 225.309 39.6811C222.833 38.6119 220.166 38.1855 217.595 37.4442C216.322 37.0769 215.085 36.6275 213.908 36.0142C211.366 34.6924 209.883 32.6687 209.739 29.7495C209.578 26.5122 210.674 23.78 213.564 22.2352C219.166 19.2406 224.771 19.8835 230.255 22.7502C230.813 23.0421 230.901 23.4389 230.619 23.9769C230.485 24.2327 230.36 24.4983 230.285 24.7771C230.003 25.8038 229.629 26.0038 228.573 25.4069C224.981 23.3766 221.14 22.7436 217.126 23.9834C214.58 24.7706 213.081 26.6959 213.101 29.0312C213.117 30.9598 214.108 32.2915 215.764 33.1803C218.237 34.5087 221.006 34.8892 223.656 35.6468C224.929 36.0109 226.185 36.3979 227.392 36.949C230.721 38.4709 232.417 40.98 232.121 44.7093C231.846 48.186 229.855 50.3672 226.778 51.666C224.774 52.5089 222.656 52.8369 221.344 52.7451Z" fill="#152C3C"/>
<path d="M280.012 36.5751C280.012 31.7044 280.048 26.8304 279.985 21.9597C279.972 20.92 280.32 20.7429 281.248 20.7494C287.565 20.7855 293.883 20.8216 300.2 20.7265C301.705 20.7035 301.558 21.4448 301.623 22.455C301.699 23.6194 301.213 23.826 300.19 23.8194C294.988 23.7801 289.786 23.826 284.581 23.7768C283.584 23.767 283.315 24.0687 283.331 25.0429C283.387 28.3031 283.39 31.5666 283.331 34.8269C283.315 35.7649 283.58 36.0109 284.502 36.0011C289.084 35.9552 293.669 36.0208 298.251 35.9519C299.452 35.9322 299.485 36.4996 299.435 37.3787C299.39 38.1855 299.655 38.9793 298.271 38.953C293.689 38.8677 289.104 38.9465 284.522 38.9006C283.584 38.8907 283.324 39.1793 283.338 40.0944C283.383 43.768 283.318 47.4448 283.383 51.1183C283.4 52.1055 283.141 52.404 282.153 52.3811C280.015 52.3319 280.012 52.3811 280.012 50.1999C280.012 45.6572 280.012 41.1145 280.012 36.5751Z" fill="#152C3C"/>
<path d="M59.5644 63.7262C58.9937 64.602 58.3148 65.3728 57.3767 65.8779C57.3505 65.3432 57.3013 64.8086 57.3013 64.2773C57.298 54.9032 57.3078 45.5292 57.2882 36.1552C57.2849 34.3414 57.1799 32.5308 56.8618 30.7334C56.068 26.2465 53.7065 23.8062 49.2392 22.9174C47.491 22.5697 45.7231 22.4254 43.9421 22.5041C43.2402 22.5369 42.8729 22.3827 42.886 21.566C42.8991 20.8215 43.1254 20.5624 43.8896 20.5624C53.4703 20.5821 63.051 20.5886 72.6284 20.5591C73.4943 20.5558 73.5304 20.9691 73.5533 21.6218C73.5796 22.3532 73.2712 22.5238 72.5923 22.5074C70.6014 22.4516 68.64 22.6911 66.7114 23.206C63.2871 24.1211 61.1519 26.3088 60.2729 29.7199C59.7973 31.5633 59.5775 33.4492 59.5775 35.3581C59.5743 44.8142 59.5677 54.2702 59.5644 63.7262Z" fill="#152C3C"/>
<path d="M250.42 92.1469C250.42 96.5223 250.397 100.898 250.443 105.273C250.453 106.152 250.2 106.398 249.335 106.385C247.091 106.356 247.091 106.395 247.091 104.191C247.091 95.8532 247.062 87.5123 247.121 79.1748C247.13 77.971 246.753 77.7447 245.651 77.7775C242.929 77.8562 240.203 77.7545 237.478 77.83C236.412 77.8595 236.051 77.4987 236.202 76.4918C236.238 76.2491 236.238 75.9932 236.202 75.7505C236.084 74.9633 236.444 74.7567 237.182 74.7698C239.163 74.8059 241.145 74.7829 243.126 74.7829C248.78 74.7829 254.438 74.842 260.089 74.7436C261.683 74.7173 261.224 75.6652 261.313 76.4885C261.421 77.479 261.136 77.8628 260.047 77.83C257.2 77.748 254.35 77.8431 251.503 77.7775C250.597 77.7578 250.391 78.0432 250.397 78.8894C250.437 83.314 250.417 87.7321 250.42 92.1469Z" fill="#132A3A"/>
<path d="M269.732 36.6241C269.732 41.4555 269.703 46.2868 269.759 51.1149C269.768 52.0956 269.526 52.4039 268.532 52.3776C266.423 52.3219 266.423 52.3743 266.423 50.3014C266.423 40.9307 266.443 31.5566 266.397 22.1859C266.39 21.074 266.63 20.559 267.804 20.7591C268.086 20.8083 268.384 20.7985 268.67 20.7591C269.562 20.6378 269.762 21.0346 269.755 21.8841C269.713 26.7975 269.732 31.7108 269.732 36.6241Z" fill="#132A3A"/>
<path d="M18.0504 142.218C18.0504 139.909 18.07 137.597 18.0372 135.288C18.0274 134.632 18.1586 134.291 18.9097 134.31C21.0121 134.363 23.1211 134.268 25.217 134.409C29.4547 134.691 32.095 137.288 32.5968 141.506C33.0265 145.134 30.7634 148.535 27.0538 149.726C26.4437 149.923 25.7516 149.896 25.0957 149.906C23.0752 149.929 21.0515 149.883 19.0344 149.946C18.2078 149.969 18.011 149.71 18.0307 148.903C18.0897 146.676 18.0504 144.445 18.0504 142.218ZM19.7887 142.107C19.7887 143.963 19.792 145.823 19.7854 147.679C19.7854 148.109 19.7428 148.539 20.3758 148.516C22.229 148.447 24.0986 148.703 25.9353 148.339C29.0414 147.719 30.9208 145.367 30.9274 142.166C30.9339 139.001 29.0086 136.629 25.9189 135.999C24.1182 135.632 22.2946 135.885 20.4841 135.796C19.815 135.763 19.7756 136.147 19.7789 136.659C19.7953 138.476 19.7855 140.293 19.7887 142.107Z" fill="#243544"/>
<path d="M101.082 142.169C101.082 139.899 101.118 137.63 101.062 135.363C101.042 134.533 101.308 134.284 102.112 134.31C104.214 134.376 106.323 134.261 108.419 134.419C112.512 134.724 115.192 137.439 115.645 141.559C116.045 145.17 113.703 148.604 110.043 149.759C109.734 149.857 109.393 149.887 109.065 149.89C106.674 149.91 104.28 149.9 101.889 149.939C101.252 149.949 101.049 149.775 101.062 149.103C101.111 146.791 101.082 144.482 101.082 142.169ZM102.823 142.182C102.823 143.999 102.83 145.816 102.82 147.63C102.817 148.106 102.771 148.558 103.479 148.522C105.333 148.434 107.199 148.713 109.036 148.319C112.129 147.66 113.988 145.295 113.962 142.094C113.939 138.981 112.053 136.672 109.003 136.009C107.284 135.636 105.542 135.901 103.821 135.786C102.958 135.727 102.781 136.065 102.807 136.856C102.863 138.63 102.823 140.405 102.823 142.182Z" fill="#243544"/>
<path d="M254.894 142.1C254.894 139.834 254.914 137.564 254.881 135.298C254.871 134.642 255.005 134.297 255.75 134.314C257.934 134.366 260.125 134.255 262.3 134.419C266.364 134.727 269.067 137.525 269.457 141.618C269.805 145.298 267.463 148.732 263.789 149.752C262.435 150.129 260.998 149.897 259.601 149.92C258.321 149.939 257.042 149.89 255.766 149.936C255.065 149.962 254.858 149.739 254.874 149.024C254.927 146.718 254.894 144.409 254.894 142.1ZM256.622 142.166C256.622 143.983 256.626 145.8 256.619 147.617C256.616 148.089 256.563 148.552 257.272 148.522C259.125 148.44 260.995 148.713 262.831 148.329C265.934 147.683 267.774 145.341 267.755 142.113C267.738 138.971 265.869 136.662 262.825 136.016C260.985 135.626 259.119 135.885 257.265 135.803C256.554 135.77 256.616 136.252 256.616 136.718C256.622 138.532 256.622 140.349 256.622 142.166Z" fill="#253645"/>
<path d="M57.0422 149.926C52.5913 150.274 49.0424 146.463 49.0162 142.208C48.9899 137.82 52.4699 134.36 56.993 134.33C61.5849 134.297 65.055 137.738 65.0681 142.222C65.078 146.177 61.7554 150.261 57.0422 149.926ZM63.3035 142.169C63.3035 138.551 60.6632 135.822 57.1373 135.803C53.5064 135.78 50.7873 138.473 50.7644 142.113C50.7414 145.833 53.4408 148.545 57.1438 148.519C60.7026 148.493 63.3003 145.813 63.3035 142.169Z" fill="#243544"/>
<path d="M205.436 149.926C200.808 150.28 197.334 146.292 197.38 142.11C197.426 137.728 200.86 134.369 205.334 134.33C209.926 134.287 213.406 137.708 213.436 142.199C213.459 146.19 210.103 150.257 205.436 149.926ZM211.691 142.294C211.743 138.623 209.083 135.832 205.508 135.803C201.91 135.773 199.138 138.502 199.106 142.113C199.073 145.747 201.753 148.48 205.383 148.519C208.945 148.555 211.642 145.895 211.691 142.294Z" fill="#243544"/>
<path d="M279.582 149.926C275.128 150.264 271.589 146.472 271.559 142.199C271.53 137.804 275.033 134.343 279.546 134.327C284.105 134.31 287.516 137.649 287.605 142.107C287.69 146.135 284.312 150.277 279.582 149.926ZM285.873 142.212C285.886 138.545 283.19 135.783 279.608 135.8C276.043 135.816 273.334 138.512 273.304 142.071C273.271 145.8 275.958 148.526 279.654 148.516C283.213 148.509 285.86 145.826 285.873 142.212Z" fill="#243544"/>
<path d="M125.786 149.926C121.286 150.267 117.783 146.436 117.757 142.215C117.731 137.813 121.198 134.363 125.727 134.33C130.309 134.294 133.796 137.741 133.812 142.218C133.825 146.151 130.509 150.264 125.786 149.926ZM125.835 148.519C129.384 148.519 132.054 145.82 132.071 142.218C132.087 138.571 129.365 135.786 125.796 135.803C122.182 135.819 119.476 138.558 119.482 142.192C119.495 145.833 122.188 148.519 125.835 148.519Z" fill="#243544"/>
<path d="M80.8741 145.289C80.8741 145.371 80.8872 145.456 80.8708 145.534C80.7068 146.479 81.3628 147.643 80.4739 148.349C79.3522 149.241 78.0632 149.844 76.5347 149.93C73.8911 150.08 71.441 149.772 69.4304 147.837C67.0951 145.59 66.4293 142.159 67.7544 139.05C69.004 136.118 72.2839 134.163 75.6623 134.34C77.3974 134.432 78.998 134.881 80.3067 136.098C80.6707 136.436 81.107 136.715 80.5723 137.302C80.0869 137.836 79.7852 137.728 79.2604 137.302C76.7315 135.249 73.2614 135.331 70.9753 137.433C68.5612 139.657 68.0758 143.104 69.8076 145.748C71.5329 148.385 75.764 149.356 78.5519 147.785C79.0439 147.506 79.2735 147.194 79.2538 146.617C79.2177 145.462 79.2669 144.305 79.2276 143.15C79.2046 142.517 79.4047 142.258 80.0672 142.268C80.7396 142.278 80.9233 142.566 80.8839 143.183C80.8446 143.881 80.8741 144.587 80.8741 145.289Z" fill="#243544"/>
<path d="M98.5628 149.769C97.4049 150.159 96.5587 150.021 96.2865 148.739C95.765 146.292 94.2956 145.465 91.8487 145.839C90.4384 146.056 88.9624 145.908 87.5192 145.865C86.8534 145.846 86.4401 146.013 86.2171 146.695C86.0006 147.358 85.5611 147.958 85.3939 148.627C85.0823 149.874 84.3508 150.172 83.0717 149.792C83.8851 147.961 84.6887 146.141 85.5021 144.324C86.8862 141.238 88.29 138.158 89.6545 135.065C89.8873 134.537 90.176 134.291 90.7631 134.31C91.2912 134.33 91.6946 134.386 91.9504 134.96C94.1349 139.893 96.3455 144.816 98.5628 149.769ZM90.7992 136.213C89.6053 138.961 88.5557 141.375 87.5094 143.786C87.2962 144.278 87.493 144.468 87.9948 144.465C89.8939 144.458 91.793 144.462 93.6953 144.458C94.2431 144.458 94.312 144.186 94.1152 143.737C93.0459 141.333 91.9898 138.925 90.7992 136.213Z" fill="#263645"/>
<path d="M15.5379 149.788C14.2456 150.172 13.4552 149.893 13.2059 148.64C12.7336 146.272 11.3003 145.515 8.95838 145.843C7.45946 146.052 5.90805 145.905 4.37961 145.869C3.7433 145.852 3.40219 146.082 3.17915 146.676C2.8446 147.565 2.43461 148.421 2.05742 149.293C1.9295 149.588 1.87374 149.952 1.42439 149.923C0.975038 149.893 0.371534 150.031 0.115699 149.792C-0.241813 149.464 0.328896 149.096 0.486333 148.742C2.47397 144.298 4.48129 139.863 6.44268 135.406C6.7838 134.629 7.18723 134.169 8.09577 134.32C8.45656 134.379 8.70255 134.501 8.85671 134.845C11.0739 139.804 13.2944 144.767 15.5379 149.788ZM7.77105 136.213C6.587 138.935 5.54398 141.339 4.49112 143.737C4.23857 144.314 4.48456 144.468 5.02247 144.465C6.87235 144.458 8.72223 144.462 10.5721 144.465C11.0116 144.465 11.3396 144.36 11.1067 143.822C10.044 141.385 8.97151 138.948 7.77105 136.213Z" fill="#253645"/>
<path d="M153.839 149.789C156.073 144.81 158.29 139.89 160.478 134.957C160.734 134.376 161.134 134.327 161.659 134.311C162.246 134.291 162.538 134.543 162.771 135.068C164.863 139.778 166.982 144.478 169.088 149.185C169.189 149.411 169.511 149.811 169.055 149.861C168.511 149.92 167.782 150.287 167.412 149.52C166.982 148.627 166.595 147.716 166.238 146.794C165.982 146.131 165.595 145.846 164.85 145.862C162.662 145.912 160.475 145.905 158.29 145.866C157.615 145.853 157.214 146.04 156.988 146.699C156.762 147.358 156.339 147.962 156.171 148.634C155.857 149.877 155.125 150.179 153.839 149.789ZM161.587 136.219C160.396 138.942 159.33 141.375 158.267 143.812C157.966 144.505 158.461 144.462 158.884 144.462C160.37 144.465 161.856 144.462 163.338 144.462C165.185 144.462 165.185 144.462 164.453 142.786C163.538 140.69 162.623 138.594 161.587 136.219Z" fill="#253645"/>
<path d="M252.283 149.798C251.184 150.162 250.364 149.969 250.092 148.709C249.561 146.253 248.055 145.485 245.635 145.839C244.178 146.052 242.666 145.895 241.181 145.869C240.61 145.859 240.262 146.029 240.056 146.597C239.803 147.292 239.354 147.932 239.186 148.644C238.881 149.919 238.134 150.169 236.874 149.792C237.425 148.562 237.973 147.345 238.517 146.128C240.154 142.477 241.797 138.827 243.418 135.17C243.657 134.625 243.91 134.284 244.582 134.307C245.189 134.327 245.556 134.478 245.818 135.075C247.954 139.903 250.122 144.717 252.277 149.539C252.309 149.605 252.283 149.696 252.283 149.798ZM244.611 136.229C243.408 138.984 242.322 141.451 241.259 143.927C241.043 144.429 241.43 144.465 241.784 144.465C243.68 144.468 245.576 144.468 247.472 144.465C247.829 144.465 248.213 144.416 248 143.92C246.927 141.447 245.828 138.984 244.611 136.229Z" fill="#253645"/>
<path d="M295.552 149.89C293.764 150.149 292.131 149.569 290.596 148.575C289.993 148.185 289.832 147.798 290.255 147.165C290.724 146.463 291.032 147.079 291.35 147.273C293.197 148.404 295.185 148.762 297.294 148.335C298.809 148.03 299.708 147.119 299.75 145.944C299.79 144.842 299.117 144.013 297.641 143.537C296.306 143.111 294.929 142.819 293.587 142.409C292.515 142.077 291.491 141.618 290.832 140.631C289.412 138.502 290.514 135.639 293.141 134.773C295.48 134.002 297.782 134.228 300.016 135.245C300.58 135.501 300.895 135.763 300.56 136.465C300.216 137.19 299.829 136.892 299.37 136.669C297.677 135.845 295.919 135.55 294.083 136.091C292.948 136.429 292.049 137.03 291.957 138.358C291.859 139.726 292.705 140.414 293.837 140.785C295.519 141.339 297.264 141.713 298.927 142.323C300.875 143.038 301.994 144.944 301.587 146.541C301.2 148.063 299.111 149.779 297.481 149.884C296.864 149.926 296.241 149.89 295.552 149.89Z" fill="#263645"/>
<path d="M176.126 149.893C174.306 150.152 172.637 149.569 171.079 148.522C170.505 148.138 170.429 147.781 170.783 147.204C171.21 146.512 171.528 147.027 171.872 147.246C173.663 148.378 175.612 148.739 177.681 148.375C179.295 148.089 180.233 147.204 180.305 146C180.374 144.822 179.623 143.993 178.016 143.474C176.369 142.943 174.618 142.753 173.047 141.985C170.974 140.975 170.209 138.922 171.154 136.918C171.659 135.845 172.545 135.17 173.63 134.806C176.008 134.005 178.337 134.232 180.613 135.265C181.243 135.55 181.381 135.894 181.089 136.521C180.781 137.18 180.397 136.905 179.987 136.701C178.301 135.872 176.553 135.57 174.706 136.081C173.316 136.465 172.581 137.262 172.528 138.43C172.463 139.804 173.332 140.457 174.454 140.824C176.136 141.375 177.875 141.766 179.541 142.353C181.014 142.871 181.948 143.973 182.027 145.583C182.106 147.168 181.319 148.306 180.007 149.165C178.823 149.936 177.534 149.982 176.126 149.893Z" fill="#263645"/>
<path d="M141.29 149.903C139.598 150.159 137.971 149.562 136.436 148.575C135.826 148.181 135.695 147.755 136.108 147.148C136.567 146.476 136.885 147.079 137.213 147.279C139.227 148.493 141.366 148.844 143.629 148.201C144.741 147.883 145.535 147.194 145.59 145.941C145.646 144.711 144.869 144.055 143.829 143.684C142.937 143.37 142.005 143.166 141.1 142.891C140.234 142.628 139.355 142.386 138.519 142.041C136.974 141.402 136.043 140.273 136.062 138.535C136.079 136.865 137.154 135.399 138.86 134.822C141.277 134.002 143.649 134.205 145.961 135.294C146.525 135.56 146.686 135.849 146.43 136.446C146.122 137.164 145.731 136.911 145.253 136.682C143.688 135.927 142.064 135.596 140.329 136C138.762 136.364 137.906 137.141 137.833 138.338C137.755 139.617 138.404 140.405 140.018 140.929C141.625 141.451 143.317 141.677 144.882 142.346C146.279 142.943 147.211 143.94 147.319 145.498C147.427 147.076 146.686 148.244 145.38 149.126C144.157 149.943 142.822 149.969 141.29 149.903Z" fill="#263645"/>
<path d="M189.673 149.897C187.928 150.166 186.304 149.552 184.763 148.581C184.149 148.194 184.012 147.775 184.425 147.161C184.884 146.479 185.199 147.083 185.527 147.279C187.541 148.49 189.679 148.844 191.942 148.201C193.054 147.883 193.845 147.204 193.9 145.944C193.956 144.705 193.189 144.058 192.146 143.691C191.254 143.376 190.325 143.163 189.42 142.891C188.59 142.642 187.751 142.422 186.95 142.1C185.363 141.461 184.362 140.349 184.385 138.538C184.408 136.859 185.451 135.413 187.177 134.822C189.594 133.996 191.965 134.209 194.278 135.291C194.832 135.55 195.019 135.832 194.747 136.439C194.432 137.144 194.061 136.912 193.569 136.679C192.008 135.931 190.384 135.59 188.646 135.996C187.065 136.367 186.212 137.128 186.13 138.325C186.042 139.617 186.74 140.418 188.436 140.956C190.047 141.467 191.742 141.687 193.294 142.389C195.56 143.412 196.347 145.817 195.009 147.83C194.199 149.051 192.982 149.736 191.516 149.887C190.945 149.946 190.361 149.897 189.673 149.897Z" fill="#263645"/>
<path d="M224.168 149.926C220.232 149.933 217.434 148.142 216.283 145.075C215.138 142.025 216.02 138.423 218.418 136.354C221.009 134.117 224.729 133.687 227.667 135.301C228.061 135.517 228.432 135.79 228.779 136.082C229.156 136.396 229.583 136.705 229.045 137.289C228.576 137.8 228.281 137.774 227.736 137.321C225.053 135.107 221.308 135.429 219.074 137.997C216.87 140.532 217.001 144.495 219.366 146.777C221.508 148.847 225.089 149.123 227.589 147.342C228.195 146.909 228.628 146.709 229.111 147.401C229.642 148.165 228.858 148.316 228.5 148.588C227.136 149.618 225.604 150.149 224.168 149.926Z" fill="#253645"/>
<path d="M40.5671 147.748C41.269 146.144 41.8594 144.806 42.4432 143.465C43.6436 140.706 44.8441 137.948 46.0413 135.186C46.2216 134.773 46.3201 134.287 46.9301 134.327C47.2516 134.35 47.6288 134.195 47.878 134.458C48.1863 134.786 47.819 135.068 47.7009 135.343C45.7165 139.962 43.6961 144.567 41.7446 149.201C41.4756 149.841 41.141 149.929 40.5572 149.942C39.9078 149.956 39.5634 149.798 39.2846 149.129C37.3691 144.57 35.3815 140.04 33.4398 135.491C33.2955 135.153 32.669 134.642 33.3742 134.396C33.9154 134.209 34.6829 134.045 35.0502 134.924C36.0211 137.243 37.028 139.545 38.0218 141.854C38.832 143.73 39.6421 145.603 40.5671 147.748Z" fill="#243544"/>
<path d="M234.509 142.13C234.509 144.439 234.476 146.751 234.529 149.06C234.545 149.805 234.276 149.952 233.611 149.942C232.984 149.936 232.764 149.782 232.771 149.106C232.804 144.485 232.8 139.863 232.774 135.242C232.771 134.54 232.997 134.317 233.693 134.3C234.503 134.284 234.522 134.724 234.519 135.321C234.499 137.594 234.509 139.86 234.509 142.13Z" fill="#243544"/>
</svg>
